{
.appVersion = "85";
DisplayStrings = (
M,
O,
"Ó",
Q,
X,
S,
A,
C,
E,
R,
U,
W,
Z,
"É",
vpv1G
);
copyright = "Copyright (c) 1981, 1982, 1983, 1989 and 1993, Linotype Library GmbH or its affiliated Linotype-Hell companies. All rights reserved.\012\012The digitally encoded machine readable software for producing the Typefaces licensed to you is now the property of Heidelberger Druckmaschinen AG and its licensors, and may not be reproduced, used, displayed, modified, disclosed or transferred without the express written approval of Heidelberger Druckmaschinen AG.\012\012Copyright (c) 1988, 1990, 1993 Adobe Systems Incorporated. All Rights Reserved.";
customParameters = (
{
name = vendorID;
value = LINO;
},
{
name = panose;
value = (
2,
0,
8,
3,
0,
0,
0,
9,
0,
4
);
},
{
name = unicodeRanges;
value = (
0,
1,
2,
5,
6,
31
);
}
);
date = "2010-09-27 08:48:30 +0000";
designerURL = "http://www.LinotypeLibrary.com/";
familyName = "Helvetica Neue";
featurePrefixes = (
{
automatic = 1;
code = "languagesystem DFLT dflt;\012";
name = Languagesystems;
}
);
features = (
{
automatic = 1;
code = "feature frac;\012feature ordn;\012";
name = aalt;
},
{
automatic = 1;
code = "sub one slash four by onequarter;\012sub one slash two by onehalf;\012sub three slash four by threequarters;\012";
name = frac;
},
{
automatic = 1;
code = "sub [zero one two three four five six seven eight nine] [A a]' by ordfeminine;\012sub [zero one two three four five six seven eight nine] [O o]' by ordmasculine;\012sub N o period by numero;\012";
name = ordn;
},
{
automatic = 1;
code = "sub f i by fi;\012sub f l by fl;\012";
name = liga;
}
);
fontMaster = (
{
ascender = 975;
capHeight = 700;
customParameters = (
{
name = typoAscender;
value = 975;
},
{
name = typoDescender;
value = -218;
},
{
name = typoLineGap;
value = 57;
},
{
name = winAscent;
value = 975;
},
{
name = winDescent;
value = 217;
},
{
name = hheaAscender;
value = 975;
},
{
name = hheaDescender;
value = -217;
},
{
name = "Prep Table Assembly";

glyphs = (
{
glyphname = A;
lastChange = "2019-01-19 18:28:03 +0000";
layers = (
{
guideLines = (
{
angle = 114.1429;
position = "{276, 532}";
}
);
layerId = "7D8DBE61-6E0F-4C4E-A5A9-510089B62882";
paths = (
{
closed = 1;
nodes = (
"425 714 LINE",
"692 0 LINE",
"529 0 LINE",
"475 159 LINE",
"208 159 LINE",
"152 0 LINE",
"-6 0 LINE",
"220 596 LINE",
"299 417 LINE",
"249 276 LINE",
"434 276 LINE",
"345 538 LINE",
"342 538 LINE",
"264 714 LINE"
);
}
);
width = 685;
}
);
unicode = 0041;
},
{
glyphname = Aacute;
lastChange = "2019-01-18 19:25:35 +0000";
layers = (
{
layerId = "7D8DBE61-6E0F-4C4E-A5A9-510089B62882";
paths = (
{
closed = 1;
nodes = (
"363 920 LINE",
"520 920 LINE",
"366 778 LINE",
"267 778 LINE"
);
},
{
closed = 1;
nodes = (
"344 538 LINE",
"342 538 LINE",
"249 276 LINE",
"434 276 LINE"
);
},
{
closed = 1;
nodes = (
"692 0 LINE",
"529 0 LINE",
"475 159 LINE",
"208 159 LINE",
"152 0 LINE",
"-6 0 LINE",
"264 714 LINE",
"425 714 LINE"
);
}
);
width = 685;
}
);
unicode = 00C1;
},
{
glyphname = Acircumflex;
lastChange = "2019-01-18 19:25:35 +0000";
layers = (
{
layerId = "7D8DBE61-6E0F-4C4E-A5A9-510089B62882";
paths = (
{
closed = 1;
nodes = (
"518 778 LINE",
"401 778 LINE",
"339 859 LINE",
"275 778 LINE",
"167 778 LINE",
"278 920 LINE",
"408 920 LINE"
);
},
{
closed = 1;
nodes = (
"344 538 LINE",
"342 538 LINE",
"249 276 LINE",
"434 276 LINE"
);
},
{
closed = 1;
nodes = (
"692 0 LINE",
"529 0 LINE",
"475 159 LINE",
"208 159 LINE",
"152 0 LINE",
"-6 0 LINE",
"264 714 LINE",
"425 714 LINE"
);
}
);
width = 685;
}
);
unicode = 00C2;
},
{
glyphname = Adieresis;
lastChange = "2019-01-18 19:25:35 +0000";
layers = (
{
layerId = "7D8DBE61-6E0F-4C4E-A5A9-510089B62882";
paths = (
{
closed = 1;
nodes = (
"307 794 LINE",
"172 794 LINE",
"172 911 LINE",
"307 911 LINE"
);
},
{
closed = 1;
nodes = (
"513 794 LINE",
"378 794 LINE",
"378 911 LINE",
"513 911 LINE"
);
},
{
closed = 1;
nodes = (
"344 538 LINE",
"342 538 LINE",
"249 276 LINE",
"434 276 LINE"
);
},
{
closed = 1;
nodes = (
"692 0 LINE",
"529 0 LINE",
"475 159 LINE",
"208 159 LINE",
"152 0 LINE",
"-6 0 LINE",
"264 714 LINE",
"425 714 LINE"
);
}
);
width = 685;
}
);
unicode = 00C4;
},
{
glyphname = Agrave;
lastChange = "2019-01-18 19:25:35 +0000";
layers = (
{
layerId = "7D8DBE61-6E0F-4C4E-A5A9-510089B62882";
paths = (
{
closed = 1;
nodes = (
"418 778 LINE",
"319 778 LINE",
"165 920 LINE",
"322 920 LINE"
);
},
{
closed = 1;
nodes = (
"344 538 LINE",
"342 538 LINE",
"249 276 LINE",
"434 276 LINE"
);
},
{
closed = 1;
nodes = (
"692 0 LINE",
"529 0 LINE",
"475 159 LINE",
"208 159 LINE",
"152 0 LINE",
"-6 0 LINE",
"264 714 LINE",
"425 714 LINE"
);
}
);
width = 685;
}
);
unicode = 00C0;
},
{
glyphname = Aogonek;
lastChange = "2019-01-18 19:25:35 +0000";
layers = (
{
layerId = "7D8DBE61-6E0F-4C4E-A5A9-510089B62882";
paths = (
{
closed = 1;
nodes = (
"644 -127 LINE",
"634.667 -139.667 OFFCURVE",
"625.333 -147.833 OFFCURVE",
"616 -151.5 CURVE SMOOTH",
"606.667 -155.167 OFFCURVE",
"596.667 -157 OFFCURVE",
"586 -157 CURVE SMOOTH",
"576 -157 OFFCURVE",
"567 -153.833 OFFCURVE",
"559 -147.5 CURVE SMOOTH",
"551 -141.167 OFFCURVE",
"547 -133 OFFCURVE",
"547 -123 CURVE SMOOTH",
"547 -105.667 OFFCURVE",
"552.667 -87.333 OFFCURVE",
"564 -68 CURVE SMOOTH",
"575.333 -50 OFFCURVE",
"596 -27.333 OFFCURVE",
"626 0 CURVE",
"692 0 LINE",
"425 714 LINE",
"264 714 LINE",
"-6 0 LINE",
"152 0 LINE",
"208 159 LINE",
"475 159 LINE",
"529 0 LINE",
"559 0 LINE",
"533.667 -14.667 OFFCURVE",
"514 -28.667 OFFCURVE",
"500 -42 CURVE SMOOTH",
"484.667 -56 OFFCURVE",
"473.333 -68.5 OFFCURVE",
"466 -79.5 CURVE SMOOTH",
"458.667 -90.5 OFFCURVE",
"454.333 -100 OFFCURVE",
"453 -108 CURVE SMOOTH",
"451.667 -116 OFFCURVE",
"451 -122.333 OFFCURVE",
"451 -127 CURVE SMOOTH",
"451 -148.333 OFFCURVE",
"455.333 -165 OFFCURVE",
"464 -177 CURVE SMOOTH",
"472.667 -189 OFFCURVE",
"483 -198 OFFCURVE",
"495 -204 CURVE SMOOTH",
"507 -210 OFFCURVE",
"519 -213.667 OFFCURVE",
"531 -215 CURVE SMOOTH",
"543 -216.333 OFFCURVE",
"552 -217 OFFCURVE",
"558 -217 CURVE SMOOTH",
"580.667 -217 OFFCURVE",
"603.667 -212 OFFCURVE",
"627 -202 CURVE SMOOTH",
"650.333 -192 OFFCURVE",
"672 -174.333 OFFCURVE",
"692 -149 CURVE"
);
},
{
closed = 1;
nodes = (
"342 538 LINE",
"344 538 LINE",
"434 276 LINE",
"249 276 LINE"
);
}
);
width = 685;
}
);
unicode = 0104;
},
{
glyphname = Aring;
lastChange = "2019-01-18 19:25:35 +0000";
layers = (
{
layerId = "7D8DBE61-6E0F-4C4E-A5A9-510089B62882";
paths = (
{
closed = 1;
nodes = (
"359.333 975 OFFCURVE",
"375.333 971.833 OFFCURVE",
"390 965.5 CURVE SMOOTH",
"404.667 959.167 OFFCURVE",
"417.667 950.5 OFFCURVE",
"429 939.5 CURVE SMOOTH",
"440.333 928.5 OFFCURVE",
"449.167 915.667 OFFCURVE",
"455.5 901 CURVE SMOOTH",
"461.833 886.333 OFFCURVE",
"465 870.333 OFFCURVE",
"465 853 CURVE SMOOTH",
"465 836.333 OFFCURVE",
"461.833 820.5 OFFCURVE",
"455.5 805.5 CURVE SMOOTH",
"449.167 790.5 OFFCURVE",
"440.333 777.5 OFFCURVE",
"429 766.5 CURVE SMOOTH",
"417.667 755.5 OFFCURVE",
"404.667 746.833 OFFCURVE",
"390 740.5 CURVE SMOOTH",
"375.333 734.167 OFFCURVE",
"359.333 731 OFFCURVE",
"342 731 CURVE SMOOTH",
"325.333 731 OFFCURVE",
"309.5 734.167 OFFCURVE",
"294.5 740.5 CURVE SMOOTH",
"279.5 746.833 OFFCURVE",
"266.5 755.5 OFFCURVE",
"255.5 766.5 CURVE SMOOTH",
"244.5 777.5 OFFCURVE",
"235.833 790.5 OFFCURVE",
"229.5 805.5 CURVE SMOOTH",
"223.167 820.5 OFFCURVE",
"220 836.333 OFFCURVE",
"220 853 CURVE SMOOTH",
"220 870.333 OFFCURVE",
"223.167 886.333 OFFCURVE",
"229.5 901 CURVE SMOOTH",
"235.833 915.667 OFFCURVE",
"244.5 928.5 OFFCURVE",
"255.5 939.5 CURVE SMOOTH",
"266.5 950.5 OFFCURVE",
"279.5 959.167 OFFCURVE",
"294.5 965.5 CURVE SMOOTH",
"309.5 971.833 OFFCURVE",
"325.333 975 OFFCURVE",
"342 975 CURVE SMOOTH"
);
},
{
closed = 1;
nodes = (
"361.333 783 OFFCURVE",
"376.833 789.833 OFFCURVE",
"388.5 803.5 CURVE SMOOTH",
"400.167 817.167 OFFCURVE",
"406 833.667 OFFCURVE",
"406 853 CURVE SMOOTH",
"406 872.333 OFFCURVE",
"400.167 888.833 OFFCURVE",
"388.5 902.5 CURVE SMOOTH",
"376.833 916.167 OFFCURVE",
"361.333 923 OFFCURVE",
"342 923 CURVE SMOOTH",
"322.667 923 OFFCURVE",
"307.333 916.167 OFFCURVE",
"296 902.5 CURVE SMOOTH",
"284.667 888.833 OFFCURVE",
"279 872.333 OFFCURVE",
"279 853 CURVE SMOOTH",
"279 833.667 OFFCURVE",
"284.667 817.167 OFFCURVE",
"296 803.5 CURVE SMOOTH",
"307.333 789.833 OFFCURVE",
"322.667 783 OFFCURVE",
"342 783 CURVE SMOOTH"
);
},
{
closed = 1;
nodes = (
"344 538 LINE",
"342 538 LINE",
"249 276 LINE",
"434 276 LINE"
);
},
{
closed = 1;
nodes = (
"692 0 LINE",
"529 0 LINE",
"475 159 LINE",
"208 159 LINE",
"152 0 LINE",
"-6 0 LINE",
"264 714 LINE",
"425 714 LINE"
);
}
);
width = 685;
}
);
unicode = 00C5;
},
{
glyphname = Atilde;
lastChange = "2019-01-18 19:25:35 +0000";
layers = (
{
layerId = "7D8DBE61-6E0F-4C4E-A5A9-510089B62882";
paths = (
{
closed = 1;
nodes = (
"398.667 797 OFFCURVE",
"384.333 798.833 OFFCURVE",
"371 802.5 CURVE SMOOTH",
"357.667 806.167 OFFCURVE",
"344.667 810 OFFCURVE",
"332 814 CURVE",
"319.333 818.667 OFFCURVE",
"307.333 822.667 OFFCURVE",
"296 826 CURVE SMOOTH",
"284.667 829.333 OFFCURVE",
"273.333 831 OFFCURVE",
"262 831 CURVE SMOOTH",
"248.667 831 OFFCURVE",
"239.167 827.167 OFFCURVE",
"233.5 819.5 CURVE SMOOTH",
"227.833 811.833 OFFCURVE",
"223.333 801.667 OFFCURVE",
"220 789 CURVE",
"159 789 LINE",
"162.333 803.667 OFFCURVE",
"166.667 818.167 OFFCURVE",
"172 832.5 CURVE SMOOTH",
"177.333 846.833 OFFCURVE",
"184.667 859.833 OFFCURVE",
"194 871.5 CURVE SMOOTH",
"203.333 883.167 OFFCURVE",
"215.333 892.667 OFFCURVE",
"230 900 CURVE SMOOTH",
"244.667 907.333 OFFCURVE",
"263 911 OFFCURVE",
"285 911 CURVE SMOOTH",
"296.333 911 OFFCURVE",
"307.167 909.167 OFFCURVE",
"317.5 905.5 CURVE SMOOTH",
"327.833 901.833 OFFCURVE",
"338.333 898 OFFCURVE",
"349 894 CURVE",
"359.667 889.333 OFFCURVE",
"370.5 885.167 OFFCURVE",
"381.5 881.5 CURVE SMOOTH",
"392.5 877.833 OFFCURVE",
"403.667 876 OFFCURVE",
"415 876 CURVE SMOOTH",
"430.333 876 OFFCURVE",
"441.333 879.5 OFFCURVE",
"448 886.5 CURVE SMOOTH",
"454.667 893.5 OFFCURVE",
"457.667 901.667 OFFCURVE",
"457 911 CURVE",
"526 911 LINE",
"522.667 899.667 OFFCURVE",
"518.833 887.333 OFFCURVE",
"514.5 874 CURVE SMOOTH",
"510.167 860.667 OFFCURVE",
"503.833 848.333 OFFCURVE",
"495.5 837 CURVE SMOOTH",
"487.167 825.667 OFFCURVE",
"476.5 816.167 OFFCURVE",
"463.5 808.5 CURVE SMOOTH",
"450.5 800.833 OFFCURVE",
"434 797 OFFCURVE",
"414 797 CURVE SMOOTH"
);
},
{
closed = 1;
nodes = (
"344 538 LINE",
"342 538 LINE",
"249 276 LINE",
"434 276 LINE"
);
},
{
closed = 1;
nodes = (
"692 0 LINE",
"529 0 LINE",
"475 159 LINE",
"208 159 LINE",
"152 0 LINE",
"-6 0 LINE",
"264 714 LINE",
"425 714 LINE"
);
}
);
width = 685;
}
);
unicode = 00C3;
},
{
glyphname = AE;
lastChange = "2019-01-18 19:25:35 +0000";
layers = (
{
layerId = "7D8DBE61-6E0F-4C4E-A5A9-510089B62882";
paths = (
{
closed = 1;
nodes = (
"936 582 LINE",
"604 582 LINE",
"604 429 LINE",
"916 429 LINE",
"916 307 LINE",
"604 307 LINE",
"604 132 LINE",
"944 132 LINE",
"944 0 LINE",
"452 0 LINE",
"452 159 LINE",
"228 159 LINE",
"156 0 LINE",
"-10 0 LINE",
"330 714 LINE",
"936 714 LINE"
);
},
{
closed = 1;
nodes = (
"452 582 LINE",
"418 582 LINE",
"280 276 LINE",
"452 276 LINE"
);
}
);
width = 981;
}
);
unicode = 00C6;
},
{
glyphname = B;
lastChange = "2019-01-18 20:01:50 +0000";
layers = (
{
layerId = "7D8DBE61-6E0F-4C4E-A5A9-510089B62882";
paths = (
{
closed = 1;
nodes = (
"413 425 OFFCURVE",
"436 431.667 OFFCURVE",
"454 445 CURVE SMOOTH",
"472 458.333 OFFCURVE",
"481 480 OFFCURVE",
"481 510 CURVE SMOOTH",
"481 526.667 OFFCURVE",
"478 540.333 OFFCURVE",
"472 551 CURVE SMOOTH",
"466 561.667 OFFCURVE",
"458 570 OFFCURVE",
"448 576 CURVE SMOOTH",
"438 582 OFFCURVE",
"426.5 586.167 OFFCURVE",
"413.5 588.5 CURVE SMOOTH",
"400.5 590.833 OFFCURVE",
"387 592 OFFCURVE",
"373 592 CURVE SMOOTH",
"226 592 LINE",
"226 425 LINE",
"385 425 LINE SMOOTH"
);
},
{
closed = 1;
nodes = (
"439 714 OFFCURVE",
"470 711 OFFCURVE",
"498 705 CURVE SMOOTH",
"526 699 OFFCURVE",
"550 689.167 OFFCURVE",
"570 675.5 CURVE SMOOTH",
"590 661.833 OFFCURVE",
"605.5 643.667 OFFCURVE",
"616.5 621 CURVE SMOOTH",
"627.5 598.333 OFFCURVE",
"633 570.333 OFFCURVE",
"633 537 CURVE SMOOTH",
"633 501 OFFCURVE",
"624.833 471 OFFCURVE",
"608.5 447 CURVE SMOOTH",
"592.167 423 OFFCURVE",
"568 403.333 OFFCURVE",
"536 388 CURVE",
"580 375.333 OFFCURVE",
"612.833 353.167 OFFCURVE",
"634.5 321.5 CURVE SMOOTH",
"656.167 289.833 OFFCURVE",
"667 251.667 OFFCURVE",
"667 207 CURVE SMOOTH",
"667 171 OFFCURVE",
"660 139.833 OFFCURVE",
"646 113.5 CURVE SMOOTH",
"632 87.167 OFFCURVE",
"613.167 65.667 OFFCURVE",
"589.5 49 CURVE SMOOTH",
"565.833 32.333 OFFCURVE",
"538.833 20 OFFCURVE",
"508.5 12 CURVE SMOOTH",
"478.167 4 OFFCURVE",
"447 0 OFFCURVE",
"415 0 CURVE SMOOTH",
"69 0 LINE",
"69 714 LINE",
"405 714 LINE SMOOTH"
);
},
{
closed = 1;
nodes = (
"409.333 122 OFFCURVE",
"424 123.5 OFFCURVE",
"438 126.5 CURVE SMOOTH",
"452 129.5 OFFCURVE",
"464.333 134.5 OFFCURVE",
"475 141.5 CURVE SMOOTH",
"485.667 148.5 OFFCURVE",
"494.167 158 OFFCURVE",
"500.5 170 CURVE SMOOTH",
"506.833 182 OFFCURVE",
"510 197.333 OFFCURVE",
"510 216 CURVE SMOOTH",
"510 252.667 OFFCURVE",
"499.667 278.833 OFFCURVE",
"479 294.5 CURVE SMOOTH",
"458.333 310.167 OFFCURVE",
"431 318 OFFCURVE",
"397 318 CURVE SMOOTH",
"226 318 LINE",
"226 122 LINE",
"394 122 LINE SMOOTH"
);
},
{
closed = 1;
nodes = (
"226 592 LINE",
"328 592 LINE",
"328 714 LINE",
"227 714 LINE"
);
},
{
closed = 1;
nodes = (
"226 0 LINE",
"327 0 LINE",
"328 122 LINE",
"226 122 LINE"
);
}
);
width = 704;
}
);
unicode = 0042;
},
{
glyphname = C;
lastChange = "2019-01-19 18:21:58 +0000";
layers = (
{
guideLines = (
{
position = "{568, 474}";
},
{
position = "{583, 275}";
},
{
position = "{591, 367}";
}
);
layerId = "7D8DBE61-6E0F-4C4E-A5A9-510089B62882";
paths = (
{
closed = 1;
nodes = (
"44 434 OFFCURVE",
"45 438 OFFCURVE",
"48 452 CURVE SMOOTH",
"52 469 OFFCURVE",
"56 486 OFFCURVE",
"62 503 CURVE SMOOTH",
"78 548 OFFCURVE",
"101 588 OFFCURVE",
"131 622 CURVE SMOOTH",
"161 656 OFFCURVE",
"198 683 OFFCURVE",
"242 702 CURVE SMOOTH",
"285 721 OFFCURVE",
"334 731 OFFCURVE",
"389 731 CURVE SMOOTH",
"428 731 OFFCURVE",
"466 725 OFFCURVE",
"501 714 CURVE SMOOTH",
"536 703 OFFCURVE",
"567 686 OFFCURVE",
"595 665 CURVE SMOOTH",
"622 643 OFFCURVE",
"645 616 OFFCURVE",
"663 584 CURVE SMOOTH",
"681 552 OFFCURVE",
"692 515 OFFCURVE",
"697 474 CURVE",
"545 474 LINE",
"542 492 OFFCURVE",
"536 509 OFFCURVE",
"527 524 CURVE SMOOTH",
"518 539 OFFCURVE",
"506 552 OFFCURVE",
"492 563 CURVE SMOOTH",
"478 574 OFFCURVE",
"462 583 OFFCURVE",
"445 590 CURVE SMOOTH",
"427 596 OFFCURVE",
"408 599 OFFCURVE",
"389 599 CURVE SMOOTH",
"354 599 OFFCURVE",
"324 592 OFFCURVE",
"299 579 CURVE SMOOTH",
"274 565 OFFCURVE",
"254 547 OFFCURVE",
"239 524 CURVE SMOOTH",
"224 501 OFFCURVE",
"213 474 OFFCURVE",
"206 445 CURVE",
"202 419 LINE",
"43 419 LINE SMOOTH"
);
},
{
closed = 1;
nodes = (
"199 316 LINE",
"199 304 OFFCURVE",
"201 302 OFFCURVE",
"202 283 CURVE",
"203 278 OFFCURVE",
"204 272 OFFCURVE",
"206 267 CURVE SMOOTH",
"213 238 OFFCURVE",
"224 213 OFFCURVE",
"239 190 CURVE SMOOTH",
"254 167 OFFCURVE",
"274 149 OFFCURVE",
"299 136 CURVE SMOOTH",
"324 122 OFFCURVE",
"354 115 OFFCURVE",
"389 115 CURVE SMOOTH",
"437 115 OFFCURVE",
"475 130 OFFCURVE",
"502 159 CURVE SMOOTH",
"529 188 OFFCURVE",
"545 227 OFFCURVE",
"551 275 CURVE",
"703 275 LINE",
"699 230 OFFCURVE",
"689 190 OFFCURVE",
"672 154 CURVE SMOOTH",
"655 118 OFFCURVE",
"633 87 OFFCURVE",
"606 62 CURVE SMOOTH",
"579 37 OFFCURVE",
"547 17 OFFCURVE",
"510 4 CURVE SMOOTH",
"473 -9 OFFCURVE",
"433 -16 OFFCURVE",
"389 -16 CURVE SMOOTH",
"334 -16 OFFCURVE",
"285 -7 OFFCURVE",
"242 13 CURVE SMOOTH",
"198 32 OFFCURVE",
"161 58 OFFCURVE",
"131 91 CURVE SMOOTH",
"101 124 OFFCURVE",
"78 164 OFFCURVE",
"62 209 CURVE SMOOTH",
"53 233 OFFCURVE",
"43 258 OFFCURVE",
"43 316 CURVE"
);
}
);
width = 741;
}
);
unicode = 0043;
},
{
glyphname = Cacute;
lastChange = "2019-01-18 19:25:35 +0000";
layers = (
{
layerId = "7D8DBE61-6E0F-4C4E-A5A9-510089B62882";
paths = (
{
closed = 1;
nodes = (
"697 474 LINE",
"692.333 515.333 OFFCURVE",
"681 552 OFFCURVE",
"663 584 CURVE SMOOTH",
"645 616 OFFCURVE",
"622.167 642.833 OFFCURVE",
"594.5 664.5 CURVE SMOOTH",
"566.833 686.167 OFFCURVE",
"535.5 702.667 OFFCURVE",
"500.5 714 CURVE SMOOTH",
"465.5 725.333 OFFCURVE",
"428.333 731 OFFCURVE",
"389 731 CURVE SMOOTH",
"334.333 731 OFFCURVE",
"285.167 721.333 OFFCURVE",
"241.5 702 CURVE SMOOTH",
"197.833 682.667 OFFCURVE",
"161 656 OFFCURVE",
"131 622 CURVE SMOOTH",
"101 588 OFFCURVE",
"78 548.167 OFFCURVE",
"62 502.5 CURVE SMOOTH",
"46 456.833 OFFCURVE",
"38 407.333 OFFCURVE",
"38 354 CURVE SMOOTH",
"38 302 OFFCURVE",
"46 253.5 OFFCURVE",
"62 208.5 CURVE SMOOTH",
"78 163.5 OFFCURVE",
"101 124.333 OFFCURVE",
"131 91 CURVE SMOOTH",
"161 57.667 OFFCURVE",
"197.833 31.5 OFFCURVE",
"241.5 12.5 CURVE SMOOTH",
"285.167 -6.5 OFFCURVE",
"334.333 -16 OFFCURVE",
"389 -16 CURVE SMOOTH",
"433 -16 OFFCURVE",
"473.333 -9.333 OFFCURVE",
"510 4 CURVE SMOOTH",
"546.667 17.333 OFFCURVE",
"578.667 36.667 OFFCURVE",
"606 62 CURVE SMOOTH",
"633.333 87.333 OFFCURVE",
"655.333 118 OFFCURVE",
"672 154 CURVE SMOOTH",
"688.667 190 OFFCURVE",
"699 230.333 OFFCURVE",
"703 275 CURVE",
"551 275 LINE",
"545 227 OFFCURVE",
"528.5 188.333 OFFCURVE",
"501.5 159 CURVE SMOOTH",
"474.5 129.667 OFFCURVE",
"437 115 OFFCURVE",
"389 115 CURVE SMOOTH",
"353.667 115 OFFCURVE",
"323.667 121.833 OFFCURVE",
"299 135.5 CURVE SMOOTH",
"274.333 149.167 OFFCURVE",
"254.333 167.333 OFFCURVE",
"239 190 CURVE SMOOTH",
"223.667 212.667 OFFCURVE",
"212.5 238.167 OFFCURVE",
"205.5 266.5 CURVE SMOOTH",
"198.5 294.833 OFFCURVE",
"195 324 OFFCURVE",
"195 354 CURVE SMOOTH",
"195 385.333 OFFCURVE",
"198.5 415.667 OFFCURVE",
"205.5 445 CURVE SMOOTH",
"212.5 474.333 OFFCURVE",
"223.667 500.5 OFFCURVE",
"239 523.5 CURVE SMOOTH",
"254.333 546.5 OFFCURVE",
"274.333 564.833 OFFCURVE",
"299 578.5 CURVE SMOOTH",
"323.667 592.167 OFFCURVE",
"353.667 599 OFFCURVE",
"389 599 CURVE SMOOTH",
"408.333 599 OFFCURVE",
"426.833 595.833 OFFCURVE",
"444.5 589.5 CURVE SMOOTH",
"462.167 583.167 OFFCURVE",
"478 574.333 OFFCURVE",
"492 563 CURVE SMOOTH",
"506 551.667 OFFCURVE",
"517.667 538.5 OFFCURVE",
"527 523.5 CURVE SMOOTH",
"536.333 508.5 OFFCURVE",
"542.333 492 OFFCURVE",
"545 474 CURVE",
"545 474 LINE"
);
},
{
closed = 1;
nodes = (
"557 920 LINE",
"400 920 LINE",
"304 778 LINE",
"403 778 LINE"
);
}
);
width = 741;
}
);
unicode = 0106;
},
{
glyphname = Ccedilla;
lastChange = "2019-01-18 19:25:35 +0000";
layers = (
{
layerId = "7D8DBE61-6E0F-4C4E-A5A9-510089B62882";
paths = (
{
closed = 1;
nodes = (
"353.667 599 OFFCURVE",
"323.667 592.167 OFFCURVE",
"299 578.5 CURVE SMOOTH",
"274.333 564.833 OFFCURVE",
"254.333 546.5 OFFCURVE",
"239 523.5 CURVE SMOOTH",
"223.667 500.5 OFFCURVE",
"212.5 474.333 OFFCURVE",
"205.5 445 CURVE SMOOTH",
"198.5 415.667 OFFCURVE",
"195 385.333 OFFCURVE",
"195 354 CURVE SMOOTH",
"195 324 OFFCURVE",
"198.5 294.833 OFFCURVE",
"205.5 266.5 CURVE SMOOTH",
"212.5 238.167 OFFCURVE",
"223.667 212.667 OFFCURVE",
"239 190 CURVE SMOOTH",
"254.333 167.333 OFFCURVE",
"274.333 149.167 OFFCURVE",
"299 135.5 CURVE SMOOTH",
"323.667 121.833 OFFCURVE",
"353.667 115 OFFCURVE",
"389 115 CURVE SMOOTH",
"437 115 OFFCURVE",
"474.5 129.667 OFFCURVE",
"501.5 159 CURVE SMOOTH",
"528.5 188.333 OFFCURVE",
"545 227 OFFCURVE",
"551 275 CURVE",
"703 275 LINE",
"699 230.333 OFFCURVE",
"688.667 190.167 OFFCURVE",
"672 154.5 CURVE SMOOTH",
"655.333 118.833 OFFCURVE",
"633.5 88.5 OFFCURVE",
"606.5 63.5 CURVE SMOOTH",
"579.5 38.5 OFFCURVE",
"547.833 19.167 OFFCURVE",
"511.5 5.5 CURVE SMOOTH",
"475.167 -8.167 OFFCURVE",
"435.333 -15.333 OFFCURVE",
"392 -16 CURVE",
"366 -52 LINE",
"368 -52 LINE",
"376 -48.667 OFFCURVE",
"387.333 -47 OFFCURVE",
"402 -47 CURVE SMOOTH",
"413.333 -47 OFFCURVE",
"424.5 -48.333 OFFCURVE",
"435.5 -51 CURVE SMOOTH",
"446.5 -53.667 OFFCURVE",
"456.333 -57.833 OFFCURVE",
"465 -63.5 CURVE SMOOTH",
"473.667 -69.167 OFFCURVE",
"480.667 -76.5 OFFCURVE",
"486 -85.5 CURVE SMOOTH",
"491.333 -94.5 OFFCURVE",
"494 -105 OFFCURVE",
"494 -117 CURVE SMOOTH",
"494 -136.333 OFFCURVE",
"490.667 -152.5 OFFCURVE",
"484 -165.5 CURVE SMOOTH",
"477.333 -178.5 OFFCURVE",
"468.5 -188.833 OFFCURVE",
"457.5 -196.5 CURVE SMOOTH",
"446.5 -204.167 OFFCURVE",
"434 -209.5 OFFCURVE",
"420 -212.5 CURVE SMOOTH",
"406 -215.5 OFFCURVE",
"391.667 -217 OFFCURVE",
"377 -217 CURVE SMOOTH",
"361 -217 OFFCURVE",
"347.333 -216.5 OFFCURVE",
"336 -215.5 CURVE SMOOTH",
"324.667 -214.5 OFFCURVE",
"314.5 -213 OFFCURVE",
"305.5 -211 CURVE SMOOTH",
"296.5 -209 OFFCURVE",
"287.833 -206.667 OFFCURVE",
"279.5 -204 CURVE SMOOTH",
"271.167 -201.333 OFFCURVE",
"262.333 -198.333 OFFCURVE",
"253 -195 CURVE",
"274 -147 LINE",
"284.667 -151.667 OFFCURVE",
"297 -155.833 OFFCURVE",
"311 -159.5 CURVE SMOOTH",
"325 -163.167 OFFCURVE",
"340.667 -165 OFFCURVE",
"358 -165 CURVE SMOOTH",
"370 -165 OFFCURVE",
"379.667 -162.333 OFFCURVE",
"387 -157 CURVE SMOOTH",
"394.333 -151.667 OFFCURVE",
"398 -143 OFFCURVE",
"398 -131 CURVE SMOOTH",
"398 -118.333 OFFCURVE",
"394.167 -109.833 OFFCURVE",
"386.5 -105.5 CURVE SMOOTH",
"378.833 -101.167 OFFCURVE",
"369.333 -99 OFFCURVE",
"358 -99 CURVE SMOOTH",
"343.333 -99 OFFCURVE",
"330 -101.333 OFFCURVE",
"318 -106 CURVE",
"297 -82 LINE",
"345 -13 LINE",
"296.333 -8.333 OFFCURVE",
"253 4.5 OFFCURVE",
"215 25.5 CURVE SMOOTH",
"177 46.5 OFFCURVE",
"144.833 73.333 OFFCURVE",
"118.5 106 CURVE SMOOTH",
"92.167 138.667 OFFCURVE",
"72.167 176.167 OFFCURVE",
"58.5 218.5 CURVE SMOOTH",
"44.833 260.833 OFFCURVE",
"38 306 OFFCURVE",
"38 354 CURVE SMOOTH",
"38 407.333 OFFCURVE",
"46 456.833 OFFCURVE",
"62 502.5 CURVE SMOOTH",
"78 548.167 OFFCURVE",
"101 588 OFFCURVE",
"131 622 CURVE SMOOTH",
"161 656 OFFCURVE",
"197.833 682.667 OFFCURVE",
"241.5 702 CURVE SMOOTH",
"285.167 721.333 OFFCURVE",
"334.333 731 OFFCURVE",
"389 731 CURVE SMOOTH",
"428.333 731 OFFCURVE",
"465.5 725.333 OFFCURVE",
"500.5 714 CURVE SMOOTH",
"535.5 702.667 OFFCURVE",
"566.833 686.167 OFFCURVE",
"594.5 664.5 CURVE SMOOTH",
"622.167 642.833 OFFCURVE",
"645 616 OFFCURVE",
"663 584 CURVE SMOOTH",
"681 552 OFFCURVE",
"692.333 515.333 OFFCURVE",
"697 474 CURVE",
"545 474 LINE",
"542.333 492 OFFCURVE",
"536.333 508.5 OFFCURVE",
"527 523.5 CURVE SMOOTH",
"517.667 538.5 OFFCURVE",
"506 551.667 OFFCURVE",
"492 563 CURVE SMOOTH",
"478 574.333 OFFCURVE",
"462.167 583.167 OFFCURVE",
"444.5 589.5 CURVE SMOOTH",
"426.833 595.833 OFFCURVE",
"408.333 599 OFFCURVE",
"389 599 CURVE SMOOTH"
);
}
);
width = 741;
}
);
unicode = 00C7;
},
{
glyphname = D;
lastChange = "2019-01-18 20:01:24 +0000";
layers = (
{
layerId = "7D8DBE61-6E0F-4C4E-A5A9-510089B62882";
paths = (
{
closed = 1;
nodes = (
"388.667 132 OFFCURVE",
"410.667 135.667 OFFCURVE",
"432 143 CURVE SMOOTH",
"453.333 150.333 OFFCURVE",
"472.333 162.5 OFFCURVE",
"489 179.5 CURVE SMOOTH",
"505.667 196.5 OFFCURVE",
"519 218.667 OFFCURVE",
"529 246 CURVE SMOOTH",
"539 273.333 OFFCURVE",
"544 306.667 OFFCURVE",
"544 346 CURVE SMOOTH",
"544 382 OFFCURVE",
"540.5 414.5 OFFCURVE",
"533.5 443.5 CURVE SMOOTH",
"526.5 472.5 OFFCURVE",
"515 497.333 OFFCURVE",
"499 518 CURVE SMOOTH",
"483 538.667 OFFCURVE",
"461.833 554.5 OFFCURVE",
"435.5 565.5 CURVE SMOOTH",
"409.167 576.5 OFFCURVE",
"376.667 582 OFFCURVE",
"338 582 CURVE SMOOTH",
"226 582 LINE",
"226 132 LINE",
"366 132 LINE SMOOTH"
);
},
{
closed = 1;
nodes = (
"423 714 OFFCURVE",
"465.833 706.667 OFFCURVE",
"505.5 692 CURVE SMOOTH",
"545.167 677.333 OFFCURVE",
"579.5 655.333 OFFCURVE",
"608.5 626 CURVE SMOOTH",
"637.5 596.667 OFFCURVE",
"660.167 560 OFFCURVE",
"676.5 516 CURVE SMOOTH",
"692.833 472 OFFCURVE",
"701 420.333 OFFCURVE",
"701 361 CURVE SMOOTH",
"701 309 OFFCURVE",
"694.333 261 OFFCURVE",
"681 217 CURVE SMOOTH",
"667.667 173 OFFCURVE",
"647.5 135 OFFCURVE",
"620.5 103 CURVE SMOOTH",
"593.5 71 OFFCURVE",
"559.833 45.833 OFFCURVE",
"519.5 27.5 CURVE SMOOTH",
"479.167 9.167 OFFCURVE",
"431.667 0 OFFCURVE",
"377 0 CURVE SMOOTH",
"69 0 LINE",
"69 714 LINE",
"377 714 LINE SMOOTH"
);
},
{
closed = 1;
nodes = (
"226 0 LINE",
"349 0 LINE",
"349 132 LINE",
"226 132 LINE"
);
}
);
width = 741;
}
);
unicode = 0044;
},
{
glyphname = Eth;
lastChange = "2019-01-18 19:25:35 +0000";
layers = (
{
layerId = "7D8DBE61-6E0F-4C4E-A5A9-510089B62882";
paths = (
{
closed = 1;
nodes = (
"386 310 LINE",
"226 310 LINE",
"226 132 LINE",
"366 132 LINE SMOOTH",
"388.667 132 OFFCURVE",
"410.667 135.667 OFFCURVE",
"432 143 CURVE SMOOTH",
"453.333 150.333 OFFCURVE",
"472.333 162.5 OFFCURVE",
"489 179.5 CURVE SMOOTH",
"505.667 196.5 OFFCURVE",
"519 218.667 OFFCURVE",
"529 246 CURVE SMOOTH",
"539 273.333 OFFCURVE",
"544 306.667 OFFCURVE",
"544 346 CURVE SMOOTH",
"544 382 OFFCURVE",
"540.5 414.5 OFFCURVE",
"533.5 443.5 CURVE SMOOTH",
"526.5 472.5 OFFCURVE",
"515 497.333 OFFCURVE",
"499 518 CURVE SMOOTH",
"483 538.667 OFFCURVE",
"461.833 554.5 OFFCURVE",
"435.5 565.5 CURVE SMOOTH",
"409.167 576.5 OFFCURVE",
"376.667 582 OFFCURVE",
"338 582 CURVE SMOOTH",
"226 582 LINE",
"226 427 LINE",
"386 427 LINE"
);
},
{
closed = 1;
nodes = (
"3 427 LINE",
"69 427 LINE",
"69 714 LINE",
"377 714 LINE SMOOTH",
"423 714 OFFCURVE",
"465.833 706.667 OFFCURVE",
"505.5 692 CURVE SMOOTH",
"545.167 677.333 OFFCURVE",
"579.5 655.333 OFFCURVE",
"608.5 626 CURVE SMOOTH",
"637.5 596.667 OFFCURVE",
"660.167 560 OFFCURVE",
"676.5 516 CURVE SMOOTH",
"692.833 472 OFFCURVE",
"701 420.333 OFFCURVE",
"701 361 CURVE SMOOTH",
"701 309 OFFCURVE",
"694.333 261 OFFCURVE",
"681 217 CURVE SMOOTH",
"667.667 173 OFFCURVE",
"647.5 135 OFFCURVE",
"620.5 103 CURVE SMOOTH",
"593.5 71 OFFCURVE",
"559.833 45.833 OFFCURVE",
"519.5 27.5 CURVE SMOOTH",
"479.167 9.167 OFFCURVE",
"431.667 0 OFFCURVE",
"377 0 CURVE SMOOTH",
"69 0 LINE",
"69 311 LINE",
"3 311 LINE"
);
}
);
width = 741;
}
);
unicode = 00D0;
},
{
glyphname = E;
lastChange = "2019-01-19 18:25:22 +0000";
layers = (
{
guideLines = (
{
angle = 180;
position = "{227, 538}";
},
{
position = "{230, 432}";
}
);
hints = (
{
place = "{226, 0}";
},
{
place = "{572, 0}";
}
);
layerId = "7D8DBE61-6E0F-4C4E-A5A9-510089B62882";
paths = (
{
closed = 1;
nodes = (
"603 582 LINE",
"226 582 LINE",
"226 429 LINE",
"572 429 LINE",
"572 307 LINE",
"226 307 LINE",
"226 132 LINE",
"611 132 LINE",
"611 0 LINE",
"69 0 LINE",
"69 714 LINE",
"603 714 LINE"
);
}
);
width = 648;
}
);
unicode = 0045;
},
{
glyphname = Eacute;
lastChange = "2019-01-18 19:25:35 +0000";
layers = (
{
layerId = "7D8DBE61-6E0F-4C4E-A5A9-510089B62882";
paths = (
{
closed = 1;
nodes = (
"345 920 LINE",
"502 920 LINE",
"348 778 LINE",
"249 778 LINE"
);
},
{
closed = 1;
nodes = (
"603 582 LINE",
"226 582 LINE",
"226 429 LINE",
"572 429 LINE",
"572 307 LINE",
"226 307 LINE",
"226 132 LINE",
"611 132 LINE",
"611 0 LINE",
"69 0 LINE",
"69 714 LINE",
"603 714 LINE"
);
}
);
width = 648;
}
);
unicode = 00C9;
},
{
glyphname = Ecircumflex;
lastChange = "2019-01-18 19:25:35 +0000";
layers = (
{
layerId = "7D8DBE61-6E0F-4C4E-A5A9-510089B62882";
paths = (
{
closed = 1;
nodes = (
"500 778 LINE",
"383 778 LINE",
"321 859 LINE",
"257 778 LINE",
"149 778 LINE",
"260 920 LINE",
"390 920 LINE"
);
},
{
closed = 1;
nodes = (
"603 582 LINE",
"226 582 LINE",
"226 429 LINE",
"572 429 LINE",
"572 307 LINE",
"226 307 LINE",
"226 132 LINE",
"611 132 LINE",
"611 0 LINE",
"69 0 LINE",
"69 714 LINE",
"603 714 LINE"
);
}
);
width = 648;
}
);
unicode = 00CA;
},
{
glyphname = Edieresis;
lastChange = "2019-01-18 19:25:35 +0000";
layers = (
{
layerId = "7D8DBE61-6E0F-4C4E-A5A9-510089B62882";
paths = (
{
closed = 1;
nodes = (
"289 794 LINE",
"154 794 LINE",
"154 911 LINE",
"289 911 LINE"
);
},
{
closed = 1;
nodes = (
"495 794 LINE",
"360 794 LINE",
"360 911 LINE",
"495 911 LINE"
);
},
{
closed = 1;
nodes = (
"603 582 LINE",
"226 582 LINE",
"226 429 LINE",
"572 429 LINE",
"572 307 LINE",
"226 307 LINE",
"226 132 LINE",
"611 132 LINE",
"611 0 LINE",
"69 0 LINE",
"69 714 LINE",
"603 714 LINE"
);
}
);
width = 648;
}
);
unicode = 00CB;
},
{
glyphname = Egrave;
lastChange = "2019-01-18 19:25:35 +0000";
layers = (
{
layerId = "7D8DBE61-6E0F-4C4E-A5A9-510089B62882";
paths = (
{
closed = 1;
nodes = (
"400 778 LINE",
"301 778 LINE",
"147 920 LINE",
"304 920 LINE"
);
},
{
closed = 1;
nodes = (
"603 582 LINE",
"226 582 LINE",
"226 429 LINE",
"572 429 LINE",
"572 307 LINE",
"226 307 LINE",
"226 132 LINE",
"611 132 LINE",
"611 0 LINE",
"69 0 LINE",
"69 714 LINE",
"603 714 LINE"
);
}
);
width = 648;
}
);
unicode = 00C8;
},
{
glyphname = Eogonek;
lastChange = "2019-01-18 19:25:35 +0000";
layers = (
{
layerId = "7D8DBE61-6E0F-4C4E-A5A9-510089B62882";
paths = (
{
closed = 1;
nodes = (
"563 -127 LINE",
"553.667 -139.667 OFFCURVE",
"544.333 -147.833 OFFCURVE",
"535 -151.5 CURVE SMOOTH",
"525.667 -155.167 OFFCURVE",
"515.667 -157 OFFCURVE",
"505 -157 CURVE SMOOTH",
"495 -157 OFFCURVE",
"486 -153.833 OFFCURVE",
"478 -147.5 CURVE SMOOTH",
"470 -141.167 OFFCURVE",
"466 -133 OFFCURVE",
"466 -123 CURVE SMOOTH",
"466 -105.667 OFFCURVE",
"471.667 -87.333 OFFCURVE",
"483 -68 CURVE SMOOTH",
"494.333 -50 OFFCURVE",
"515 -27.333 OFFCURVE",
"545 0 CURVE",
"611 0 LINE",
"611 132 LINE",
"226 132 LINE",
"226 307 LINE",
"572 307 LINE",
"572 429 LINE",
"226 429 LINE",
"226 582 LINE",
"603 582 LINE",
"603 714 LINE",
"69 714 LINE",
"69 0 LINE",
"478 0 LINE",
"452.667 -14.667 OFFCURVE",
"433 -28.667 OFFCURVE",
"419 -42 CURVE SMOOTH",
"403.667 -56 OFFCURVE",
"392.333 -68.5 OFFCURVE",
"385 -79.5 CURVE SMOOTH",
"377.667 -90.5 OFFCURVE",
"373.333 -100 OFFCURVE",
"372 -108 CURVE SMOOTH",
"370.667 -116 OFFCURVE",
"370 -122.333 OFFCURVE",
"370 -127 CURVE SMOOTH",
"370 -148.333 OFFCURVE",
"374.333 -165 OFFCURVE",
"383 -177 CURVE SMOOTH",
"391.667 -189 OFFCURVE",
"402 -198 OFFCURVE",
"414 -204 CURVE SMOOTH",
"426 -210 OFFCURVE",
"438 -213.667 OFFCURVE",
"450 -215 CURVE SMOOTH",
"462 -216.333 OFFCURVE",
"471 -217 OFFCURVE",
"477 -217 CURVE SMOOTH",
"499.667 -217 OFFCURVE",
"522.667 -212 OFFCURVE",
"546 -202 CURVE SMOOTH",
"569.333 -192 OFFCURVE",
"591 -174.333 OFFCURVE",
"611 -149 CURVE"
);
}
);
width = 648;
}
);
unicode = 0118;
},
{
glyphname = F;
lastChange = "2019-01-18 19:25:35 +0000";
layers = (
{
layerId = "7D8DBE61-6E0F-4C4E-A5A9-510089B62882";
paths = (
{
closed = 1;
nodes = (
"571 582 LINE",
"226 582 LINE",
"226 417 LINE",
"525 417 LINE",
"525 295 LINE",
"226 295 LINE",
"226 0 LINE",
"69 0 LINE",
"69 714 LINE",
"571 714 LINE"
);
}
);
width = 593;
}
);
unicode = 0046;
},
{
glyphname = G;
lastChange = "2019-01-19 18:42:54 +0000";
layers = (
{
guideLines = (
{
position = "{38, 360}";
},
{
position = "{194, 360}";
},
{
position = "{82, 313}";
}
);
hints = (
{
place = "{41, 30}";
}
);
layerId = "7D8DBE61-6E0F-4C4E-A5A9-510089B62882";
paths = (
{
closed = 1;
nodes = (
"40 313 LINE",
"43 277 OFFCURVE",
"51 241 OFFCURVE",
"62 209 CURVE SMOOTH",
"78 164 OFFCURVE",
"101 124 OFFCURVE",
"131 91 CURVE SMOOTH",
"161 58 OFFCURVE",
"198 32 OFFCURVE",
"242 13 CURVE SMOOTH",
"285 -7 OFFCURVE",
"334 -16 OFFCURVE",
"389 -16 CURVE SMOOTH",
"424 -16 OFFCURVE",
"458 -9 OFFCURVE",
"492 6 CURVE SMOOTH",
"526 20 OFFCURVE",
"557 45 OFFCURVE",
"585 81 CURVE",
"601 0 LINE",
"701 0 LINE",
"701 386 LINE",
"401 386 LINE",
"401 269 LINE",
"559 269 LINE",
"554 219 OFFCURVE",
"538 181 OFFCURVE",
"510 155 CURVE SMOOTH",
"481 128 OFFCURVE",
"441 115 OFFCURVE",
"389 115 CURVE SMOOTH",
"354 115 OFFCURVE",
"324 122 OFFCURVE",
"299 136 CURVE SMOOTH",
"274 149 OFFCURVE",
"254 167 OFFCURVE",
"239 190 CURVE SMOOTH",
"224 213 OFFCURVE",
"213 238 OFFCURVE",
"206 267 CURVE SMOOTH",
"202 282 OFFCURVE",
"199 297 OFFCURVE",
"197 313 CURVE"
);
},
{
closed = 0;
nodes = (
"197 313 LINE"
);
},
{
closed = 1;
nodes = (
"198 403 LINE",
"200 417 OFFCURVE",
"202 431 OFFCURVE",
"206 445 CURVE SMOOTH",
"213 474 OFFCURVE",
"224 501 OFFCURVE",
"239 524 CURVE SMOOTH",
"254 547 OFFCURVE",
"274 565 OFFCURVE",
"299 579 CURVE SMOOTH",
"324 592 OFFCURVE",
"354 599 OFFCURVE",
"389 599 CURVE SMOOTH",
"427 599 OFFCURVE",
"459 589 OFFCURVE",
"486 569 CURVE SMOOTH",
"513 549 OFFCURVE",
"531 519 OFFCURVE",
"540 479 CURVE",
"690 479 LINE",
"686 520 OFFCURVE",
"675 556 OFFCURVE",
"657 587 CURVE SMOOTH",
"639 618 OFFCURVE",
"616 645 OFFCURVE",
"589 666 CURVE SMOOTH",
"561 687 OFFCURVE",
"530 704 OFFCURVE",
"496 715 CURVE SMOOTH",
"461 726 OFFCURVE",
"426 731 OFFCURVE",
"389 731 CURVE SMOOTH",
"334 731 OFFCURVE",
"285 721 OFFCURVE",
"242 702 CURVE SMOOTH",
"198 683 OFFCURVE",
"161 656 OFFCURVE",
"131 622 CURVE SMOOTH",
"101 588 OFFCURVE",
"78 548 OFFCURVE",
"62 503 CURVE SMOOTH",
"52 473 OFFCURVE",
"45 435 OFFCURVE",
"41 403 CURVE"
);
}
);
width = 759;
}
);
unicode = 0047;
},
{
glyphname = H;
lastChange = "2019-01-18 19:25:35 +0000";
layers = (
{
layerId = "7D8DBE61-6E0F-4C4E-A5A9-510089B62882";
paths = (
{
closed = 1;
nodes = (
"226 440 LINE",
"515 440 LINE",
"515 714 LINE",
"672 714 LINE",
"672 0 LINE",
"515 0 LINE",
"515 308 LINE",
"226 308 LINE",
"226 0 LINE",
"69 0 LINE",
"69 714 LINE",
"226 714 LINE"
);
}
);
width = 741;
}
);
unicode = 0048;
},
{
glyphname = I;
lastChange = "2019-01-18 19:25:35 +0000";
layers = (
{
layerId = "7D8DBE61-6E0F-4C4E-A5A9-510089B62882";
paths = (
{
closed = 1;
nodes = (
"226 0 LINE",
"69 0 LINE",
"69 714 LINE",
"226 714 LINE"
);
}
);
width = 295;
}
);
unicode = 0049;
},
{
glyphname = Iacute;
lastChange = "2019-01-18 19:25:35 +0000";
layers = (
{
layerId = "7D8DBE61-6E0F-4C4E-A5A9-510089B62882";
paths = (
{
closed = 1;
nodes = (
"168 920 LINE",
"325 920 LINE",
"171 778 LINE",
"72 778 LINE"
);
},
{
closed = 1;
nodes = (
"226 0 LINE",
"69 0 LINE",
"69 714 LINE",
"226 714 LINE"
);
}
);
width = 295;
}
);
unicode = 00CD;
},
{
glyphname = Icircumflex;
lastChange = "2019-01-18 19:25:35 +0000";
layers = (
{
layerId = "7D8DBE61-6E0F-4C4E-A5A9-510089B62882";
paths = (
{
closed = 1;
nodes = (
"323 778 LINE",
"206 778 LINE",
"144 859 LINE",
"80 778 LINE",
"-27 778 LINE",
"83 920 LINE",
"213 920 LINE"
);
},
{
closed = 1;
nodes = (
"226 0 LINE",
"69 0 LINE",
"69 714 LINE",
"226 714 LINE"
);
}
);
width = 295;
}
);
unicode = 00CE;
},
{
glyphname = Idieresis;
lastChange = "2019-01-18 19:25:35 +0000";
layers = (
{
layerId = "7D8DBE61-6E0F-4C4E-A5A9-510089B62882";
paths = (
{
closed = 1;
nodes = (
"112 794 LINE",
"-22 794 LINE",
"-22 911 LINE",
"112 911 LINE"
);
},
{
closed = 1;
nodes = (
"318 794 LINE",
"183 794 LINE",
"183 911 LINE",
"318 911 LINE"
);
},
{
closed = 1;
nodes = (
"226 0 LINE",
"69 0 LINE",
"69 714 LINE",
"226 714 LINE"
);
}
);
width = 295;
}
);
unicode = 00CF;
},
{
glyphname = Igrave;
lastChange = "2019-01-18 19:25:35 +0000";
layers = (
{
layerId = "7D8DBE61-6E0F-4C4E-A5A9-510089B62882";
paths = (
{
closed = 1;
nodes = (
"223 778 LINE",
"124 778 LINE",
"-29 920 LINE",
"127 920 LINE"
);
},
{
closed = 1;
nodes = (
"226 0 LINE",
"69 0 LINE",
"69 714 LINE",
"226 714 LINE"
);
}
);
width = 295;
}
);
unicode = 00CC;
},
{
glyphname = J;
lastChange = "2019-01-18 19:25:35 +0000";
layers = (
{
layerId = "7D8DBE61-6E0F-4C4E-A5A9-510089B62882";
paths = (
{
closed = 1;
nodes = (
"219 -16 OFFCURVE",
"190 -11.833 OFFCURVE",
"162 -3.5 CURVE SMOOTH",
"134 4.833 OFFCURVE",
"109 17.833 OFFCURVE",
"87 35.5 CURVE SMOOTH",
"65 53.167 OFFCURVE",
"47.333 75.833 OFFCURVE",
"34 103.5 CURVE SMOOTH",
"20.667 131.167 OFFCURVE",
"14 164.667 OFFCURVE",
"14 204 CURVE SMOOTH",
"14 266 LINE",
"156 266 LINE",
"156 234 LINE SMOOTH",
"156 216.667 OFFCURVE",
"157.333 200.667 OFFCURVE",
"160 186 CURVE SMOOTH",
"162.667 171.333 OFFCURVE",
"167.333 158.833 OFFCURVE",
"174 148.5 CURVE SMOOTH",
"180.667 138.167 OFFCURVE",
"189.833 130 OFFCURVE",
"201.5 124 CURVE SMOOTH",
"213.167 118 OFFCURVE",
"228.333 115 OFFCURVE",
"247 115 CURVE SMOOTH",
"267.667 115 OFFCURVE",
"283.667 118.667 OFFCURVE",
"295 126 CURVE SMOOTH",
"306.333 133.333 OFFCURVE",
"314.5 142.833 OFFCURVE",
"319.5 154.5 CURVE SMOOTH",
"324.5 166.167 OFFCURVE",
"327.5 178.833 OFFCURVE",
"328.5 192.5 CURVE SMOOTH",
"329.5 206.167 OFFCURVE",
"330 219.333 OFFCURVE",
"330 232 CURVE SMOOTH",
"330 714 LINE",
"487 714 LINE",
"487 225 LINE SMOOTH",
"487 201.667 OFFCURVE",
"484.667 176 OFFCURVE",
"480 148 CURVE SMOOTH",
"475.333 120 OFFCURVE",
"464.667 93.833 OFFCURVE",
"448 69.5 CURVE SMOOTH",
"431.333 45.167 OFFCURVE",
"407.333 24.833 OFFCURVE",
"376 8.5 CURVE SMOOTH",
"344.667 -7.833 OFFCURVE",
"302.333 -16 OFFCURVE",
"249 -16 CURVE SMOOTH"
);
}
);
width = 556;
}
);
unicode = 004A;
},
{
glyphname = K;
lastChange = "2019-01-18 20:06:14 +0000";
layers = (
{
layerId = "7D8DBE61-6E0F-4C4E-A5A9-510089B62882";
paths = (
{
closed = 1;
nodes = (
"226 418 LINE",
"505 714 LINE",
"701 714 LINE",
"422 432 LINE",
"728 0 LINE",
"531 0 LINE",
"316 321 LINE",
"226 230 LINE",
"226 0 LINE",
"69 0 LINE",
"69 714 LINE",
"226 714 LINE"
);
},
{
closed = 1;
nodes = (
"316 321 LINE",
"377 230 LINE",
"491 335 LINE",
"422 432 LINE"
);
}
);
width = 722;
}
);
unicode = 004B;
},
{
glyphname = L;
lastChange = "2019-01-18 19:25:35 +0000";
layers = (
{
layerId = "7D8DBE61-6E0F-4C4E-A5A9-510089B62882";
paths = (
{
closed = 1;
nodes = (
"226 132 LINE",
"574 132 LINE",
"574 0 LINE",
"69 0 LINE",
"69 714 LINE",
"226 714 LINE"
);
}
);
width = 593;
}
);
unicode = 004C;
},
{
glyphname = Lslash;
lastChange = "2019-01-18 19:25:35 +0000";
layers = (
{
layerId = "7D8DBE61-6E0F-4C4E-A5A9-510089B62882";
paths = (
{
closed = 1;
nodes = (
"-10 270 LINE",
"69 326 LINE",
"69 714 LINE",
"226 714 LINE",
"226 436 LINE",
"437 584 LINE",
"437 472 LINE",
"226 324 LINE",
"226 132 LINE",
"574 132 LINE",
"574 0 LINE",
"69 0 LINE",
"69 214 LINE",
"-10 158 LINE"
);
}
);
width = 593;
}
);
unicode = 0141;
},
{
glyphname = M;
lastChange = "2019-01-19 18:47:57 +0000";
layers = (
{
guideLines = (
{
angle = 270;
position = "{691, 606}";
},
{
angle = 270;
position = "{607, 506}";
}
);
layerId = "7D8DBE61-6E0F-4C4E-A5A9-510089B62882";
paths = (
{
closed = 1;
nodes = (
"514 0 LINE",
"393 0 LINE",
"218 501 LINE",
"216 501 LINE",
"216 0 LINE",
"69 0 LINE",
"69 714 LINE",
"290 714 LINE",
"457 223 LINE",
"459 223 LINE",
"607 622 LINE",
"607 257 LINE"
);
},
{
closed = 1;
nodes = (
"691 0 LINE",
"838 0 LINE",
"838 714 LINE",
"691 714 LINE",
"691 506 LINE"
);
},
{
closed = 0;
nodes = (
"691 506 LINE",
"689 506 LINE"
);
}
);
width = 907;
}
);
unicode = 004D;
},
{
glyphname = N;
lastChange = "2019-01-18 19:25:35 +0000";
layers = (
{
layerId = "7D8DBE61-6E0F-4C4E-A5A9-510089B62882";
paths = (
{
closed = 1;
nodes = (
"523 235 LINE",
"525 235 LINE",
"525 714 LINE",
"672 714 LINE",
"672 0 LINE",
"515 0 LINE",
"218 478 LINE",
"216 478 LINE",
"216 0 LINE",
"69 0 LINE",
"69 714 LINE",
"225 714 LINE"
);
}
);
width = 741;
}
);
unicode = 004E;
},
{
glyphname = Nacute;
lastChange = "2019-01-18 19:25:35 +0000";
layers = (
{
layerId = "7D8DBE61-6E0F-4C4E-A5A9-510089B62882";
paths = (
{
closed = 1;
nodes = (
"69 0 LINE",
"216 0 LINE",
"216 478 LINE",
"218 478 LINE",
"515 0 LINE",
"672 0 LINE",
"672 714 LINE",
"525 714 LINE",
"525 235 LINE",
"523 235 LINE",
"225 714 LINE",
"69 714 LINE"
);
},
{
closed = 1;
nodes = (
"557 920 LINE",
"400 920 LINE",
"304 778 LINE",
"403 778 LINE"
);
}
);
width = 741;
}
);
unicode = 0143;
},
{
glyphname = Ntilde;
lastChange = "2019-01-18 19:25:35 +0000";
layers = (
{
layerId = "7D8DBE61-6E0F-4C4E-A5A9-510089B62882";
paths = (
{
closed = 1;
nodes = (
"426.667 797 OFFCURVE",
"412.333 798.833 OFFCURVE",
"399 802.5 CURVE SMOOTH",
"385.667 806.167 OFFCURVE",
"372.667 810 OFFCURVE",
"360 814 CURVE",
"347.333 818.667 OFFCURVE",
"335.333 822.667 OFFCURVE",
"324 826 CURVE SMOOTH",
"312.667 829.333 OFFCURVE",
"301.333 831 OFFCURVE",
"290 831 CURVE SMOOTH",
"276.667 831 OFFCURVE",
"267.167 827.167 OFFCURVE",
"261.5 819.5 CURVE SMOOTH",
"255.833 811.833 OFFCURVE",
"251.333 801.667 OFFCURVE",
"248 789 CURVE",
"187 789 LINE",
"190.333 803.667 OFFCURVE",
"194.667 818.167 OFFCURVE",
"200 832.5 CURVE SMOOTH",
"205.333 846.833 OFFCURVE",
"212.667 859.833 OFFCURVE",
"222 871.5 CURVE SMOOTH",
"231.333 883.167 OFFCURVE",
"243.333 892.667 OFFCURVE",
"258 900 CURVE SMOOTH",
"272.667 907.333 OFFCURVE",
"291 911 OFFCURVE",
"313 911 CURVE SMOOTH",
"324.333 911 OFFCURVE",
"335.167 909.167 OFFCURVE",
"345.5 905.5 CURVE SMOOTH",
"355.833 901.833 OFFCURVE",
"366.333 898 OFFCURVE",
"377 894 CURVE",
"387.667 889.333 OFFCURVE",
"398.5 885.167 OFFCURVE",
"409.5 881.5 CURVE SMOOTH",
"420.5 877.833 OFFCURVE",
"431.667 876 OFFCURVE",
"443 876 CURVE SMOOTH",
"458.333 876 OFFCURVE",
"469.333 879.5 OFFCURVE",
"476 886.5 CURVE SMOOTH",
"482.667 893.5 OFFCURVE",
"485.667 901.667 OFFCURVE",
"485 911 CURVE",
"554 911 LINE",
"550.667 899.667 OFFCURVE",
"546.833 887.333 OFFCURVE",
"542.5 874 CURVE SMOOTH",
"538.167 860.667 OFFCURVE",
"531.833 848.333 OFFCURVE",
"523.5 837 CURVE SMOOTH",
"515.167 825.667 OFFCURVE",
"504.5 816.167 OFFCURVE",
"491.5 808.5 CURVE SMOOTH",
"478.5 800.833 OFFCURVE",
"462 797 OFFCURVE",
"442 797 CURVE SMOOTH"
);
},
{
closed = 1;
nodes = (
"523 235 LINE",
"525 235 LINE",
"525 714 LINE",
"672 714 LINE",
"672 0 LINE",
"515 0 LINE",
"218 478 LINE",
"216 478 LINE",
"216 0 LINE",
"69 0 LINE",
"69 714 LINE",
"225 714 LINE"
);
}
);
width = 741;
}
);
unicode = 00D1;
},
{
glyphname = O;
lastChange = "2019-01-19 18:42:22 +0000";
layers = (
{
guideLines = (
{
position = "{369, 353}";
},
{
position = "{413, 293}";
},
{
position = "{388, 416}";
},
{
angle = 270;
position = "{437, 483}";
},
{
angle = 270;
position = "{345, 519}";
}
);
layerId = "7D8DBE61-6E0F-4C4E-A5A9-510089B62882";
paths = (
{
closed = 1;
nodes = (
"329 594 OFFCURVE",
"313 586 OFFCURVE",
"299 579 CURVE SMOOTH",
"274 565 OFFCURVE",
"254 547 OFFCURVE",
"239 524 CURVE SMOOTH",
"224 501 OFFCURVE",
"213 474 OFFCURVE",
"206 445 CURVE SMOOTH",
"199 416 OFFCURVE",
"195 385 OFFCURVE",
"195 354 CURVE SMOOTH",
"195 324 OFFCURVE",
"199 295 OFFCURVE",
"206 267 CURVE SMOOTH",
"213 238 OFFCURVE",
"224 213 OFFCURVE",
"239 190 CURVE SMOOTH",
"254 167 OFFCURVE",
"274 149 OFFCURVE",
"299 136 CURVE SMOOTH",
"312 128 OFFCURVE",
"328 123 OFFCURVE",
"345 119 CURVE",
"345 -14 LINE",
"308 -10 OFFCURVE",
"273 -1 OFFCURVE",
"242 13 CURVE SMOOTH",
"198 32 OFFCURVE",
"161 58 OFFCURVE",
"131 91 CURVE SMOOTH",
"101 124 OFFCURVE",
"78 164 OFFCURVE",
"62 209 CURVE SMOOTH",
"46 254 OFFCURVE",
"38 302 OFFCURVE",
"38 354 CURVE SMOOTH",
"38 407 OFFCURVE",
"46 457 OFFCURVE",
"62 503 CURVE SMOOTH",
"78 548 OFFCURVE",
"101 588 OFFCURVE",
"131 622 CURVE SMOOTH",
"161 656 OFFCURVE",
"198 683 OFFCURVE",
"242 702 CURVE SMOOTH",
"273 716 OFFCURVE",
"309 724 OFFCURVE",
"346 728 CURVE",
"346 597 LINE"
);
},
{
closed = 1;
nodes = (
"437 -18 LINE",
"473 -14 OFFCURVE",
"506 -2 OFFCURVE",
"536 12 CURVE SMOOTH",
"579 32 OFFCURVE",
"616 57 OFFCURVE",
"646 90 CURVE SMOOTH",
"676 123 OFFCURVE",
"699 163 OFFCURVE",
"715 208 CURVE SMOOTH",
"731 253 OFFCURVE",
"739 301 OFFCURVE",
"739 353 CURVE SMOOTH",
"739 406 OFFCURVE",
"731 456 OFFCURVE",
"715 502 CURVE SMOOTH",
"699 547 OFFCURVE",
"676 587 OFFCURVE",
"646 621 CURVE SMOOTH",
"616 655 OFFCURVE",
"579 682 OFFCURVE",
"536 701 CURVE SMOOTH",
"505 715 OFFCURVE",
"473 724 OFFCURVE",
"436 728 CURVE",
"436 593 LINE",
"452 590 OFFCURVE",
"465 585 OFFCURVE",
"478 578 CURVE SMOOTH",
"503 564 OFFCURVE",
"523 546 OFFCURVE",
"538 523 CURVE SMOOTH",
"553 500 OFFCURVE",
"565 473 OFFCURVE",
"572 444 CURVE SMOOTH",
"579 415 OFFCURVE",
"582 384 OFFCURVE",
"582 353 CURVE SMOOTH",
"582 323 OFFCURVE",
"579 294 OFFCURVE",
"572 266 CURVE SMOOTH",
"565 237 OFFCURVE",
"553 212 OFFCURVE",
"538 189 CURVE SMOOTH",
"523 166 OFFCURVE",
"503 148 OFFCURVE",
"478 135 CURVE SMOOTH",
"464 128 OFFCURVE",
"453 119 OFFCURVE",
"437 116 CURVE"
);
}
);
width = 778;
}
);
unicode = 004F;
},
{
glyphname = Oacute;
lastChange = "2019-01-18 19:25:35 +0000";
layers = (
{
layerId = "7D8DBE61-6E0F-4C4E-A5A9-510089B62882";
paths = (
{
closed = 1;
nodes = (
"410 920 LINE",
"567 920 LINE",
"413 778 LINE",
"314 778 LINE"
);
},
{
closed = 1;
nodes = (
"424.333 115 OFFCURVE",
"454.333 121.833 OFFCURVE",
"479 135.5 CURVE SMOOTH",
"503.667 149.167 OFFCURVE",
"523.667 167.333 OFFCURVE",
"539 190 CURVE SMOOTH",
"554.333 212.667 OFFCURVE",
"565.5 238.167 OFFCURVE",
"572.5 266.5 CURVE SMOOTH",
"579.5 294.833 OFFCURVE",
"583 324 OFFCURVE",
"583 354 CURVE SMOOTH",
"583 385.333 OFFCURVE",
"579.5 415.667 OFFCURVE",
"572.5 445 CURVE SMOOTH",
"565.5 474.333 OFFCURVE",
"554.333 500.5 OFFCURVE",
"539 523.5 CURVE SMOOTH",
"523.667 546.5 OFFCURVE",
"503.667 564.833 OFFCURVE",
"479 578.5 CURVE SMOOTH",
"454.333 592.167 OFFCURVE",
"424.333 599 OFFCURVE",
"389 599 CURVE SMOOTH",
"353.667 599 OFFCURVE",
"323.667 592.167 OFFCURVE",
"299 578.5 CURVE SMOOTH",
"274.333 564.833 OFFCURVE",
"254.333 546.5 OFFCURVE",
"239 523.5 CURVE SMOOTH",
"223.667 500.5 OFFCURVE",
"212.5 474.333 OFFCURVE",
"205.5 445 CURVE SMOOTH",
"198.5 415.667 OFFCURVE",
"195 385.333 OFFCURVE",
"195 354 CURVE SMOOTH",
"195 324 OFFCURVE",
"198.5 294.833 OFFCURVE",
"205.5 266.5 CURVE SMOOTH",
"212.5 238.167 OFFCURVE",
"223.667 212.667 OFFCURVE",
"239 190 CURVE SMOOTH",
"254.333 167.333 OFFCURVE",
"274.333 149.167 OFFCURVE",
"299 135.5 CURVE SMOOTH",
"323.667 121.833 OFFCURVE",
"353.667 115 OFFCURVE",
"389 115 CURVE SMOOTH"
);
},
{
closed = 1;
nodes = (
"444.333 731 OFFCURVE",
"493.667 721.333 OFFCURVE",
"537 702 CURVE SMOOTH",
"580.333 682.667 OFFCURVE",
"617 656 OFFCURVE",
"647 622 CURVE SMOOTH",
"677 588 OFFCURVE",
"700 548.167 OFFCURVE",
"716 502.5 CURVE SMOOTH",
"732 456.833 OFFCURVE",
"740 407.333 OFFCURVE",
"740 354 CURVE SMOOTH",
"740 302 OFFCURVE",
"732 253.5 OFFCURVE",
"716 208.5 CURVE SMOOTH",
"700 163.5 OFFCURVE",
"677 124.333 OFFCURVE",
"647 91 CURVE SMOOTH",
"617 57.667 OFFCURVE",
"580.333 31.5 OFFCURVE",
"537 12.5 CURVE SMOOTH",
"493.667 -6.5 OFFCURVE",
"444.333 -16 OFFCURVE",
"389 -16 CURVE SMOOTH",
"334.333 -16 OFFCURVE",
"285.167 -6.5 OFFCURVE",
"241.5 12.5 CURVE SMOOTH",
"197.833 31.5 OFFCURVE",
"161 57.667 OFFCURVE",
"131 91 CURVE SMOOTH",
"101 124.333 OFFCURVE",
"78 163.5 OFFCURVE",
"62 208.5 CURVE SMOOTH",
"46 253.5 OFFCURVE",
"38 302 OFFCURVE",
"38 354 CURVE SMOOTH",
"38 407.333 OFFCURVE",
"46 456.833 OFFCURVE",
"62 502.5 CURVE SMOOTH",
"78 548.167 OFFCURVE",
"101 588 OFFCURVE",
"131 622 CURVE SMOOTH",
"161 656 OFFCURVE",
"197.833 682.667 OFFCURVE",
"241.5 702 CURVE SMOOTH",
"285.167 721.333 OFFCURVE",
"334.333 731 OFFCURVE",
"389 731 CURVE SMOOTH"
);
}
);
width = 778;
}
);
unicode = 00D3;
},
{
glyphname = Ocircumflex;
lastChange = "2019-01-18 19:25:35 +0000";
layers = (
{
layerId = "7D8DBE61-6E0F-4C4E-A5A9-510089B62882";
paths = (
{
closed = 1;
nodes = (
"565 778 LINE",
"448 778 LINE",
"386 859 LINE",
"322 778 LINE",
"214 778 LINE",
"325 920 LINE",
"455 920 LINE"
);
},
{
closed = 1;
nodes = (
"424.333 115 OFFCURVE",
"454.333 121.833 OFFCURVE",
"479 135.5 CURVE SMOOTH",
"503.667 149.167 OFFCURVE",
"523.667 167.333 OFFCURVE",
"539 190 CURVE SMOOTH",
"554.333 212.667 OFFCURVE",
"565.5 238.167 OFFCURVE",
"572.5 266.5 CURVE SMOOTH",
"579.5 294.833 OFFCURVE",
"583 324 OFFCURVE",
"583 354 CURVE SMOOTH",
"583 385.333 OFFCURVE",
"579.5 415.667 OFFCURVE",
"572.5 445 CURVE SMOOTH",
"565.5 474.333 OFFCURVE",
"554.333 500.5 OFFCURVE",
"539 523.5 CURVE SMOOTH",
"523.667 546.5 OFFCURVE",
"503.667 564.833 OFFCURVE",
"479 578.5 CURVE SMOOTH",
"454.333 592.167 OFFCURVE",
"424.333 599 OFFCURVE",
"389 599 CURVE SMOOTH",
"353.667 599 OFFCURVE",
"323.667 592.167 OFFCURVE",
"299 578.5 CURVE SMOOTH",
"274.333 564.833 OFFCURVE",
"254.333 546.5 OFFCURVE",
"239 523.5 CURVE SMOOTH",
"223.667 500.5 OFFCURVE",
"212.5 474.333 OFFCURVE",
"205.5 445 CURVE SMOOTH",
"198.5 415.667 OFFCURVE",
"195 385.333 OFFCURVE",
"195 354 CURVE SMOOTH",
"195 324 OFFCURVE",
"198.5 294.833 OFFCURVE",
"205.5 266.5 CURVE SMOOTH",
"212.5 238.167 OFFCURVE",
"223.667 212.667 OFFCURVE",
"239 190 CURVE SMOOTH",
"254.333 167.333 OFFCURVE",
"274.333 149.167 OFFCURVE",
"299 135.5 CURVE SMOOTH",
"323.667 121.833 OFFCURVE",
"353.667 115 OFFCURVE",
"389 115 CURVE SMOOTH"
);
},
{
closed = 1;
nodes = (
"444.333 731 OFFCURVE",
"493.667 721.333 OFFCURVE",
"537 702 CURVE SMOOTH",
"580.333 682.667 OFFCURVE",
"617 656 OFFCURVE",
"647 622 CURVE SMOOTH",
"677 588 OFFCURVE",
"700 548.167 OFFCURVE",
"716 502.5 CURVE SMOOTH",
"732 456.833 OFFCURVE",
"740 407.333 OFFCURVE",
"740 354 CURVE SMOOTH",
"740 302 OFFCURVE",
"732 253.5 OFFCURVE",
"716 208.5 CURVE SMOOTH",
"700 163.5 OFFCURVE",
"677 124.333 OFFCURVE",
"647 91 CURVE SMOOTH",
"617 57.667 OFFCURVE",
"580.333 31.5 OFFCURVE",
"537 12.5 CURVE SMOOTH",
"493.667 -6.5 OFFCURVE",
"444.333 -16 OFFCURVE",
"389 -16 CURVE SMOOTH",
"334.333 -16 OFFCURVE",
"285.167 -6.5 OFFCURVE",
"241.5 12.5 CURVE SMOOTH",
"197.833 31.5 OFFCURVE",
"161 57.667 OFFCURVE",
"131 91 CURVE SMOOTH",
"101 124.333 OFFCURVE",
"78 163.5 OFFCURVE",
"62 208.5 CURVE SMOOTH",
"46 253.5 OFFCURVE",
"38 302 OFFCURVE",
"38 354 CURVE SMOOTH",
"38 407.333 OFFCURVE",
"46 456.833 OFFCURVE",
"62 502.5 CURVE SMOOTH",
"78 548.167 OFFCURVE",
"101 588 OFFCURVE",
"131 622 CURVE SMOOTH",
"161 656 OFFCURVE",
"197.833 682.667 OFFCURVE",
"241.5 702 CURVE SMOOTH",
"285.167 721.333 OFFCURVE",
"334.333 731 OFFCURVE",
"389 731 CURVE SMOOTH"
);
}
);
width = 778;
}
);
unicode = 00D4;
},
{
glyphname = Odieresis;
lastChange = "2019-01-18 19:25:35 +0000";
layers = (
{
layerId = "7D8DBE61-6E0F-4C4E-A5A9-510089B62882";
paths = (
{
closed = 1;
nodes = (
"354 794 LINE",
"219 794 LINE",
"219 911 LINE",
"354 911 LINE"
);
},
{
closed = 1;
nodes = (
"560 794 LINE",
"425 794 LINE",
"425 911 LINE",
"560 911 LINE"
);
},
{
closed = 1;
nodes = (
"424.333 115 OFFCURVE",
"454.333 121.833 OFFCURVE",
"479 135.5 CURVE SMOOTH",
"503.667 149.167 OFFCURVE",
"523.667 167.333 OFFCURVE",
"539 190 CURVE SMOOTH",
"554.333 212.667 OFFCURVE",
"565.5 238.167 OFFCURVE",
"572.5 266.5 CURVE SMOOTH",
"579.5 294.833 OFFCURVE",
"583 324 OFFCURVE",
"583 354 CURVE SMOOTH",
"583 385.333 OFFCURVE",
"579.5 415.667 OFFCURVE",
"572.5 445 CURVE SMOOTH",
"565.5 474.333 OFFCURVE",
"554.333 500.5 OFFCURVE",
"539 523.5 CURVE SMOOTH",
"523.667 546.5 OFFCURVE",
"503.667 564.833 OFFCURVE",
"479 578.5 CURVE SMOOTH",
"454.333 592.167 OFFCURVE",
"424.333 599 OFFCURVE",
"389 599 CURVE SMOOTH",
"353.667 599 OFFCURVE",
"323.667 592.167 OFFCURVE",
"299 578.5 CURVE SMOOTH",
"274.333 564.833 OFFCURVE",
"254.333 546.5 OFFCURVE",
"239 523.5 CURVE SMOOTH",
"223.667 500.5 OFFCURVE",
"212.5 474.333 OFFCURVE",
"205.5 445 CURVE SMOOTH",
"198.5 415.667 OFFCURVE",
"195 385.333 OFFCURVE",
"195 354 CURVE SMOOTH",
"195 324 OFFCURVE",
"198.5 294.833 OFFCURVE",
"205.5 266.5 CURVE SMOOTH",
"212.5 238.167 OFFCURVE",
"223.667 212.667 OFFCURVE",
"239 190 CURVE SMOOTH",
"254.333 167.333 OFFCURVE",
"274.333 149.167 OFFCURVE",
"299 135.5 CURVE SMOOTH",
"323.667 121.833 OFFCURVE",
"353.667 115 OFFCURVE",
"389 115 CURVE SMOOTH"
);
},
{
closed = 1;
nodes = (
"444.333 731 OFFCURVE",
"493.667 721.333 OFFCURVE",
"537 702 CURVE SMOOTH",
"580.333 682.667 OFFCURVE",
"617 656 OFFCURVE",
"647 622 CURVE SMOOTH",
"677 588 OFFCURVE",
"700 548.167 OFFCURVE",
"716 502.5 CURVE SMOOTH",
"732 456.833 OFFCURVE",
"740 407.333 OFFCURVE",
"740 354 CURVE SMOOTH",
"740 302 OFFCURVE",
"732 253.5 OFFCURVE",
"716 208.5 CURVE SMOOTH",
"700 163.5 OFFCURVE",
"677 124.333 OFFCURVE",
"647 91 CURVE SMOOTH",
"617 57.667 OFFCURVE",
"580.333 31.5 OFFCURVE",
"537 12.5 CURVE SMOOTH",
"493.667 -6.5 OFFCURVE",
"444.333 -16 OFFCURVE",
"389 -16 CURVE SMOOTH",
"334.333 -16 OFFCURVE",
"285.167 -6.5 OFFCURVE",
"241.5 12.5 CURVE SMOOTH",
"197.833 31.5 OFFCURVE",
"161 57.667 OFFCURVE",
"131 91 CURVE SMOOTH",
"101 124.333 OFFCURVE",
"78 163.5 OFFCURVE",
"62 208.5 CURVE SMOOTH",
"46 253.5 OFFCURVE",
"38 302 OFFCURVE",
"38 354 CURVE SMOOTH",
"38 407.333 OFFCURVE",
"46 456.833 OFFCURVE",
"62 502.5 CURVE SMOOTH",
"78 548.167 OFFCURVE",
"101 588 OFFCURVE",
"131 622 CURVE SMOOTH",
"161 656 OFFCURVE",
"197.833 682.667 OFFCURVE",
"241.5 702 CURVE SMOOTH",
"285.167 721.333 OFFCURVE",
"334.333 731 OFFCURVE",
"389 731 CURVE SMOOTH"
);
}
);
width = 778;
}
);
unicode = 00D6;
},
{
glyphname = Ograve;
lastChange = "2019-01-18 19:25:35 +0000";
layers = (
{
layerId = "7D8DBE61-6E0F-4C4E-A5A9-510089B62882";
paths = (
{
closed = 1;
nodes = (
"465 778 LINE",
"366 778 LINE",
"212 920 LINE",
"369 920 LINE"
);
},
{
closed = 1;
nodes = (
"424.333 115 OFFCURVE",
"454.333 121.833 OFFCURVE",
"479 135.5 CURVE SMOOTH",
"503.667 149.167 OFFCURVE",
"523.667 167.333 OFFCURVE",
"539 190 CURVE SMOOTH",
"554.333 212.667 OFFCURVE",
"565.5 238.167 OFFCURVE",
"572.5 266.5 CURVE SMOOTH",
"579.5 294.833 OFFCURVE",
"583 324 OFFCURVE",
"583 354 CURVE SMOOTH",
"583 385.333 OFFCURVE",
"579.5 415.667 OFFCURVE",
"572.5 445 CURVE SMOOTH",
"565.5 474.333 OFFCURVE",
"554.333 500.5 OFFCURVE",
"539 523.5 CURVE SMOOTH",
"523.667 546.5 OFFCURVE",
"503.667 564.833 OFFCURVE",
"479 578.5 CURVE SMOOTH",
"454.333 592.167 OFFCURVE",
"424.333 599 OFFCURVE",
"389 599 CURVE SMOOTH",
"353.667 599 OFFCURVE",
"323.667 592.167 OFFCURVE",
"299 578.5 CURVE SMOOTH",
"274.333 564.833 OFFCURVE",
"254.333 546.5 OFFCURVE",
"239 523.5 CURVE SMOOTH",
"223.667 500.5 OFFCURVE",
"212.5 474.333 OFFCURVE",
"205.5 445 CURVE SMOOTH",
"198.5 415.667 OFFCURVE",
"195 385.333 OFFCURVE",
"195 354 CURVE SMOOTH",
"195 324 OFFCURVE",
"198.5 294.833 OFFCURVE",
"205.5 266.5 CURVE SMOOTH",
"212.5 238.167 OFFCURVE",
"223.667 212.667 OFFCURVE",
"239 190 CURVE SMOOTH",
"254.333 167.333 OFFCURVE",
"274.333 149.167 OFFCURVE",
"299 135.5 CURVE SMOOTH",
"323.667 121.833 OFFCURVE",
"353.667 115 OFFCURVE",
"389 115 CURVE SMOOTH"
);
},
{
closed = 1;
nodes = (
"444.333 731 OFFCURVE",
"493.667 721.333 OFFCURVE",
"537 702 CURVE SMOOTH",
"580.333 682.667 OFFCURVE",
"617 656 OFFCURVE",
"647 622 CURVE SMOOTH",
"677 588 OFFCURVE",
"700 548.167 OFFCURVE",
"716 502.5 CURVE SMOOTH",
"732 456.833 OFFCURVE",
"740 407.333 OFFCURVE",
"740 354 CURVE SMOOTH",
"740 302 OFFCURVE",
"732 253.5 OFFCURVE",
"716 208.5 CURVE SMOOTH",
"700 163.5 OFFCURVE",
"677 124.333 OFFCURVE",
"647 91 CURVE SMOOTH",
"617 57.667 OFFCURVE",
"580.333 31.5 OFFCURVE",
"537 12.5 CURVE SMOOTH",
"493.667 -6.5 OFFCURVE",
"444.333 -16 OFFCURVE",
"389 -16 CURVE SMOOTH",
"334.333 -16 OFFCURVE",
"285.167 -6.5 OFFCURVE",
"241.5 12.5 CURVE SMOOTH",
"197.833 31.5 OFFCURVE",
"161 57.667 OFFCURVE",
"131 91 CURVE SMOOTH",
"101 124.333 OFFCURVE",
"78 163.5 OFFCURVE",
"62 208.5 CURVE SMOOTH",
"46 253.5 OFFCURVE",
"38 302 OFFCURVE",
"38 354 CURVE SMOOTH",
"38 407.333 OFFCURVE",
"46 456.833 OFFCURVE",
"62 502.5 CURVE SMOOTH",
"78 548.167 OFFCURVE",
"101 588 OFFCURVE",
"131 622 CURVE SMOOTH",
"161 656 OFFCURVE",
"197.833 682.667 OFFCURVE",
"241.5 702 CURVE SMOOTH",
"285.167 721.333 OFFCURVE",
"334.333 731 OFFCURVE",
"389 731 CURVE SMOOTH"
);
}
);
width = 778;
}
);
unicode = 00D2;
},
{
glyphname = Oi;
lastChange = "2019-01-18 19:25:35 +0000";
layers = (
{
layerId = "7D8DBE61-6E0F-4C4E-A5A9-510089B62882";
paths = (
{
closed = 1;
nodes = (
"853 -181 LINE",
"853 714 LINE",
"504 714 LINE",
"468 725.333 OFFCURVE",
"429.667 731 OFFCURVE",
"389 731 CURVE SMOOTH",
"333.667 731 OFFCURVE",
"284.333 721.333 OFFCURVE",
"241 702 CURVE SMOOTH",
"197.667 682.667 OFFCURVE",
"161 656 OFFCURVE",
"131 622 CURVE SMOOTH",
"101 588 OFFCURVE",
"78 548 OFFCURVE",
"62 502 CURVE SMOOTH",
"46 456 OFFCURVE",
"38 406.667 OFFCURVE",
"38 354 CURVE SMOOTH",
"38 302 OFFCURVE",
"46 253.5 OFFCURVE",
"62 208.5 CURVE SMOOTH",
"78 163.5 OFFCURVE",
"101 124.333 OFFCURVE",
"131 91 CURVE SMOOTH",
"161 57.667 OFFCURVE",
"197.667 31.5 OFFCURVE",
"241 12.5 CURVE SMOOTH",
"284.333 -6.5 OFFCURVE",
"333.667 -16 OFFCURVE",
"389 -16 CURVE SMOOTH",
"433 -16 OFFCURVE",
"473 -9.833 OFFCURVE",
"509 2.5 CURVE SMOOTH",
"545 14.833 OFFCURVE",
"577.333 31.667 OFFCURVE",
"606 53 CURVE",
"606 582 LINE",
"696 582 LINE",
"696 -181 LINE"
);
},
{
closed = 1;
nodes = (
"195 385.333 OFFCURVE",
"198.5 415.667 OFFCURVE",
"205.5 445 CURVE SMOOTH",
"212.5 474.333 OFFCURVE",
"223.667 500.5 OFFCURVE",
"239 523.5 CURVE SMOOTH",
"254.333 546.5 OFFCURVE",
"274.333 564.833 OFFCURVE",
"299 578.5 CURVE SMOOTH",
"323.667 592.167 OFFCURVE",
"353.667 599 OFFCURVE",
"389 599 CURVE SMOOTH",
"409.667 599 OFFCURVE",
"429.667 596.333 OFFCURVE",
"449 591 CURVE",
"449 123 LINE",
"429.667 117.667 OFFCURVE",
"409.667 115 OFFCURVE",
"389 115 CURVE SMOOTH",
"353.667 115 OFFCURVE",
"323.667 121.833 OFFCURVE",
"299 135.5 CURVE SMOOTH",
"274.333 149.167 OFFCURVE",
"254.333 167.333 OFFCURVE",
"239 190 CURVE SMOOTH",
"223.667 212.667 OFFCURVE",
"212.5 238.167 OFFCURVE",
"205.5 266.5 CURVE SMOOTH",
"198.5 294.833 OFFCURVE",
"195 324 OFFCURVE",
"195 354 CURVE SMOOTH"
);
}
);
width = 922;
}
);
note = uni01A2;
unicode = 01A2;
},
{
glyphname = Oslash;
lastChange = "2019-01-18 19:25:35 +0000";
layers = (
{
layerId = "7D8DBE61-6E0F-4C4E-A5A9-510089B62882";
paths = (
{
closed = 1;
nodes = (
"424.333 115 OFFCURVE",
"454.333 121.833 OFFCURVE",
"479 135.5 CURVE SMOOTH",
"503.667 149.167 OFFCURVE",
"523.667 167.333 OFFCURVE",
"539 190 CURVE SMOOTH",
"554.333 212.667 OFFCURVE",
"565.5 238.167 OFFCURVE",
"572.5 266.5 CURVE SMOOTH",
"579.5 294.833 OFFCURVE",
"583 324 OFFCURVE",
"583 354 CURVE SMOOTH",
"583 378 OFFCURVE",
"580.833 401.5 OFFCURVE",
"576.5 424.5 CURVE SMOOTH",
"572.167 447.5 OFFCURVE",
"565.333 469.333 OFFCURVE",
"556 490 CURVE",
"261 164 LINE",
"276.333 148.667 OFFCURVE",
"294.5 136.667 OFFCURVE",
"315.5 128 CURVE SMOOTH",
"336.5 119.333 OFFCURVE",
"361 115 OFFCURVE",
"389 115 CURVE SMOOTH"
);
},
{
closed = 1;
nodes = (
"353.667 599 OFFCURVE",
"323.667 592.167 OFFCURVE",
"299 578.5 CURVE SMOOTH",
"274.333 564.833 OFFCURVE",
"254.333 546.5 OFFCURVE",
"239 523.5 CURVE SMOOTH",
"223.667 500.5 OFFCURVE",
"212.5 474.333 OFFCURVE",
"205.5 445 CURVE SMOOTH",
"198.5 415.667 OFFCURVE",
"195 385.333 OFFCURVE",
"195 354 CURVE SMOOTH",
"195 330.667 OFFCURVE",
"197.167 307.5 OFFCURVE",
"201.5 284.5 CURVE SMOOTH",
"205.833 261.5 OFFCURVE",
"213 239.667 OFFCURVE",
"223 219 CURVE",
"519 548 LINE",
"503.667 563.333 OFFCURVE",
"485.333 575.667 OFFCURVE",
"464 585 CURVE SMOOTH",
"442.667 594.333 OFFCURVE",
"417.667 599 OFFCURVE",
"389 599 CURVE SMOOTH"
);
},
{
closed = 1;
nodes = (
"38 407.333 OFFCURVE",
"46 456.833 OFFCURVE",
"62 502.5 CURVE SMOOTH",
"78 548.167 OFFCURVE",
"101 588 OFFCURVE",
"131 622 CURVE SMOOTH",
"161 656 OFFCURVE",
"197.833 682.667 OFFCURVE",
"241.5 702 CURVE SMOOTH",
"285.167 721.333 OFFCURVE",
"334.333 731 OFFCURVE",
"389 731 CURVE SMOOTH",
"435 731 OFFCURVE",
"476.833 724.333 OFFCURVE",
"514.5 711 CURVE SMOOTH",
"552.167 697.667 OFFCURVE",
"585.333 678.667 OFFCURVE",
"614 654 CURVE",
"694 743 LINE",
"744 699 LINE",
"660 606 LINE",
"686 572 OFFCURVE",
"705.833 534 OFFCURVE",
"719.5 492 CURVE SMOOTH",
"733.167 450 OFFCURVE",
"740 404 OFFCURVE",
"740 354 CURVE SMOOTH",
"740 302 OFFCURVE",
"732 253.5 OFFCURVE",
"716 208.5 CURVE SMOOTH",
"700 163.5 OFFCURVE",
"677 124.333 OFFCURVE",
"647 91 CURVE SMOOTH",
"617 57.667 OFFCURVE",
"580.333 31.5 OFFCURVE",
"537 12.5 CURVE SMOOTH",
"493.667 -6.5 OFFCURVE",
"444.333 -16 OFFCURVE",
"389 -16 CURVE SMOOTH",
"343 -16 OFFCURVE",
"301.333 -9.333 OFFCURVE",
"264 4 CURVE SMOOTH",
"226.667 17.333 OFFCURVE",
"194 35.667 OFFCURVE",
"166 59 CURVE",
"83 -32 LINE",
"34 10 LINE",
"120 105 LINE",
"92 139 OFFCURVE",
"71.333 177 OFFCURVE",
"58 219 CURVE SMOOTH",
"44.667 261 OFFCURVE",
"38 306 OFFCURVE",
"38 354 CURVE SMOOTH"
);
}
);
width = 778;
}
);
unicode = 00D8;
},
{
glyphname = Otilde;
lastChange = "2019-01-18 19:25:35 +0000";
layers = (
{
layerId = "7D8DBE61-6E0F-4C4E-A5A9-510089B62882";
paths = (
{
closed = 1;
nodes = (
"445.667 797 OFFCURVE",
"431.333 798.833 OFFCURVE",
"418 802.5 CURVE SMOOTH",
"404.667 806.167 OFFCURVE",
"391.667 810 OFFCURVE",
"379 814 CURVE",
"366.333 818.667 OFFCURVE",
"354.333 822.667 OFFCURVE",
"343 826 CURVE SMOOTH",
"331.667 829.333 OFFCURVE",
"320.333 831 OFFCURVE",
"309 831 CURVE SMOOTH",
"295.667 831 OFFCURVE",
"286.167 827.167 OFFCURVE",
"280.5 819.5 CURVE SMOOTH",
"274.833 811.833 OFFCURVE",
"270.333 801.667 OFFCURVE",
"267 789 CURVE",
"206 789 LINE",
"209.333 803.667 OFFCURVE",
"213.667 818.167 OFFCURVE",
"219 832.5 CURVE SMOOTH",
"224.333 846.833 OFFCURVE",
"231.667 859.833 OFFCURVE",
"241 871.5 CURVE SMOOTH",
"250.333 883.167 OFFCURVE",
"262.333 892.667 OFFCURVE",
"277 900 CURVE SMOOTH",
"291.667 907.333 OFFCURVE",
"310 911 OFFCURVE",
"332 911 CURVE SMOOTH",
"343.333 911 OFFCURVE",
"354.167 909.167 OFFCURVE",
"364.5 905.5 CURVE SMOOTH",
"374.833 901.833 OFFCURVE",
"385.333 898 OFFCURVE",
"396 894 CURVE",
"406.667 889.333 OFFCURVE",
"417.5 885.167 OFFCURVE",
"428.5 881.5 CURVE SMOOTH",
"439.5 877.833 OFFCURVE",
"450.667 876 OFFCURVE",
"462 876 CURVE SMOOTH",
"477.333 876 OFFCURVE",
"488.333 879.5 OFFCURVE",
"495 886.5 CURVE SMOOTH",
"501.667 893.5 OFFCURVE",
"504.667 901.667 OFFCURVE",
"504 911 CURVE",
"573 911 LINE",
"569.667 899.667 OFFCURVE",
"565.833 887.333 OFFCURVE",
"561.5 874 CURVE SMOOTH",
"557.167 860.667 OFFCURVE",
"550.833 848.333 OFFCURVE",
"542.5 837 CURVE SMOOTH",
"534.167 825.667 OFFCURVE",
"523.5 816.167 OFFCURVE",
"510.5 808.5 CURVE SMOOTH",
"497.5 800.833 OFFCURVE",
"481 797 OFFCURVE",
"461 797 CURVE SMOOTH"
);
},
{
closed = 1;
nodes = (
"424.333 115 OFFCURVE",
"454.333 121.833 OFFCURVE",
"479 135.5 CURVE SMOOTH",
"503.667 149.167 OFFCURVE",
"523.667 167.333 OFFCURVE",
"539 190 CURVE SMOOTH",
"554.333 212.667 OFFCURVE",
"565.5 238.167 OFFCURVE",
"572.5 266.5 CURVE SMOOTH",
"579.5 294.833 OFFCURVE",
"583 324 OFFCURVE",
"583 354 CURVE SMOOTH",
"583 385.333 OFFCURVE",
"579.5 415.667 OFFCURVE",
"572.5 445 CURVE SMOOTH",
"565.5 474.333 OFFCURVE",
"554.333 500.5 OFFCURVE",
"539 523.5 CURVE SMOOTH",
"523.667 546.5 OFFCURVE",
"503.667 564.833 OFFCURVE",
"479 578.5 CURVE SMOOTH",
"454.333 592.167 OFFCURVE",
"424.333 599 OFFCURVE",
"389 599 CURVE SMOOTH",
"353.667 599 OFFCURVE",
"323.667 592.167 OFFCURVE",
"299 578.5 CURVE SMOOTH",
"274.333 564.833 OFFCURVE",
"254.333 546.5 OFFCURVE",
"239 523.5 CURVE SMOOTH",
"223.667 500.5 OFFCURVE",
"212.5 474.333 OFFCURVE",
"205.5 445 CURVE SMOOTH",
"198.5 415.667 OFFCURVE",
"195 385.333 OFFCURVE",
"195 354 CURVE SMOOTH",
"195 324 OFFCURVE",
"198.5 294.833 OFFCURVE",
"205.5 266.5 CURVE SMOOTH",
"212.5 238.167 OFFCURVE",
"223.667 212.667 OFFCURVE",
"239 190 CURVE SMOOTH",
"254.333 167.333 OFFCURVE",
"274.333 149.167 OFFCURVE",
"299 135.5 CURVE SMOOTH",
"323.667 121.833 OFFCURVE",
"353.667 115 OFFCURVE",
"389 115 CURVE SMOOTH"
);
},
{
closed = 1;
nodes = (
"444.333 731 OFFCURVE",
"493.667 721.333 OFFCURVE",
"537 702 CURVE SMOOTH",
"580.333 682.667 OFFCURVE",
"617 656 OFFCURVE",
"647 622 CURVE SMOOTH",
"677 588 OFFCURVE",
"700 548.167 OFFCURVE",
"716 502.5 CURVE SMOOTH",
"732 456.833 OFFCURVE",
"740 407.333 OFFCURVE",
"740 354 CURVE SMOOTH",
"740 302 OFFCURVE",
"732 253.5 OFFCURVE",
"716 208.5 CURVE SMOOTH",
"700 163.5 OFFCURVE",
"677 124.333 OFFCURVE",
"647 91 CURVE SMOOTH",
"617 57.667 OFFCURVE",
"580.333 31.5 OFFCURVE",
"537 12.5 CURVE SMOOTH",
"493.667 -6.5 OFFCURVE",
"444.333 -16 OFFCURVE",
"389 -16 CURVE SMOOTH",
"334.333 -16 OFFCURVE",
"285.167 -6.5 OFFCURVE",
"241.5 12.5 CURVE SMOOTH",
"197.833 31.5 OFFCURVE",
"161 57.667 OFFCURVE",
"131 91 CURVE SMOOTH",
"101 124.333 OFFCURVE",
"78 163.5 OFFCURVE",
"62 208.5 CURVE SMOOTH",
"46 253.5 OFFCURVE",
"38 302 OFFCURVE",
"38 354 CURVE SMOOTH",
"38 407.333 OFFCURVE",
"46 456.833 OFFCURVE",
"62 502.5 CURVE SMOOTH",
"78 548.167 OFFCURVE",
"101 588 OFFCURVE",
"131 622 CURVE SMOOTH",
"161 656 OFFCURVE",
"197.833 682.667 OFFCURVE",
"241.5 702 CURVE SMOOTH",
"285.167 721.333 OFFCURVE",
"334.333 731 OFFCURVE",
"389 731 CURVE SMOOTH"
);
}
);
width = 778;
}
);
unicode = 00D5;
},
{
glyphname = OE;
lastChange = "2019-01-18 19:25:35 +0000";
layers = (
{
layerId = "7D8DBE61-6E0F-4C4E-A5A9-510089B62882";
paths = (
{
closed = 1;
nodes = (
"349.333 599 OFFCURVE",
"320 591.833 OFFCURVE",
"296 577.5 CURVE SMOOTH",
"272 563.167 OFFCURVE",
"252.5 544.5 OFFCURVE",
"237.5 521.5 CURVE SMOOTH",
"222.5 498.5 OFFCURVE",
"211.667 472.5 OFFCURVE",
"205 443.5 CURVE SMOOTH",
"198.333 414.5 OFFCURVE",
"195 385 OFFCURVE",
"195 355 CURVE SMOOTH",
"195 325.667 OFFCURVE",
"198.333 296.667 OFFCURVE",
"205 268 CURVE SMOOTH",
"211.667 239.333 OFFCURVE",
"222.5 213.667 OFFCURVE",
"237.5 191 CURVE SMOOTH",
"252.5 168.333 OFFCURVE",
"271.833 150 OFFCURVE",
"295.5 136 CURVE SMOOTH",
"319.167 122 OFFCURVE",
"347.667 115 OFFCURVE",
"381 115 CURVE SMOOTH",
"429 115 OFFCURVE",
"467.167 130 OFFCURVE",
"495.5 160 CURVE SMOOTH",
"523.833 190 OFFCURVE",
"538 229.333 OFFCURVE",
"538 278 CURVE SMOOTH",
"538 448 LINE SMOOTH",
"538 470.667 OFFCURVE",
"534.167 491.167 OFFCURVE",
"526.5 509.5 CURVE SMOOTH",
"518.833 527.833 OFFCURVE",
"508.167 543.667 OFFCURVE",
"494.5 557 CURVE SMOOTH",
"480.833 570.333 OFFCURVE",
"464.5 580.667 OFFCURVE",
"445.5 588 CURVE SMOOTH",
"426.5 595.333 OFFCURVE",
"406 599 OFFCURVE",
"384 599 CURVE SMOOTH"
);
},
{
closed = 1;
nodes = (
"520.667 30.667 OFFCURVE",
"494.667 13.167 OFFCURVE",
"464 1.5 CURVE SMOOTH",
"433.333 -10.167 OFFCURVE",
"402 -16 OFFCURVE",
"370 -16 CURVE SMOOTH",
"317.333 -16 OFFCURVE",
"270.333 -6 OFFCURVE",
"229 14 CURVE SMOOTH",
"187.667 34 OFFCURVE",
"152.833 60.833 OFFCURVE",
"124.5 94.5 CURVE SMOOTH",
"96.167 128.167 OFFCURVE",
"74.667 167.333 OFFCURVE",
"60 212 CURVE SMOOTH",
"45.333 256.667 OFFCURVE",
"38 303.667 OFFCURVE",
"38 353 CURVE SMOOTH",
"38 402.333 OFFCURVE",
"45.5 449.833 OFFCURVE",
"60.5 495.5 CURVE SMOOTH",
"75.5 541.167 OFFCURVE",
"97.333 581.5 OFFCURVE",
"126 616.5 CURVE SMOOTH",
"154.667 651.5 OFFCURVE",
"189.833 679.333 OFFCURVE",
"231.5 700 CURVE SMOOTH",
"273.167 720.667 OFFCURVE",
"320.333 731 OFFCURVE",
"373 731 CURVE SMOOTH",
"404.333 731 OFFCURVE",
"435.333 726 OFFCURVE",
"466 716 CURVE SMOOTH",
"496.667 706 OFFCURVE",
"522 688.333 OFFCURVE",
"542 663 CURVE",
"544 663 LINE",
"544 714 LINE",
"1044 714 LINE",
"1044 582 LINE",
"690 582 LINE",
"690 429 LINE",
"1014 429 LINE",
"1014 307 LINE",
"690 307 LINE",
"690 132 LINE",
"1051 132 LINE",
"1051 0 LINE",
"544 0 LINE",
"544 54 LINE",
"542 54 LINE"
);
}
);
width = 1093;
}
);
unicode = 0152;
},
{
glyphname = P;
lastChange = "2019-01-18 20:19:01 +0000";
layers = (
{
layerId = "7D8DBE61-6E0F-4C4E-A5A9-510089B62882";
paths = (
{
closed = 1;
nodes = (
"366 378 OFFCURVE",
"383.333 379.333 OFFCURVE",
"400 382 CURVE SMOOTH",
"416.667 384.667 OFFCURVE",
"431.333 389.833 OFFCURVE",
"444 397.5 CURVE SMOOTH",
"456.667 405.167 OFFCURVE",
"466.833 416 OFFCURVE",
"474.5 430 CURVE SMOOTH",
"482.167 444 OFFCURVE",
"486 462.333 OFFCURVE",
"486 485 CURVE SMOOTH",
"486 507.667 OFFCURVE",
"482.167 526 OFFCURVE",
"474.5 540 CURVE SMOOTH",
"466.833 554 OFFCURVE",
"456.667 564.833 OFFCURVE",
"444 572.5 CURVE SMOOTH",
"431.333 580.167 OFFCURVE",
"416.667 585.333 OFFCURVE",
"400 588 CURVE SMOOTH",
"383.333 590.667 OFFCURVE",
"366 592 OFFCURVE",
"348 592 CURVE SMOOTH",
"226 592 LINE",
"226 378 LINE",
"348 378 LINE SMOOTH"
);
},
{
closed = 1;
nodes = (
"435.667 714 OFFCURVE",
"473.667 707.5 OFFCURVE",
"505 694.5 CURVE SMOOTH",
"536.333 681.5 OFFCURVE",
"561.833 664.333 OFFCURVE",
"581.5 643 CURVE SMOOTH",
"601.167 621.667 OFFCURVE",
"615.5 597.333 OFFCURVE",
"624.5 570 CURVE SMOOTH",
"633.5 542.667 OFFCURVE",
"638 514.333 OFFCURVE",
"638 485 CURVE SMOOTH",
"638 456.333 OFFCURVE",
"633.5 428.167 OFFCURVE",
"624.5 400.5 CURVE SMOOTH",
"615.5 372.833 OFFCURVE",
"601.167 348.333 OFFCURVE",
"581.5 327 CURVE SMOOTH",
"561.833 305.667 OFFCURVE",
"536.333 288.5 OFFCURVE",
"505 275.5 CURVE SMOOTH",
"473.667 262.5 OFFCURVE",
"435.667 256 OFFCURVE",
"391 256 CURVE SMOOTH",
"226 256 LINE",
"226 0 LINE",
"69 0 LINE",
"69 714 LINE",
"391 714 LINE SMOOTH"
);
},
{
closed = 1;
nodes = (
"226 256 LINE",
"348 256 LINE",
"348 378 LINE",
"226 378 LINE"
);
}
);
width = 667;
}
);
unicode = 0050;
},
{
glyphname = Thorn;
lastChange = "2019-01-18 19:25:35 +0000";
layers = (
{
layerId = "7D8DBE61-6E0F-4C4E-A5A9-510089B62882";
paths = (
{
closed = 1;
nodes = (
"366 281 OFFCURVE",
"383.333 282.333 OFFCURVE",
"400 285 CURVE SMOOTH",
"416.667 287.667 OFFCURVE",
"431.333 292.833 OFFCURVE",
"444 300.5 CURVE SMOOTH",
"456.667 308.167 OFFCURVE",
"466.833 319 OFFCURVE",
"474.5 333 CURVE SMOOTH",
"482.167 347 OFFCURVE",
"486 365.333 OFFCURVE",
"486 388 CURVE SMOOTH",
"486 410.667 OFFCURVE",
"482.167 429 OFFCURVE",
"474.5 443 CURVE SMOOTH",
"466.833 457 OFFCURVE",
"456.667 467.833 OFFCURVE",
"444 475.5 CURVE SMOOTH",
"431.333 483.167 OFFCURVE",
"416.667 488.333 OFFCURVE",
"400 491 CURVE SMOOTH",
"383.333 493.667 OFFCURVE",
"366 495 OFFCURVE",
"348 495 CURVE SMOOTH",
"226 495 LINE",
"226 281 LINE",
"348 281 LINE SMOOTH"
);
},
{
closed = 1;
nodes = (
"226 617 LINE",
"391 617 LINE SMOOTH",
"435.667 617 OFFCURVE",
"473.667 610.5 OFFCURVE",
"505 597.5 CURVE SMOOTH",
"536.333 584.5 OFFCURVE",
"561.833 567.333 OFFCURVE",
"581.5 546 CURVE SMOOTH",
"601.167 524.667 OFFCURVE",
"615.5 500.333 OFFCURVE",
"624.5 473 CURVE SMOOTH",
"633.5 445.667 OFFCURVE",
"638 417.333 OFFCURVE",
"638 388 CURVE SMOOTH",
"638 359.333 OFFCURVE",
"633.5 331.167 OFFCURVE",
"624.5 303.5 CURVE SMOOTH",
"615.5 275.833 OFFCURVE",
"601.167 251.333 OFFCURVE",
"581.5 230 CURVE SMOOTH",
"561.833 208.667 OFFCURVE",
"536.333 191.5 OFFCURVE",
"505 178.5 CURVE SMOOTH",
"473.667 165.5 OFFCURVE",
"435.667 159 OFFCURVE",
"391 159 CURVE SMOOTH",
"226 159 LINE",
"226 0 LINE",
"69 0 LINE",
"69 714 LINE",
"226 714 LINE"
);
}
);
width = 667;
}
);
unicode = 00DE;
},
{
glyphname = Q;
lastChange = "2019-01-19 18:06:05 +0000";
layers = (
{
guideLines = (
{
position = "{258, 354}";
},
{
position = "{438, 412}";
},
{
position = "{438, 299}";
}
);
layerId = "7D8DBE61-6E0F-4C4E-A5A9-510089B62882";
paths = (
{
closed = 1;
nodes = (
"201 289 OFFCURVE",
"203 278 OFFCURVE",
"206 267 CURVE SMOOTH",
"213 238 OFFCURVE",
"224 213 OFFCURVE",
"239 190 CURVE SMOOTH",
"254 167 OFFCURVE",
"274 149 OFFCURVE",
"299 136 CURVE SMOOTH",
"324 122 OFFCURVE",
"354 115 OFFCURVE",
"389 115 CURVE SMOOTH",
"400 115 OFFCURVE",
"412 115 OFFCURVE",
"425 116 CURVE SMOOTH",
"438 117 OFFCURVE",
"447 120 OFFCURVE",
"452 125 CURVE",
"385 186 LINE",
"458 264 LINE",
"539 190 LINE",
"552 208 OFFCURVE",
"563 230 OFFCURVE",
"571 257 CURVE SMOOTH",
"579 284 OFFCURVE",
"583 316 OFFCURVE",
"583 354 CURVE SMOOTH",
"583 385 OFFCURVE",
"580 416 OFFCURVE",
"573 445 CURVE SMOOTH",
"566 474 OFFCURVE",
"554 501 OFFCURVE",
"539 524 CURVE SMOOTH",
"524 547 OFFCURVE",
"504 565 OFFCURVE",
"479 579 CURVE SMOOTH",
"454 592 OFFCURVE",
"424 599 OFFCURVE",
"389 599 CURVE SMOOTH",
"354 599 OFFCURVE",
"324 592 OFFCURVE",
"299 579 CURVE SMOOTH",
"274 565 OFFCURVE",
"254 547 OFFCURVE",
"239 524 CURVE SMOOTH",
"224 501 OFFCURVE",
"213 474 OFFCURVE",
"206 445 CURVE SMOOTH",
"203 434 OFFCURVE",
"201 423 OFFCURVE",
"199 412 CURVE",
"42 412 LINE",
"45 443 OFFCURVE",
"52 474 OFFCURVE",
"62 503 CURVE SMOOTH",
"78 548 OFFCURVE",
"101 588 OFFCURVE",
"131 622 CURVE SMOOTH",
"161 656 OFFCURVE",
"198 683 OFFCURVE",
"242 702 CURVE SMOOTH",
"285 721 OFFCURVE",
"334 731 OFFCURVE",
"389 731 CURVE SMOOTH",
"444 731 OFFCURVE",
"494 721 OFFCURVE",
"537 702 CURVE SMOOTH",
"580 683 OFFCURVE",
"617 656 OFFCURVE",
"647 622 CURVE SMOOTH",
"677 588 OFFCURVE",
"700 548 OFFCURVE",
"716 503 CURVE SMOOTH",
"732 457 OFFCURVE",
"740 407 OFFCURVE",
"740 354 CURVE SMOOTH",
"740 302 OFFCURVE",
"732 254 OFFCURVE",
"716 209 CURVE SMOOTH",
"700 164 OFFCURVE",
"677 125 OFFCURVE",
"647 91 CURVE",
"736 10 LINE",
"663 -66 LINE",
"562 25 LINE",
"515 -2 OFFCURVE",
"457 -16 OFFCURVE",
"389 -16 CURVE SMOOTH",
"334 -16 OFFCURVE",
"285 -7 OFFCURVE",
"242 13 CURVE SMOOTH",
"198 32 OFFCURVE",
"161 58 OFFCURVE",
"131 91 CURVE SMOOTH",
"101 124 OFFCURVE",
"78 164 OFFCURVE",
"62 209 CURVE SMOOTH",
"52 238 OFFCURVE",
"45 268 OFFCURVE",
"41 300 CURVE",
"199 300 LINE"
);
}
);
width = 778;
}
);
unicode = 0051;
},
{
glyphname = R;
lastChange = "2019-01-19 18:48:35 +0000";
layers = (
{
layerId = "7D8DBE61-6E0F-4C4E-A5A9-510089B62882";
paths = (
{
closed = 1;
nodes = (
"434 391 OFFCURVE",
"461 399 OFFCURVE",
"479 415 CURVE SMOOTH",
"497 431 OFFCURVE",
"506 457 OFFCURVE",
"506 493 CURVE SMOOTH",
"506 527.667 OFFCURVE",
"497 552.833 OFFCURVE",
"479 568.5 CURVE SMOOTH",
"461 584.167 OFFCURVE",
"408 591 OFFCURVE",
"372 591 CURVE SMOOTH",
"226 592 LINE",
"226 391 LINE",
"398 391 LINE SMOOTH"
);
},
{
closed = 1;
nodes = (
"486 714 OFFCURVE",
"514.833 708.833 OFFCURVE",
"540.5 698.5 CURVE SMOOTH",
"566.167 688.167 OFFCURVE",
"588.167 674 OFFCURVE",
"606.5 656 CURVE SMOOTH",
"624.833 638 OFFCURVE",
"638.833 617.167 OFFCURVE",
"648.5 593.5 CURVE SMOOTH",
"658.167 569.833 OFFCURVE",
"663 544.333 OFFCURVE",
"663 517 CURVE SMOOTH",
"663 475 OFFCURVE",
"654.167 438.667 OFFCURVE",
"636.5 408 CURVE SMOOTH",
"618.833 377.333 OFFCURVE",
"590 354 OFFCURVE",
"550 338 CURVE",
"550 336 LINE",
"569.333 330.667 OFFCURVE",
"585.333 322.5 OFFCURVE",
"598 311.5 CURVE SMOOTH",
"610.667 300.5 OFFCURVE",
"621 287.5 OFFCURVE",
"629 272.5 CURVE SMOOTH",
"637 257.5 OFFCURVE",
"642.833 241 OFFCURVE",
"646.5 223 CURVE SMOOTH",
"650.167 205 OFFCURVE",
"652.667 187 OFFCURVE",
"654 169 CURVE SMOOTH",
"654.667 157.667 OFFCURVE",
"655.333 144.333 OFFCURVE",
"656 129 CURVE SMOOTH",
"656.667 113.667 OFFCURVE",
"657.833 98 OFFCURVE",
"659.5 82 CURVE SMOOTH",
"661.167 66 OFFCURVE",
"663.833 50.833 OFFCURVE",
"667.5 36.5 CURVE SMOOTH",
"671.167 22.167 OFFCURVE",
"676.667 10 OFFCURVE",
"684 0 CURVE",
"527 0 LINE",
"518.333 22.667 OFFCURVE",
"513 49.667 OFFCURVE",
"511 81 CURVE SMOOTH",
"509 112.333 OFFCURVE",
"506 142.333 OFFCURVE",
"502 171 CURVE SMOOTH",
"496.667 208.333 OFFCURVE",
"485.333 235.667 OFFCURVE",
"468 253 CURVE SMOOTH",
"450.667 270.333 OFFCURVE",
"422 279 OFFCURVE",
"383 279 CURVE SMOOTH",
"226 279 LINE",
"226 0 LINE",
"69 0 LINE",
"69 714 LINE",
"454 714 LINE SMOOTH"
);
},
{
closed = 1;
nodes = (
"225 592 LINE",
"366 591 LINE",
"366 713 LINE",
"225 714 LINE"
);
}
);
width = 722;
}
);
unicode = 0052;
},
{
glyphname = S;
lastChange = "2019-01-19 18:19:04 +0000";
layers = (
{
guideLines = (
{
angle = 270;
position = "{270, 683}";
},
{
angle = 270;
position = "{388, 178}";
}
);
layerId = "7D8DBE61-6E0F-4C4E-A5A9-510089B62882";
paths = (
{
closed = 1;
nodes = (
"270 -12 LINE",
"251 -10 OFFCURVE",
"232 -6 OFFCURVE",
"214 -2 CURVE SMOOTH",
"177 8 OFFCURVE",
"144 23 OFFCURVE",
"116 44 CURVE SMOOTH",
"87 65 OFFCURVE",
"65 91 OFFCURVE",
"48 123 CURVE SMOOTH",
"31 155 OFFCURVE",
"23 193 OFFCURVE",
"24 237 CURVE",
"176 237 LINE",
"176 213 OFFCURVE",
"180 193 OFFCURVE",
"189 176 CURVE SMOOTH",
"198 159 OFFCURVE",
"209 146 OFFCURVE",
"224 136 CURVE SMOOTH",
"237 126 OFFCURVE",
"252 119 OFFCURVE",
"270 114 CURVE",
"271 113 OFFCURVE",
"273 113 OFFCURVE",
"274 113 CURVE"
);
},
{
closed = 1;
nodes = (
"388 726 LINE",
"400 724 OFFCURVE",
"411 722 OFFCURVE",
"423 719 CURVE SMOOTH",
"457 710 OFFCURVE",
"487 697 OFFCURVE",
"514 678 CURVE SMOOTH",
"541 659 OFFCURVE",
"562 636 OFFCURVE",
"578 607 CURVE SMOOTH",
"593 578 OFFCURVE",
"601 542 OFFCURVE",
"601 501 CURVE",
"449 501 LINE",
"448 522 OFFCURVE",
"443 540 OFFCURVE",
"436 554 CURVE SMOOTH",
"428 568 OFFCURVE",
"418 579 OFFCURVE",
"405 587 CURVE SMOOTH",
"399 590 OFFCURVE",
"394 593 OFFCURVE",
"388 596 CURVE"
);
},
{
closed = 1;
nodes = (
"270 605 LINE",
"257 602 OFFCURVE",
"246 598 OFFCURVE",
"236 591 CURVE SMOOTH",
"225 584 OFFCURVE",
"217 576 OFFCURVE",
"210 566 CURVE SMOOTH",
"203 556 OFFCURVE",
"200 543 OFFCURVE",
"200 528 CURVE SMOOTH",
"200 514 OFFCURVE",
"203 503 OFFCURVE",
"208 494 CURVE SMOOTH",
"213 485 OFFCURVE",
"224 477 OFFCURVE",
"240 470 CURVE SMOOTH",
"255 463 OFFCURVE",
"277 455 OFFCURVE",
"305 448 CURVE SMOOTH",
"332 441 OFFCURVE",
"368 431 OFFCURVE",
"413 420 CURVE",
"426 417 OFFCURVE",
"445 413 OFFCURVE",
"469 406 CURVE SMOOTH",
"492 399 OFFCURVE",
"516 387 OFFCURVE",
"539 372 CURVE SMOOTH",
"562 357 OFFCURVE",
"583 336 OFFCURVE",
"600 311 CURVE SMOOTH",
"617 285 OFFCURVE",
"625 252 OFFCURVE",
"625 212 CURVE SMOOTH",
"625 179 OFFCURVE",
"619 149 OFFCURVE",
"606 121 CURVE SMOOTH",
"593 93 OFFCURVE",
"575 69 OFFCURVE",
"550 49 CURVE SMOOTH",
"525 28 OFFCURVE",
"494 12 OFFCURVE",
"457 1 CURVE SMOOTH",
"436 -5 OFFCURVE",
"413 -10 OFFCURVE",
"388 -13 CURVE",
"387 110 LINE",
"400 113 OFFCURVE",
"413 116 OFFCURVE",
"424 122 CURVE SMOOTH",
"438 129 OFFCURVE",
"450 138 OFFCURVE",
"459 150 CURVE SMOOTH",
"468 161 OFFCURVE",
"473 176 OFFCURVE",
"473 194 CURVE SMOOTH",
"473 213 OFFCURVE",
"467 229 OFFCURVE",
"455 241 CURVE SMOOTH",
"442 253 OFFCURVE",
"426 263 OFFCURVE",
"406 271 CURVE SMOOTH",
"386 279 OFFCURVE",
"363 286 OFFCURVE",
"338 292 CURVE SMOOTH",
"313 298 OFFCURVE",
"287 305 OFFCURVE",
"261 312 CURVE SMOOTH",
"234 319 OFFCURVE",
"208 327 OFFCURVE",
"183 337 CURVE SMOOTH",
"158 346 OFFCURVE",
"135 359 OFFCURVE",
"115 374 CURVE SMOOTH",
"95 389 OFFCURVE",
"79 409 OFFCURVE",
"67 432 CURVE SMOOTH",
"54 455 OFFCURVE",
"48 482 OFFCURVE",
"48 515 CURVE SMOOTH",
"48 552 OFFCURVE",
"56 584 OFFCURVE",
"72 611 CURVE SMOOTH",
"87 638 OFFCURVE",
"108 660 OFFCURVE",
"133 678 CURVE SMOOTH",
"158 696 OFFCURVE",
"187 709 OFFCURVE",
"219 718 CURVE SMOOTH",
"236 723 OFFCURVE",
"253 726 OFFCURVE",
"270 728 CURVE"
);
}
);
width = 649;
}
);
unicode = 0053;
},
{
glyphname = Sacute;
lastChange = "2019-01-18 19:25:35 +0000";
layers = (
{
layerId = "7D8DBE61-6E0F-4C4E-A5A9-510089B62882";
paths = (
{
closed = 1;
nodes = (
"24 237 LINE",
"23.333 193 OFFCURVE",
"31.333 155 OFFCURVE",
"48 123 CURVE SMOOTH",
"64.667 91 OFFCURVE",
"87.167 64.667 OFFCURVE",
"115.5 44 CURVE SMOOTH",
"143.833 23.333 OFFCURVE",
"176.5 8.167 OFFCURVE",
"213.5 -1.5 CURVE SMOOTH",
"250.5 -11.167 OFFCURVE",
"288.667 -16 OFFCURVE",
"328 -16 CURVE SMOOTH",
"376.667 -16 OFFCURVE",
"419.5 -10.333 OFFCURVE",
"456.5 1 CURVE SMOOTH",
"493.5 12.333 OFFCURVE",
"524.5 28.167 OFFCURVE",
"549.5 48.5 CURVE SMOOTH",
"574.5 68.833 OFFCURVE",
"593.333 93 OFFCURVE",
"606 121 CURVE SMOOTH",
"618.667 149 OFFCURVE",
"625 179.333 OFFCURVE",
"625 212 CURVE SMOOTH",
"625 252 OFFCURVE",
"616.5 284.833 OFFCURVE",
"599.5 310.5 CURVE SMOOTH",
"582.5 336.167 OFFCURVE",
"562.333 356.667 OFFCURVE",
"539 372 CURVE SMOOTH",
"515.667 387.333 OFFCURVE",
"492.167 398.5 OFFCURVE",
"468.5 405.5 CURVE SMOOTH",
"444.833 412.5 OFFCURVE",
"426.333 417.333 OFFCURVE",
"413 420 CURVE",
"368.333 431.333 OFFCURVE",
"332.167 440.667 OFFCURVE",
"304.5 448 CURVE SMOOTH",
"276.833 455.333 OFFCURVE",
"255.167 462.667 OFFCURVE",
"239.5 470 CURVE SMOOTH",
"223.833 477.333 OFFCURVE",
"213.333 485.333 OFFCURVE",
"208 494 CURVE SMOOTH",
"202.667 502.667 OFFCURVE",
"200 514 OFFCURVE",
"200 528 CURVE SMOOTH",
"200 543.333 OFFCURVE",
"203.333 556 OFFCURVE",
"210 566 CURVE SMOOTH",
"216.667 576 OFFCURVE",
"225.167 584.333 OFFCURVE",
"235.5 591 CURVE SMOOTH",
"245.833 597.667 OFFCURVE",
"257.333 602.333 OFFCURVE",
"270 605 CURVE SMOOTH",
"282.667 607.667 OFFCURVE",
"295.333 609 OFFCURVE",
"308 609 CURVE SMOOTH",
"327.333 609 OFFCURVE",
"345.167 607.333 OFFCURVE",
"361.5 604 CURVE SMOOTH",
"377.833 600.667 OFFCURVE",
"392.333 595 OFFCURVE",
"405 587 CURVE SMOOTH",
"417.667 579 OFFCURVE",
"427.833 568 OFFCURVE",
"435.5 554 CURVE SMOOTH",
"443.167 540 OFFCURVE",
"447.667 522.333 OFFCURVE",
"449 501 CURVE",
"601 501 LINE",
"601 542.333 OFFCURVE",
"593.167 577.5 OFFCURVE",
"577.5 606.5 CURVE SMOOTH",
"561.833 635.5 OFFCURVE",
"540.667 659.333 OFFCURVE",
"514 678 CURVE SMOOTH",
"487.333 696.667 OFFCURVE",
"456.833 710.167 OFFCURVE",
"422.5 718.5 CURVE SMOOTH",
"388.167 726.833 OFFCURVE",
"352.333 731 OFFCURVE",
"315 731 CURVE SMOOTH",
"283 731 OFFCURVE",
"251 726.667 OFFCURVE",
"219 718 CURVE SMOOTH",
"187 709.333 OFFCURVE",
"158.333 696 OFFCURVE",
"133 678 CURVE SMOOTH",
"107.667 660 OFFCURVE",
"87.167 637.5 OFFCURVE",
"71.5 610.5 CURVE SMOOTH",
"55.833 583.5 OFFCURVE",
"48 551.667 OFFCURVE",
"48 515 CURVE SMOOTH",
"48 482.333 OFFCURVE",
"54.167 454.5 OFFCURVE",
"66.5 431.5 CURVE SMOOTH",
"78.833 408.5 OFFCURVE",
"95 389.333 OFFCURVE",
"115 374 CURVE SMOOTH",
"135 358.667 OFFCURVE",
"157.667 346.167 OFFCURVE",
"183 336.5 CURVE SMOOTH",
"208.333 326.833 OFFCURVE",
"234.333 318.667 OFFCURVE",
"261 312 CURVE SMOOTH",
"287 304.667 OFFCURVE",
"312.667 298 OFFCURVE",
"338 292 CURVE SMOOTH",
"363.333 286 OFFCURVE",
"386 279 OFFCURVE",
"406 271 CURVE SMOOTH",
"426 263 OFFCURVE",
"442.167 253 OFFCURVE",
"454.5 241 CURVE SMOOTH",
"466.833 229 OFFCURVE",
"473 213.333 OFFCURVE",
"473 194 CURVE SMOOTH",
"473 176 OFFCURVE",
"468.333 161.167 OFFCURVE",
"459 149.5 CURVE SMOOTH",
"449.667 137.833 OFFCURVE",
"438 128.667 OFFCURVE",
"424 122 CURVE SMOOTH",
"410 115.333 OFFCURVE",
"395 110.833 OFFCURVE",
"379 108.5 CURVE SMOOTH",
"363 106.167 OFFCURVE",
"348 105 OFFCURVE",
"334 105 CURVE SMOOTH",
"313.333 105 OFFCURVE",
"293.333 107.5 OFFCURVE",
"274 112.5 CURVE SMOOTH",
"254.667 117.5 OFFCURVE",
"237.833 125.167 OFFCURVE",
"223.5 135.5 CURVE SMOOTH",
"209.167 145.833 OFFCURVE",
"197.667 159.333 OFFCURVE",
"189 176 CURVE SMOOTH",
"180.333 192.667 OFFCURVE",
"176 213 OFFCURVE",
"176 237 CURVE",
"176 237 LINE"
);
},
{
closed = 1;
nodes = (
"501 920 LINE",
"344 920 LINE",
"248 778 LINE",
"347 778 LINE"
);
}
);
width = 649;
}
);
unicode = 015A;
},
{
glyphname = Scaron;
lastChange = "2019-01-18 19:25:35 +0000";
layers = (
{
layerId = "7D8DBE61-6E0F-4C4E-A5A9-510089B62882";
paths = (
{
closed = 1;
nodes = (
"149 920 LINE",
"261 920 LINE",
"325 839 LINE",
"390 920 LINE",
"500 920 LINE",
"390 778 LINE",
"260 778 LINE"
);
},
{
closed = 1;
nodes = (
"348 105 OFFCURVE",
"363 106.167 OFFCURVE",
"379 108.5 CURVE SMOOTH",
"395 110.833 OFFCURVE",
"410 115.333 OFFCURVE",
"424 122 CURVE SMOOTH",
"438 128.667 OFFCURVE",
"449.667 137.833 OFFCURVE",
"459 149.5 CURVE SMOOTH",
"468.333 161.167 OFFCURVE",
"473 176 OFFCURVE",
"473 194 CURVE SMOOTH",
"473 213.333 OFFCURVE",
"466.833 229 OFFCURVE",
"454.5 241 CURVE SMOOTH",
"442.167 253 OFFCURVE",
"426 263 OFFCURVE",
"406 271 CURVE SMOOTH",
"386 279 OFFCURVE",
"363.333 286 OFFCURVE",
"338 292 CURVE SMOOTH",
"312.667 298 OFFCURVE",
"287 304.667 OFFCURVE",
"261 312 CURVE SMOOTH",
"234.333 318.667 OFFCURVE",
"208.333 326.833 OFFCURVE",
"183 336.5 CURVE SMOOTH",
"157.667 346.167 OFFCURVE",
"135 358.667 OFFCURVE",
"115 374 CURVE SMOOTH",
"95 389.333 OFFCURVE",
"78.833 408.5 OFFCURVE",
"66.5 431.5 CURVE SMOOTH",
"54.167 454.5 OFFCURVE",
"48 482.333 OFFCURVE",
"48 515 CURVE SMOOTH",
"48 551.667 OFFCURVE",
"55.833 583.5 OFFCURVE",
"71.5 610.5 CURVE SMOOTH",
"87.167 637.5 OFFCURVE",
"107.667 660 OFFCURVE",
"133 678 CURVE SMOOTH",
"158.333 696 OFFCURVE",
"187 709.333 OFFCURVE",
"219 718 CURVE SMOOTH",
"251 726.667 OFFCURVE",
"283 731 OFFCURVE",
"315 731 CURVE SMOOTH",
"352.333 731 OFFCURVE",
"388.167 726.833 OFFCURVE",
"422.5 718.5 CURVE SMOOTH",
"456.833 710.167 OFFCURVE",
"487.333 696.667 OFFCURVE",
"514 678 CURVE SMOOTH",
"540.667 659.333 OFFCURVE",
"561.833 635.5 OFFCURVE",
"577.5 606.5 CURVE SMOOTH",
"593.167 577.5 OFFCURVE",
"601 542.333 OFFCURVE",
"601 501 CURVE",
"449 501 LINE",
"447.667 522.333 OFFCURVE",
"443.167 540 OFFCURVE",
"435.5 554 CURVE SMOOTH",
"427.833 568 OFFCURVE",
"417.667 579 OFFCURVE",
"405 587 CURVE SMOOTH",
"392.333 595 OFFCURVE",
"377.833 600.667 OFFCURVE",
"361.5 604 CURVE SMOOTH",
"345.167 607.333 OFFCURVE",
"327.333 609 OFFCURVE",
"308 609 CURVE SMOOTH",
"295.333 609 OFFCURVE",
"282.667 607.667 OFFCURVE",
"270 605 CURVE SMOOTH",
"257.333 602.333 OFFCURVE",
"245.833 597.667 OFFCURVE",
"235.5 591 CURVE SMOOTH",
"225.167 584.333 OFFCURVE",
"216.667 576 OFFCURVE",
"210 566 CURVE SMOOTH",
"203.333 556 OFFCURVE",
"200 543.333 OFFCURVE",
"200 528 CURVE SMOOTH",
"200 514 OFFCURVE",
"202.667 502.667 OFFCURVE",
"208 494 CURVE SMOOTH",
"213.333 485.333 OFFCURVE",
"223.833 477.333 OFFCURVE",
"239.5 470 CURVE SMOOTH",
"255.167 462.667 OFFCURVE",
"276.833 455.333 OFFCURVE",
"304.5 448 CURVE SMOOTH",
"332.167 440.667 OFFCURVE",
"368.333 431.333 OFFCURVE",
"413 420 CURVE",
"426.333 417.333 OFFCURVE",
"444.833 412.5 OFFCURVE",
"468.5 405.5 CURVE SMOOTH",
"492.167 398.5 OFFCURVE",
"515.667 387.333 OFFCURVE",
"539 372 CURVE SMOOTH",
"562.333 356.667 OFFCURVE",
"582.5 336.167 OFFCURVE",
"599.5 310.5 CURVE SMOOTH",
"616.5 284.833 OFFCURVE",
"625 252 OFFCURVE",
"625 212 CURVE SMOOTH",
"625 179.333 OFFCURVE",
"618.667 149 OFFCURVE",
"606 121 CURVE SMOOTH",
"593.333 93 OFFCURVE",
"574.5 68.833 OFFCURVE",
"549.5 48.5 CURVE SMOOTH",
"524.5 28.167 OFFCURVE",
"493.5 12.333 OFFCURVE",
"456.5 1 CURVE SMOOTH",
"419.5 -10.333 OFFCURVE",
"376.667 -16 OFFCURVE",
"328 -16 CURVE SMOOTH",
"288.667 -16 OFFCURVE",
"250.5 -11.167 OFFCURVE",
"213.5 -1.5 CURVE SMOOTH",
"176.5 8.167 OFFCURVE",
"143.833 23.333 OFFCURVE",
"115.5 44 CURVE SMOOTH",
"87.167 64.667 OFFCURVE",
"64.667 91 OFFCURVE",
"48 123 CURVE SMOOTH",
"31.333 155 OFFCURVE",
"23.333 193 OFFCURVE",
"24 237 CURVE",
"176 237 LINE",
"176 213 OFFCURVE",
"180.333 192.667 OFFCURVE",
"189 176 CURVE SMOOTH",
"197.667 159.333 OFFCURVE",
"209.167 145.833 OFFCURVE",
"223.5 135.5 CURVE SMOOTH",
"237.833 125.167 OFFCURVE",
"254.667 117.5 OFFCURVE",
"274 112.5 CURVE SMOOTH",
"293.333 107.5 OFFCURVE",
"313.333 105 OFFCURVE",
"334 105 CURVE SMOOTH"
);
}
);
width = 649;
}
);
unicode = 0160;
},
{
glyphname = Schwa;
lastChange = "2019-01-18 19:25:35 +0000";
layers = (
{
layerId = "7D8DBE61-6E0F-4C4E-A5A9-510089B62882";
paths = (
{
closed = 1;
nodes = (
"710 410 OFFCURVE",
"702 458.667 OFFCURVE",
"686 504 CURVE SMOOTH",
"670 549.333 OFFCURVE",
"647 588.833 OFFCURVE",
"617 622.5 CURVE SMOOTH",
"587 656.167 OFFCURVE",
"550.333 682.667 OFFCURVE",
"507 702 CURVE SMOOTH",
"463.667 721.333 OFFCURVE",
"414.667 731 OFFCURVE",
"360 731 CURVE SMOOTH",
"318.667 731 OFFCURVE",
"280.167 725 OFFCURVE",
"244.5 713 CURVE SMOOTH",
"208.833 701 OFFCURVE",
"177.5 684.167 OFFCURVE",
"150.5 662.5 CURVE SMOOTH",
"123.5 640.833 OFFCURVE",
"101.333 615.333 OFFCURVE",
"84 586 CURVE SMOOTH",
"66.667 556.667 OFFCURVE",
"55.667 524.667 OFFCURVE",
"51 490 CURVE",
"200 490 LINE",
"209.333 526 OFFCURVE",
"228.833 553.5 OFFCURVE",
"258.5 572.5 CURVE SMOOTH",
"288.167 591.5 OFFCURVE",
"323 601 OFFCURVE",
"363 601 CURVE SMOOTH",
"413.667 601 OFFCURVE",
"456.167 583.167 OFFCURVE",
"490.5 547.5 CURVE SMOOTH",
"524.833 511.833 OFFCURVE",
"545.667 462.667 OFFCURVE",
"553 400 CURVE",
"40 400 LINE",
"39.333 395.333 OFFCURVE",
"38.833 387.667 OFFCURVE",
"38.5 377 CURVE SMOOTH",
"38.167 366.333 OFFCURVE",
"38 358.667 OFFCURVE",
"38 354 CURVE SMOOTH",
"38 302 OFFCURVE",
"44.833 253.5 OFFCURVE",
"58.5 208.5 CURVE SMOOTH",
"72.167 163.5 OFFCURVE",
"93 124.333 OFFCURVE",
"121 91 CURVE SMOOTH",
"149 57.667 OFFCURVE",
"184.167 31.5 OFFCURVE",
"226.5 12.5 CURVE SMOOTH",
"268.833 -6.5 OFFCURVE",
"318.667 -16 OFFCURVE",
"376 -16 CURVE SMOOTH",
"425.333 -16 OFFCURVE",
"470.5 -7 OFFCURVE",
"511.5 11 CURVE SMOOTH",
"552.5 29 OFFCURVE",
"587.667 54.333 OFFCURVE",
"617 87 CURVE SMOOTH",
"646.333 119.667 OFFCURVE",
"669.167 159 OFFCURVE",
"685.5 205 CURVE SMOOTH",
"701.833 251 OFFCURVE",
"710 302 OFFCURVE",
"710 358 CURVE SMOOTH"
);
},
{
closed = 1;
nodes = (
"548 278 LINE",
"536.667 223.333 OFFCURVE",
"516 182.333 OFFCURVE",
"486 155 CURVE SMOOTH",
"456 127.667 OFFCURVE",
"419 114 OFFCURVE",
"375 114 CURVE SMOOTH",
"349 114 OFFCURVE",
"326 118.167 OFFCURVE",
"306 126.5 CURVE SMOOTH",
"286 134.833 OFFCURVE",
"268.833 146.333 OFFCURVE",
"254.5 161 CURVE SMOOTH",
"240.167 175.667 OFFCURVE",
"228.667 193 OFFCURVE",
"220 213 CURVE SMOOTH",
"211.333 233 OFFCURVE",
"205.333 254.667 OFFCURVE",
"202 278 CURVE"
);
}
);
width = 748;
}
);
note = uni018F;
unicode = 018F;
},
{
glyphname = T;
lastChange = "2019-01-18 19:25:35 +0000";
layers = (
{
layerId = "7D8DBE61-6E0F-4C4E-A5A9-510089B62882";
paths = (
{
closed = 1;
nodes = (
"13 714 LINE",
"598 714 LINE",
"598 582 LINE",
"384 582 LINE",
"384 0 LINE",
"227 0 LINE",
"227 582 LINE",
"13 582 LINE"
);
}
);
width = 611;
}
);
unicode = 0054;
},
{
glyphname = U;
lastChange = "2019-01-19 18:49:32 +0000";
layers = (
{
guideLines = (
{
angle = 90;
position = "{449, -50}";
},
{
angle = 90;
position = "{296, -63}";
},
{
angle = 270;
position = "{373, 49}";
}
);
layerId = "7D8DBE61-6E0F-4C4E-A5A9-510089B62882";
paths = (
{
closed = 1;
nodes = (
"263 144 OFFCURVE",
"275 134 OFFCURVE",
"296 127 CURVE",
"296 -14 LINE",
"228 -6 OFFCURVE",
"187 17 OFFCURVE",
"146 54 CURVE SMOOTH",
"93 101 OFFCURVE",
"66 173 OFFCURVE",
"66 270 CURVE SMOOTH",
"66 714 LINE",
"223 714 LINE",
"223 270 LINE SMOOTH",
"223 251 OFFCURVE",
"225 232 OFFCURVE",
"228 213 CURVE SMOOTH",
"231 194 OFFCURVE",
"238 178 OFFCURVE",
"249 164 CURVE SMOOTH"
);
},
{
closed = 1;
nodes = (
"449 32 OFFCURVE",
"449 80 OFFCURVE",
"449 127 CURVE",
"470 134 OFFCURVE",
"475 140 OFFCURVE",
"486 153 CURVE SMOOTH",
"507 178 OFFCURVE",
"518 217 OFFCURVE",
"518 270 CURVE SMOOTH",
"518 714 LINE",
"675 714 LINE",
"675 270 LINE SMOOTH",
"675 173 OFFCURVE",
"648 102 OFFCURVE",
"594 55 CURVE SMOOTH",
"553 20 OFFCURVE",
"513 -6 OFFCURVE",
"449 -15 CURVE"
);
}
);
width = 741;
}
);
unicode = 0055;
},
{
glyphname = Uacute;
lastChange = "2019-01-18 19:25:35 +0000";
layers = (
{
layerId = "7D8DBE61-6E0F-4C4E-A5A9-510089B62882";
paths = (
{
closed = 1;
nodes = (
"391 920 LINE",
"548 920 LINE",
"394 778 LINE",
"295 778 LINE"
);
},
{
closed = 1;
nodes = (
"273.333 -16 OFFCURVE",
"198.5 7.333 OFFCURVE",
"145.5 54 CURVE SMOOTH",
"92.5 100.667 OFFCURVE",
"66 172.667 OFFCURVE",
"66 270 CURVE SMOOTH",
"66 714 LINE",
"223 714 LINE",
"223 270 LINE SMOOTH",
"223 250.667 OFFCURVE",
"224.667 231.667 OFFCURVE",
"228 213 CURVE SMOOTH",
"231.333 194.333 OFFCURVE",
"238.333 177.833 OFFCURVE",
"249 163.5 CURVE SMOOTH",
"259.667 149.167 OFFCURVE",
"274.5 137.5 OFFCURVE",
"293.5 128.5 CURVE SMOOTH",
"312.5 119.5 OFFCURVE",
"338 115 OFFCURVE",
"370 115 CURVE SMOOTH",
"426 115 OFFCURVE",
"464.667 127.5 OFFCURVE",
"486 152.5 CURVE SMOOTH",
"507.333 177.5 OFFCURVE",
"518 216.667 OFFCURVE",
"518 270 CURVE SMOOTH",
"518 714 LINE",
"675 714 LINE",
"675 270 LINE SMOOTH",
"675 173.333 OFFCURVE",
"648 101.5 OFFCURVE",
"594 54.5 CURVE SMOOTH",
"540 7.5 OFFCURVE",
"465.333 -16 OFFCURVE",
"370 -16 CURVE SMOOTH"
);
}
);
width = 741;
}
);
unicode = 00DA;
},
{
glyphname = Ucircumflex;
lastChange = "2019-01-18 19:25:35 +0000";
layers = (
{
layerId = "7D8DBE61-6E0F-4C4E-A5A9-510089B62882";
paths = (
{
closed = 1;
nodes = (
"546 778 LINE",
"429 778 LINE",
"367 859 LINE",
"303 778 LINE",
"195 778 LINE",
"306 920 LINE",
"436 920 LINE"
);
},
{
closed = 1;
nodes = (
"273.333 -16 OFFCURVE",
"198.5 7.333 OFFCURVE",
"145.5 54 CURVE SMOOTH",
"92.5 100.667 OFFCURVE",
"66 172.667 OFFCURVE",
"66 270 CURVE SMOOTH",
"66 714 LINE",
"223 714 LINE",
"223 270 LINE SMOOTH",
"223 250.667 OFFCURVE",
"224.667 231.667 OFFCURVE",
"228 213 CURVE SMOOTH",
"231.333 194.333 OFFCURVE",
"238.333 177.833 OFFCURVE",
"249 163.5 CURVE SMOOTH",
"259.667 149.167 OFFCURVE",
"274.5 137.5 OFFCURVE",
"293.5 128.5 CURVE SMOOTH",
"312.5 119.5 OFFCURVE",
"338 115 OFFCURVE",
"370 115 CURVE SMOOTH",
"426 115 OFFCURVE",
"464.667 127.5 OFFCURVE",
"486 152.5 CURVE SMOOTH",
"507.333 177.5 OFFCURVE",
"518 216.667 OFFCURVE",
"518 270 CURVE SMOOTH",
"518 714 LINE",
"675 714 LINE",
"675 270 LINE SMOOTH",
"675 173.333 OFFCURVE",
"648 101.5 OFFCURVE",
"594 54.5 CURVE SMOOTH",
"540 7.5 OFFCURVE",
"465.333 -16 OFFCURVE",
"370 -16 CURVE SMOOTH"
);
}
);
width = 741;
}
);
unicode = 00DB;
},
{
glyphname = Udieresis;
lastChange = "2019-01-18 19:25:35 +0000";
layers = (
{
layerId = "7D8DBE61-6E0F-4C4E-A5A9-510089B62882";
paths = (
{
closed = 1;
nodes = (
"335 794 LINE",
"200 794 LINE",
"200 911 LINE",
"335 911 LINE"
);
},
{
closed = 1;
nodes = (
"541 794 LINE",
"406 794 LINE",
"406 911 LINE",
"541 911 LINE"
);
},
{
closed = 1;
nodes = (
"273.333 -16 OFFCURVE",
"198.5 7.333 OFFCURVE",
"145.5 54 CURVE SMOOTH",
"92.5 100.667 OFFCURVE",
"66 172.667 OFFCURVE",
"66 270 CURVE SMOOTH",
"66 714 LINE",
"223 714 LINE",
"223 270 LINE SMOOTH",
"223 250.667 OFFCURVE",
"224.667 231.667 OFFCURVE",
"228 213 CURVE SMOOTH",
"231.333 194.333 OFFCURVE",
"238.333 177.833 OFFCURVE",
"249 163.5 CURVE SMOOTH",
"259.667 149.167 OFFCURVE",
"274.5 137.5 OFFCURVE",
"293.5 128.5 CURVE SMOOTH",
"312.5 119.5 OFFCURVE",
"338 115 OFFCURVE",
"370 115 CURVE SMOOTH",
"426 115 OFFCURVE",
"464.667 127.5 OFFCURVE",
"486 152.5 CURVE SMOOTH",
"507.333 177.5 OFFCURVE",
"518 216.667 OFFCURVE",
"518 270 CURVE SMOOTH",
"518 714 LINE",
"675 714 LINE",
"675 270 LINE SMOOTH",
"675 173.333 OFFCURVE",
"648 101.5 OFFCURVE",
"594 54.5 CURVE SMOOTH",
"540 7.5 OFFCURVE",
"465.333 -16 OFFCURVE",
"370 -16 CURVE SMOOTH"
);
}
);
width = 741;
}
);
unicode = 00DC;
},
{
glyphname = Ugrave;
lastChange = "2019-01-18 19:25:35 +0000";
layers = (
{
layerId = "7D8DBE61-6E0F-4C4E-A5A9-510089B62882";
paths = (
{
closed = 1;
nodes = (
"446 778 LINE",
"347 778 LINE",
"193 920 LINE",
"350 920 LINE"
);
},
{
closed = 1;
nodes = (
"273.333 -16 OFFCURVE",
"198.5 7.333 OFFCURVE",
"145.5 54 CURVE SMOOTH",
"92.5 100.667 OFFCURVE",
"66 172.667 OFFCURVE",
"66 270 CURVE SMOOTH",
"66 714 LINE",
"223 714 LINE",
"223 270 LINE SMOOTH",
"223 250.667 OFFCURVE",
"224.667 231.667 OFFCURVE",
"228 213 CURVE SMOOTH",
"231.333 194.333 OFFCURVE",
"238.333 177.833 OFFCURVE",
"249 163.5 CURVE SMOOTH",
"259.667 149.167 OFFCURVE",
"274.5 137.5 OFFCURVE",
"293.5 128.5 CURVE SMOOTH",
"312.5 119.5 OFFCURVE",
"338 115 OFFCURVE",
"370 115 CURVE SMOOTH",
"426 115 OFFCURVE",
"464.667 127.5 OFFCURVE",
"486 152.5 CURVE SMOOTH",
"507.333 177.5 OFFCURVE",
"518 216.667 OFFCURVE",
"518 270 CURVE SMOOTH",
"518 714 LINE",
"675 714 LINE",
"675 270 LINE SMOOTH",
"675 173.333 OFFCURVE",
"648 101.5 OFFCURVE",
"594 54.5 CURVE SMOOTH",
"540 7.5 OFFCURVE",
"465.333 -16 OFFCURVE",
"370 -16 CURVE SMOOTH"
);
}
);
width = 741;
}
);
unicode = 00D9;
},
{
glyphname = V;
lastChange = "2019-01-18 19:25:35 +0000";
layers = (
{
layerId = "7D8DBE61-6E0F-4C4E-A5A9-510089B62882";
paths = (
{
closed = 1;
nodes = (
"-7 714 LINE",
"154 714 LINE",
"313 212 LINE",
"315 212 LINE",
"476 714 LINE",
"638 714 LINE",
"401 0 LINE",
"224 0 LINE"
);
}
);
width = 630;
}
);
unicode = 0056;
},
{
glyphname = W;
lastChange = "2019-01-18 19:25:35 +0000";
layers = (
{
layerId = "7D8DBE61-6E0F-4C4E-A5A9-510089B62882";
paths = (
{
closed = 1;
nodes = (
"472 486 LINE",
"470 486 LINE",
"351 0 LINE",
"192 0 LINE",
"3 714 LINE",
"160 714 LINE",
"273 228 LINE",
"275 228 LINE",
"399 714 LINE",
"546 714 LINE",
"668 222 LINE",
"670 222 LINE",
"787 714 LINE",
"941 714 LINE",
"749 0 LINE",
"593 0 LINE"
);
}
);
width = 944;
}
);
unicode = 0057;
},
{
glyphname = X;
lastChange = "2019-01-19 18:14:48 +0000";
layers = (
{
anchors = (
{
name = bottom;
position = "{334, 0}";
},
{
name = top;
position = "{334, 700}";
}
);
guideLines = (
{
angle = -56.3271;
position = "{426, 509}";
}
);
layerId = "7D8DBE61-6E0F-4C4E-A5A9-510089B62882";
paths = (
{
closed = 1;
nodes = (
"387 567 LINE",
"481 714 LINE",
"653 714 LINE",
"465 448 LINE"
);
},
{
closed = 1;
nodes = (
"673 0 LINE",
"486 0 LINE",
"330 247 LINE",
"171 0 LINE",
"-5 0 LINE",
"244 374 LINE",
"14 714 LINE",
"196 714 LINE"
);
}
);
width = 667;
}
);
unicode = 0058;
},
{
glyphname = Y;
lastChange = "2019-01-18 19:25:35 +0000";
layers = (
{
layerId = "7D8DBE61-6E0F-4C4E-A5A9-510089B62882";
paths = (
{
closed = 1;
nodes = (
"168 714 LINE",
"335 432 LINE",
"501 714 LINE",
"676 714 LINE",
"411 274 LINE",
"411 0 LINE",
"254 0 LINE",
"254 278 LINE",
"-8 714 LINE"
);
}
);
width = 667;
}
);
unicode = 0059;
},
{
glyphname = Yacute;
lastChange = "2019-01-18 19:25:35 +0000";
layers = (
{
layerId = "7D8DBE61-6E0F-4C4E-A5A9-510089B62882";
paths = (
{
closed = 1;
nodes = (
"354 920 LINE",
"511 920 LINE",
"357 778 LINE",
"258 778 LINE"
);
},
{
closed = 1;
nodes = (
"168 714 LINE",
"335 432 LINE",
"501 714 LINE",
"676 714 LINE",
"411 274 LINE",
"411 0 LINE",
"254 0 LINE",
"254 278 LINE",
"-8 714 LINE"
);
}
);
width = 667;
}
);
unicode = 00DD;
},
{
glyphname = Ydieresis;
lastChange = "2019-01-18 19:25:35 +0000";
layers = (
{
layerId = "7D8DBE61-6E0F-4C4E-A5A9-510089B62882";
paths = (
{
closed = 1;
nodes = (
"298 794 LINE",
"163 794 LINE",
"163 911 LINE",
"298 911 LINE"
);
},
{
closed = 1;
nodes = (
"504 794 LINE",
"369 794 LINE",
"369 911 LINE",
"504 911 LINE"
);
},
{
closed = 1;
nodes = (
"168 714 LINE",
"335 432 LINE",
"501 714 LINE",
"676 714 LINE",
"411 274 LINE",
"411 0 LINE",
"254 0 LINE",
"254 278 LINE",
"-8 714 LINE"
);
}
);
width = 667;
}
);
unicode = 0178;
},
{
glyphname = Z;
lastChange = "2019-01-18 19:25:35 +0000";
layers = (
{
layerId = "7D8DBE61-6E0F-4C4E-A5A9-510089B62882";
paths = (
{
closed = 1;
nodes = (
"53 582 LINE",
"53 714 LINE",
"615 714 LINE",
"615 590 LINE",
"232 132 LINE",
"625 132 LINE",
"625 0 LINE",
"23 0 LINE",
"23 124 LINE",
"406 582 LINE"
);
}
);
width = 648;
}
);
unicode = 005A;
},
{
glyphname = Zacute;
lastChange = "2019-01-18 19:25:35 +0000";
layers = (
{
layerId = "7D8DBE61-6E0F-4C4E-A5A9-510089B62882";
paths = (
{
closed = 1;
nodes = (
"23 0 LINE",
"625 0 LINE",
"625 132 LINE",
"232 132 LINE",
"615 590 LINE",
"615 714 LINE",
"53 714 LINE",
"53 582 LINE",
"406 582 LINE",
"23 124 LINE"
);
},
{
closed = 1;
nodes = (
"500 920 LINE",
"343 920 LINE",
"247 778 LINE",
"346 778 LINE"
);
}
);
width = 648;
}
);
unicode = 0179;
},
{
glyphname = Zcaron;
lastChange = "2019-01-18 19:25:35 +0000";
layers = (
{
layerId = "7D8DBE61-6E0F-4C4E-A5A9-510089B62882";
paths = (
{
closed = 1;
nodes = (
"149 920 LINE",
"261 920 LINE",
"325 839 LINE",
"390 920 LINE",
"500 920 LINE",
"390 778 LINE",
"260 778 LINE"
);
},
{
closed = 1;
nodes = (
"53 582 LINE",
"53 714 LINE",
"615 714 LINE",
"615 590 LINE",
"232 132 LINE",
"625 132 LINE",
"625 0 LINE",
"23 0 LINE",
"23 124 LINE",
"406 582 LINE"
);
}
);
width = 648;
}
);
unicode = 017D;
},
{
glyphname = Zdotaccent;
lastChange = "2019-01-18 19:25:35 +0000";
layers = (
{
layerId = "7D8DBE61-6E0F-4C4E-A5A9-510089B62882";
paths = (
{
closed = 1;
nodes = (
"23 0 LINE",
"625 0 LINE",
"625 132 LINE",
"232 132 LINE",
"615 590 LINE",
"615 714 LINE",
"53 714 LINE",
"53 582 LINE",
"406 582 LINE",
"23 124 LINE"
);
},
{
closed = 1;
nodes = (
"256 794 LINE",
"391 794 LINE",
"391 911 LINE",
"256 911 LINE"
);
}
);
width = 648;
}
);
unicode = 017B;
},
{
glyphname = Zstroke;
lastChange = "2019-01-18 19:25:35 +0000";
layers = (
{
layerId = "7D8DBE61-6E0F-4C4E-A5A9-510089B62882";
paths = (
{
closed = 1;
nodes = (
"625 0 LINE",
"625 132 LINE",
"222 132 LINE",
"372 307 LINE",
"568 307 LINE",
"568 429 LINE",
"477 429 LINE",
"615 590 LINE",
"615 714 LINE",
"53 714 LINE",
"53 582 LINE",
"416 582 LINE",
"284 429 LINE",
"91 429 LINE",
"91 307 LINE",
"180 307 LINE",
"23 124 LINE",
"23 0 LINE"
);
}
);
width = 648;
}
);
note = uni01B5;
unicode = 01B5;
},
{
glyphname = a;
lastChange = "2019-01-18 19:25:35 +0000";
layers = (
{
layerId = "7D8DBE61-6E0F-4C4E-A5A9-510089B62882";
paths = (
{
closed = 1;
nodes = (
"317 531 OFFCURVE",
"343.333 529.167 OFFCURVE",
"370 525.5 CURVE SMOOTH",
"396.667 521.833 OFFCURVE",
"421 514.667 OFFCURVE",
"443 504 CURVE SMOOTH",
"465 493.333 OFFCURVE",
"483 478.5 OFFCURVE",
"497 459.5 CURVE SMOOTH",
"511 440.5 OFFCURVE",
"518 415.333 OFFCURVE",
"518 384 CURVE SMOOTH",
"518 115 LINE SMOOTH",
"518 91.667 OFFCURVE",
"519.333 69.333 OFFCURVE",
"522 48 CURVE SMOOTH",
"524.667 26.667 OFFCURVE",
"529.333 10.667 OFFCURVE",
"536 0 CURVE",
"392 0 LINE",
"389.333 8 OFFCURVE",
"387.167 16.167 OFFCURVE",
"385.5 24.5 CURVE SMOOTH",
"383.833 32.833 OFFCURVE",
"382.667 41.333 OFFCURVE",
"382 50 CURVE",
"359.333 26.667 OFFCURVE",
"332.667 10.333 OFFCURVE",
"302 1 CURVE SMOOTH",
"271.333 -8.333 OFFCURVE",
"240 -13 OFFCURVE",
"208 -13 CURVE SMOOTH",
"183.333 -13 OFFCURVE",
"160.333 -10 OFFCURVE",
"139 -4 CURVE SMOOTH",
"117.667 2 OFFCURVE",
"99 11.333 OFFCURVE",
"83 24 CURVE SMOOTH",
"67 36.667 OFFCURVE",
"54.5 52.667 OFFCURVE",
"45.5 72 CURVE SMOOTH",
"36.5 91.333 OFFCURVE",
"32 114.333 OFFCURVE",
"32 141 CURVE SMOOTH",
"32 170.333 OFFCURVE",
"37.167 194.5 OFFCURVE",
"47.5 213.5 CURVE SMOOTH",
"57.833 232.5 OFFCURVE",
"71.167 247.667 OFFCURVE",
"87.5 259 CURVE SMOOTH",
"103.833 270.333 OFFCURVE",
"122.5 278.833 OFFCURVE",
"143.5 284.5 CURVE SMOOTH",
"164.5 290.167 OFFCURVE",
"185.667 294.667 OFFCURVE",
"207 298 CURVE SMOOTH",
"228.333 301.333 OFFCURVE",
"249.333 304 OFFCURVE",
"270 306 CURVE SMOOTH",
"290.667 308 OFFCURVE",
"309 311 OFFCURVE",
"325 315 CURVE SMOOTH",
"341 319 OFFCURVE",
"353.667 324.833 OFFCURVE",
"363 332.5 CURVE SMOOTH",
"372.333 340.167 OFFCURVE",
"376.667 351.333 OFFCURVE",
"376 366 CURVE",
"376 381.333 OFFCURVE",
"373.5 393.5 OFFCURVE",
"368.5 402.5 CURVE SMOOTH",
"363.5 411.5 OFFCURVE",
"356.833 418.5 OFFCURVE",
"348.5 423.5 CURVE SMOOTH",
"340.167 428.5 OFFCURVE",
"330.5 431.833 OFFCURVE",
"319.5 433.5 CURVE SMOOTH",
"308.5 435.167 OFFCURVE",
"296.667 436 OFFCURVE",
"284 436 CURVE SMOOTH",
"256 436 OFFCURVE",
"234 430 OFFCURVE",
"218 418 CURVE SMOOTH",
"202 406 OFFCURVE",
"192.667 386 OFFCURVE",
"190 358 CURVE",
"48 358 LINE",
"50 391.333 OFFCURVE",
"58.333 419 OFFCURVE",
"73 441 CURVE SMOOTH",
"87.667 463 OFFCURVE",
"106.333 480.667 OFFCURVE",
"129 494 CURVE SMOOTH",
"151.667 507.333 OFFCURVE",
"177.167 516.833 OFFCURVE",
"205.5 522.5 CURVE SMOOTH",
"233.833 528.167 OFFCURVE",
"262.333 531 OFFCURVE",
"291 531 CURVE SMOOTH"
);
},
{
closed = 1;
nodes = (
"247.333 221 OFFCURVE",
"236.833 218.333 OFFCURVE",
"226.5 215 CURVE SMOOTH",
"216.167 211.667 OFFCURVE",
"207.167 207.167 OFFCURVE",
"199.5 201.5 CURVE SMOOTH",
"191.833 195.833 OFFCURVE",
"185.667 188.667 OFFCURVE",
"181 180 CURVE SMOOTH",
"176.333 171.333 OFFCURVE",
"174 160.333 OFFCURVE",
"174 147 CURVE SMOOTH",
"174 134.333 OFFCURVE",
"176.333 123.667 OFFCURVE",
"181 115 CURVE SMOOTH",
"185.667 106.333 OFFCURVE",
"192 99.5 OFFCURVE",
"200 94.5 CURVE SMOOTH",
"208 89.5 OFFCURVE",
"217.333 86 OFFCURVE",
"228 84 CURVE SMOOTH",
"238.667 82 OFFCURVE",
"249.667 81 OFFCURVE",
"261 81 CURVE SMOOTH",
"289 81 OFFCURVE",
"310.667 85.667 OFFCURVE",
"326 95 CURVE SMOOTH",
"341.333 104.333 OFFCURVE",
"352.667 115.5 OFFCURVE",
"360 128.5 CURVE SMOOTH",
"367.333 141.5 OFFCURVE",
"371.833 154.667 OFFCURVE",
"373.5 168 CURVE SMOOTH",
"375.167 181.333 OFFCURVE",
"376 192 OFFCURVE",
"376 200 CURVE SMOOTH",
"376 253 LINE",
"370 247.667 OFFCURVE",
"362.5 243.5 OFFCURVE",
"353.5 240.5 CURVE SMOOTH",
"344.5 237.5 OFFCURVE",
"334.833 235 OFFCURVE",
"324.5 233 CURVE SMOOTH",
"314.167 231 OFFCURVE",
"303.333 229.333 OFFCURVE",
"292 228 CURVE SMOOTH",
"280.667 226.667 OFFCURVE",
"269.333 225 OFFCURVE",
"258 223 CURVE SMOOTH"
);
}
);
width = 574;
}
);
unicode = 0061;
},
{
glyphname = aacute;
lastChange = "2019-01-18 19:25:35 +0000";
layers = (
{
layerId = "7D8DBE61-6E0F-4C4E-A5A9-510089B62882";
paths = (
{
closed = 1;
nodes = (
"308 723 LINE",
"465 723 LINE",
"311 581 LINE",
"212 581 LINE"
);
},
{
closed = 1;
nodes = (
"317 531 OFFCURVE",
"343.333 529.167 OFFCURVE",
"370 525.5 CURVE SMOOTH",
"396.667 521.833 OFFCURVE",
"421 514.667 OFFCURVE",
"443 504 CURVE SMOOTH",
"465 493.333 OFFCURVE",
"483 478.5 OFFCURVE",
"497 459.5 CURVE SMOOTH",
"511 440.5 OFFCURVE",
"518 415.333 OFFCURVE",
"518 384 CURVE SMOOTH",
"518 115 LINE SMOOTH",
"518 91.667 OFFCURVE",
"519.333 69.333 OFFCURVE",
"522 48 CURVE SMOOTH",
"524.667 26.667 OFFCURVE",
"529.333 10.667 OFFCURVE",
"536 0 CURVE",
"392 0 LINE",
"389.333 8 OFFCURVE",
"387.167 16.167 OFFCURVE",
"385.5 24.5 CURVE SMOOTH",
"383.833 32.833 OFFCURVE",
"382.667 41.333 OFFCURVE",
"382 50 CURVE",
"359.333 26.667 OFFCURVE",
"332.667 10.333 OFFCURVE",
"302 1 CURVE SMOOTH",
"271.333 -8.333 OFFCURVE",
"240 -13 OFFCURVE",
"208 -13 CURVE SMOOTH",
"183.333 -13 OFFCURVE",
"160.333 -10 OFFCURVE",
"139 -4 CURVE SMOOTH",
"117.667 2 OFFCURVE",
"99 11.333 OFFCURVE",
"83 24 CURVE SMOOTH",
"67 36.667 OFFCURVE",
"54.5 52.667 OFFCURVE",
"45.5 72 CURVE SMOOTH",
"36.5 91.333 OFFCURVE",
"32 114.333 OFFCURVE",
"32 141 CURVE SMOOTH",
"32 170.333 OFFCURVE",
"37.167 194.5 OFFCURVE",
"47.5 213.5 CURVE SMOOTH",
"57.833 232.5 OFFCURVE",
"71.167 247.667 OFFCURVE",
"87.5 259 CURVE SMOOTH",
"103.833 270.333 OFFCURVE",
"122.5 278.833 OFFCURVE",
"143.5 284.5 CURVE SMOOTH",
"164.5 290.167 OFFCURVE",
"185.667 294.667 OFFCURVE",
"207 298 CURVE SMOOTH",
"228.333 301.333 OFFCURVE",
"249.333 304 OFFCURVE",
"270 306 CURVE SMOOTH",
"290.667 308 OFFCURVE",
"309 311 OFFCURVE",
"325 315 CURVE SMOOTH",
"341 319 OFFCURVE",
"353.667 324.833 OFFCURVE",
"363 332.5 CURVE SMOOTH",
"372.333 340.167 OFFCURVE",
"376.667 351.333 OFFCURVE",
"376 366 CURVE",
"376 381.333 OFFCURVE",
"373.5 393.5 OFFCURVE",
"368.5 402.5 CURVE SMOOTH",
"363.5 411.5 OFFCURVE",
"356.833 418.5 OFFCURVE",
"348.5 423.5 CURVE SMOOTH",
"340.167 428.5 OFFCURVE",
"330.5 431.833 OFFCURVE",
"319.5 433.5 CURVE SMOOTH",
"308.5 435.167 OFFCURVE",
"296.667 436 OFFCURVE",
"284 436 CURVE SMOOTH",
"256 436 OFFCURVE",
"234 430 OFFCURVE",
"218 418 CURVE SMOOTH",
"202 406 OFFCURVE",
"192.667 386 OFFCURVE",
"190 358 CURVE",
"48 358 LINE",
"50 391.333 OFFCURVE",
"58.333 419 OFFCURVE",
"73 441 CURVE SMOOTH",
"87.667 463 OFFCURVE",
"106.333 480.667 OFFCURVE",
"129 494 CURVE SMOOTH",
"151.667 507.333 OFFCURVE",
"177.167 516.833 OFFCURVE",
"205.5 522.5 CURVE SMOOTH",
"233.833 528.167 OFFCURVE",
"262.333 531 OFFCURVE",
"291 531 CURVE SMOOTH"
);
},
{
closed = 1;
nodes = (
"247.333 221 OFFCURVE",
"236.833 218.333 OFFCURVE",
"226.5 215 CURVE SMOOTH",
"216.167 211.667 OFFCURVE",
"207.167 207.167 OFFCURVE",
"199.5 201.5 CURVE SMOOTH",
"191.833 195.833 OFFCURVE",
"185.667 188.667 OFFCURVE",
"181 180 CURVE SMOOTH",
"176.333 171.333 OFFCURVE",
"174 160.333 OFFCURVE",
"174 147 CURVE SMOOTH",
"174 134.333 OFFCURVE",
"176.333 123.667 OFFCURVE",
"181 115 CURVE SMOOTH",
"185.667 106.333 OFFCURVE",
"192 99.5 OFFCURVE",
"200 94.5 CURVE SMOOTH",
"208 89.5 OFFCURVE",
"217.333 86 OFFCURVE",
"228 84 CURVE SMOOTH",
"238.667 82 OFFCURVE",
"249.667 81 OFFCURVE",
"261 81 CURVE SMOOTH",
"289 81 OFFCURVE",
"310.667 85.667 OFFCURVE",
"326 95 CURVE SMOOTH",
"341.333 104.333 OFFCURVE",
"352.667 115.5 OFFCURVE",
"360 128.5 CURVE SMOOTH",
"367.333 141.5 OFFCURVE",
"371.833 154.667 OFFCURVE",
"373.5 168 CURVE SMOOTH",
"375.167 181.333 OFFCURVE",
"376 192 OFFCURVE",
"376 200 CURVE SMOOTH",
"376 253 LINE",
"370 247.667 OFFCURVE",
"362.5 243.5 OFFCURVE",
"353.5 240.5 CURVE SMOOTH",
"344.5 237.5 OFFCURVE",
"334.833 235 OFFCURVE",
"324.5 233 CURVE SMOOTH",
"314.167 231 OFFCURVE",
"303.333 229.333 OFFCURVE",
"292 228 CURVE SMOOTH",
"280.667 226.667 OFFCURVE",
"269.333 225 OFFCURVE",
"258 223 CURVE SMOOTH"
);
}
);
width = 574;
}
);
unicode = 00E1;
},
{
glyphname = acircumflex;
lastChange = "2019-01-18 19:25:35 +0000";
layers = (
{
layerId = "7D8DBE61-6E0F-4C4E-A5A9-510089B62882";
paths = (
{
closed = 1;
nodes = (
"463 581 LINE",
"346 581 LINE",
"284 662 LINE",
"220 581 LINE",
"112 581 LINE",
"223 723 LINE",
"353 723 LINE"
);
},
{
closed = 1;
nodes = (
"317 531 OFFCURVE",
"343.333 529.167 OFFCURVE",
"370 525.5 CURVE SMOOTH",
"396.667 521.833 OFFCURVE",
"421 514.667 OFFCURVE",
"443 504 CURVE SMOOTH",
"465 493.333 OFFCURVE",
"483 478.5 OFFCURVE",
"497 459.5 CURVE SMOOTH",
"511 440.5 OFFCURVE",
"518 415.333 OFFCURVE",
"518 384 CURVE SMOOTH",
"518 115 LINE SMOOTH",
"518 91.667 OFFCURVE",
"519.333 69.333 OFFCURVE",
"522 48 CURVE SMOOTH",
"524.667 26.667 OFFCURVE",
"529.333 10.667 OFFCURVE",
"536 0 CURVE",
"392 0 LINE",
"389.333 8 OFFCURVE",
"387.167 16.167 OFFCURVE",
"385.5 24.5 CURVE SMOOTH",
"383.833 32.833 OFFCURVE",
"382.667 41.333 OFFCURVE",
"382 50 CURVE",
"359.333 26.667 OFFCURVE",
"332.667 10.333 OFFCURVE",
"302 1 CURVE SMOOTH",
"271.333 -8.333 OFFCURVE",
"240 -13 OFFCURVE",
"208 -13 CURVE SMOOTH",
"183.333 -13 OFFCURVE",
"160.333 -10 OFFCURVE",
"139 -4 CURVE SMOOTH",
"117.667 2 OFFCURVE",
"99 11.333 OFFCURVE",
"83 24 CURVE SMOOTH",
"67 36.667 OFFCURVE",
"54.5 52.667 OFFCURVE",
"45.5 72 CURVE SMOOTH",
"36.5 91.333 OFFCURVE",
"32 114.333 OFFCURVE",
"32 141 CURVE SMOOTH",
"32 170.333 OFFCURVE",
"37.167 194.5 OFFCURVE",
"47.5 213.5 CURVE SMOOTH",
"57.833 232.5 OFFCURVE",
"71.167 247.667 OFFCURVE",
"87.5 259 CURVE SMOOTH",
"103.833 270.333 OFFCURVE",
"122.5 278.833 OFFCURVE",
"143.5 284.5 CURVE SMOOTH",
"164.5 290.167 OFFCURVE",
"185.667 294.667 OFFCURVE",
"207 298 CURVE SMOOTH",
"228.333 301.333 OFFCURVE",
"249.333 304 OFFCURVE",
"270 306 CURVE SMOOTH",
"290.667 308 OFFCURVE",
"309 311 OFFCURVE",
"325 315 CURVE SMOOTH",
"341 319 OFFCURVE",
"353.667 324.833 OFFCURVE",
"363 332.5 CURVE SMOOTH",
"372.333 340.167 OFFCURVE",
"376.667 351.333 OFFCURVE",
"376 366 CURVE",
"376 381.333 OFFCURVE",
"373.5 393.5 OFFCURVE",
"368.5 402.5 CURVE SMOOTH",
"363.5 411.5 OFFCURVE",
"356.833 418.5 OFFCURVE",
"348.5 423.5 CURVE SMOOTH",
"340.167 428.5 OFFCURVE",
"330.5 431.833 OFFCURVE",
"319.5 433.5 CURVE SMOOTH",
"308.5 435.167 OFFCURVE",
"296.667 436 OFFCURVE",
"284 436 CURVE SMOOTH",
"256 436 OFFCURVE",
"234 430 OFFCURVE",
"218 418 CURVE SMOOTH",
"202 406 OFFCURVE",
"192.667 386 OFFCURVE",
"190 358 CURVE",
"48 358 LINE",
"50 391.333 OFFCURVE",
"58.333 419 OFFCURVE",
"73 441 CURVE SMOOTH",
"87.667 463 OFFCURVE",
"106.333 480.667 OFFCURVE",
"129 494 CURVE SMOOTH",
"151.667 507.333 OFFCURVE",
"177.167 516.833 OFFCURVE",
"205.5 522.5 CURVE SMOOTH",
"233.833 528.167 OFFCURVE",
"262.333 531 OFFCURVE",
"291 531 CURVE SMOOTH"
);
},
{
closed = 1;
nodes = (
"247.333 221 OFFCURVE",
"236.833 218.333 OFFCURVE",
"226.5 215 CURVE SMOOTH",
"216.167 211.667 OFFCURVE",
"207.167 207.167 OFFCURVE",
"199.5 201.5 CURVE SMOOTH",
"191.833 195.833 OFFCURVE",
"185.667 188.667 OFFCURVE",
"181 180 CURVE SMOOTH",
"176.333 171.333 OFFCURVE",
"174 160.333 OFFCURVE",
"174 147 CURVE SMOOTH",
"174 134.333 OFFCURVE",
"176.333 123.667 OFFCURVE",
"181 115 CURVE SMOOTH",
"185.667 106.333 OFFCURVE",
"192 99.5 OFFCURVE",
"200 94.5 CURVE SMOOTH",
"208 89.5 OFFCURVE",
"217.333 86 OFFCURVE",
"228 84 CURVE SMOOTH",
"238.667 82 OFFCURVE",
"249.667 81 OFFCURVE",
"261 81 CURVE SMOOTH",
"289 81 OFFCURVE",
"310.667 85.667 OFFCURVE",
"326 95 CURVE SMOOTH",
"341.333 104.333 OFFCURVE",
"352.667 115.5 OFFCURVE",
"360 128.5 CURVE SMOOTH",
"367.333 141.5 OFFCURVE",
"371.833 154.667 OFFCURVE",
"373.5 168 CURVE SMOOTH",
"375.167 181.333 OFFCURVE",
"376 192 OFFCURVE",
"376 200 CURVE SMOOTH",
"376 253 LINE",
"370 247.667 OFFCURVE",
"362.5 243.5 OFFCURVE",
"353.5 240.5 CURVE SMOOTH",
"344.5 237.5 OFFCURVE",
"334.833 235 OFFCURVE",
"324.5 233 CURVE SMOOTH",
"314.167 231 OFFCURVE",
"303.333 229.333 OFFCURVE",
"292 228 CURVE SMOOTH",
"280.667 226.667 OFFCURVE",
"269.333 225 OFFCURVE",
"258 223 CURVE SMOOTH"
);
}
);
width = 574;
}
);
unicode = 00E2;
},
{
glyphname = adieresis;
lastChange = "2019-01-18 19:25:35 +0000";
layers = (
{
layerId = "7D8DBE61-6E0F-4C4E-A5A9-510089B62882";
paths = (
{
closed = 1;
nodes = (
"252 597 LINE",
"117 597 LINE",
"117 714 LINE",
"252 714 LINE"
);
},
{
closed = 1;
nodes = (
"458 597 LINE",
"323 597 LINE",
"323 714 LINE",
"458 714 LINE"
);
},
{
closed = 1;
nodes = (
"317 531 OFFCURVE",
"343.333 529.167 OFFCURVE",
"370 525.5 CURVE SMOOTH",
"396.667 521.833 OFFCURVE",
"421 514.667 OFFCURVE",
"443 504 CURVE SMOOTH",
"465 493.333 OFFCURVE",
"483 478.5 OFFCURVE",
"497 459.5 CURVE SMOOTH",
"511 440.5 OFFCURVE",
"518 415.333 OFFCURVE",
"518 384 CURVE SMOOTH",
"518 115 LINE SMOOTH",
"518 91.667 OFFCURVE",
"519.333 69.333 OFFCURVE",
"522 48 CURVE SMOOTH",
"524.667 26.667 OFFCURVE",
"529.333 10.667 OFFCURVE",
"536 0 CURVE",
"392 0 LINE",
"389.333 8 OFFCURVE",
"387.167 16.167 OFFCURVE",
"385.5 24.5 CURVE SMOOTH",
"383.833 32.833 OFFCURVE",
"382.667 41.333 OFFCURVE",
"382 50 CURVE",
"359.333 26.667 OFFCURVE",
"332.667 10.333 OFFCURVE",
"302 1 CURVE SMOOTH",
"271.333 -8.333 OFFCURVE",
"240 -13 OFFCURVE",
"208 -13 CURVE SMOOTH",
"183.333 -13 OFFCURVE",
"160.333 -10 OFFCURVE",
"139 -4 CURVE SMOOTH",
"117.667 2 OFFCURVE",
"99 11.333 OFFCURVE",
"83 24 CURVE SMOOTH",
"67 36.667 OFFCURVE",
"54.5 52.667 OFFCURVE",
"45.5 72 CURVE SMOOTH",
"36.5 91.333 OFFCURVE",
"32 114.333 OFFCURVE",
"32 141 CURVE SMOOTH",
"32 170.333 OFFCURVE",
"37.167 194.5 OFFCURVE",
"47.5 213.5 CURVE SMOOTH",
"57.833 232.5 OFFCURVE",
"71.167 247.667 OFFCURVE",
"87.5 259 CURVE SMOOTH",
"103.833 270.333 OFFCURVE",
"122.5 278.833 OFFCURVE",
"143.5 284.5 CURVE SMOOTH",
"164.5 290.167 OFFCURVE",
"185.667 294.667 OFFCURVE",
"207 298 CURVE SMOOTH",
"228.333 301.333 OFFCURVE",
"249.333 304 OFFCURVE",
"270 306 CURVE SMOOTH",
"290.667 308 OFFCURVE",
"309 311 OFFCURVE",
"325 315 CURVE SMOOTH",
"341 319 OFFCURVE",
"353.667 324.833 OFFCURVE",
"363 332.5 CURVE SMOOTH",
"372.333 340.167 OFFCURVE",
"376.667 351.333 OFFCURVE",
"376 366 CURVE",
"376 381.333 OFFCURVE",
"373.5 393.5 OFFCURVE",
"368.5 402.5 CURVE SMOOTH",
"363.5 411.5 OFFCURVE",
"356.833 418.5 OFFCURVE",
"348.5 423.5 CURVE SMOOTH",
"340.167 428.5 OFFCURVE",
"330.5 431.833 OFFCURVE",
"319.5 433.5 CURVE SMOOTH",
"308.5 435.167 OFFCURVE",
"296.667 436 OFFCURVE",
"284 436 CURVE SMOOTH",
"256 436 OFFCURVE",
"234 430 OFFCURVE",
"218 418 CURVE SMOOTH",
"202 406 OFFCURVE",
"192.667 386 OFFCURVE",
"190 358 CURVE",
"48 358 LINE",
"50 391.333 OFFCURVE",
"58.333 419 OFFCURVE",
"73 441 CURVE SMOOTH",
"87.667 463 OFFCURVE",
"106.333 480.667 OFFCURVE",
"129 494 CURVE SMOOTH",
"151.667 507.333 OFFCURVE",
"177.167 516.833 OFFCURVE",
"205.5 522.5 CURVE SMOOTH",
"233.833 528.167 OFFCURVE",
"262.333 531 OFFCURVE",
"291 531 CURVE SMOOTH"
);
},
{
closed = 1;
nodes = (
"247.333 221 OFFCURVE",
"236.833 218.333 OFFCURVE",
"226.5 215 CURVE SMOOTH",
"216.167 211.667 OFFCURVE",
"207.167 207.167 OFFCURVE",
"199.5 201.5 CURVE SMOOTH",
"191.833 195.833 OFFCURVE",
"185.667 188.667 OFFCURVE",
"181 180 CURVE SMOOTH",
"176.333 171.333 OFFCURVE",
"174 160.333 OFFCURVE",
"174 147 CURVE SMOOTH",
"174 134.333 OFFCURVE",
"176.333 123.667 OFFCURVE",
"181 115 CURVE SMOOTH",
"185.667 106.333 OFFCURVE",
"192 99.5 OFFCURVE",
"200 94.5 CURVE SMOOTH",
"208 89.5 OFFCURVE",
"217.333 86 OFFCURVE",
"228 84 CURVE SMOOTH",
"238.667 82 OFFCURVE",
"249.667 81 OFFCURVE",
"261 81 CURVE SMOOTH",
"289 81 OFFCURVE",
"310.667 85.667 OFFCURVE",
"326 95 CURVE SMOOTH",
"341.333 104.333 OFFCURVE",
"352.667 115.5 OFFCURVE",
"360 128.5 CURVE SMOOTH",
"367.333 141.5 OFFCURVE",
"371.833 154.667 OFFCURVE",
"373.5 168 CURVE SMOOTH",
"375.167 181.333 OFFCURVE",
"376 192 OFFCURVE",
"376 200 CURVE SMOOTH",
"376 253 LINE",
"370 247.667 OFFCURVE",
"362.5 243.5 OFFCURVE",
"353.5 240.5 CURVE SMOOTH",
"344.5 237.5 OFFCURVE",
"334.833 235 OFFCURVE",
"324.5 233 CURVE SMOOTH",
"314.167 231 OFFCURVE",
"303.333 229.333 OFFCURVE",
"292 228 CURVE SMOOTH",
"280.667 226.667 OFFCURVE",
"269.333 225 OFFCURVE",
"258 223 CURVE SMOOTH"
);
}
);
width = 574;
}
);
unicode = 00E4;
},
{
glyphname = agrave;
lastChange = "2019-01-18 19:25:35 +0000";
layers = (
{
layerId = "7D8DBE61-6E0F-4C4E-A5A9-510089B62882";
paths = (
{
closed = 1;
nodes = (
"363 581 LINE",
"264 581 LINE",
"110 723 LINE",
"267 723 LINE"
);
},
{
closed = 1;
nodes = (
"317 531 OFFCURVE",
"343.333 529.167 OFFCURVE",
"370 525.5 CURVE SMOOTH",
"396.667 521.833 OFFCURVE",
"421 514.667 OFFCURVE",
"443 504 CURVE SMOOTH",
"465 493.333 OFFCURVE",
"483 478.5 OFFCURVE",
"497 459.5 CURVE SMOOTH",
"511 440.5 OFFCURVE",
"518 415.333 OFFCURVE",
"518 384 CURVE SMOOTH",
"518 115 LINE SMOOTH",
"518 91.667 OFFCURVE",
"519.333 69.333 OFFCURVE",
"522 48 CURVE SMOOTH",
"524.667 26.667 OFFCURVE",
"529.333 10.667 OFFCURVE",
"536 0 CURVE",
"392 0 LINE",
"389.333 8 OFFCURVE",
"387.167 16.167 OFFCURVE",
"385.5 24.5 CURVE SMOOTH",
"383.833 32.833 OFFCURVE",
"382.667 41.333 OFFCURVE",
"382 50 CURVE",
"359.333 26.667 OFFCURVE",
"332.667 10.333 OFFCURVE",
"302 1 CURVE SMOOTH",
"271.333 -8.333 OFFCURVE",
"240 -13 OFFCURVE",
"208 -13 CURVE SMOOTH",
"183.333 -13 OFFCURVE",
"160.333 -10 OFFCURVE",
"139 -4 CURVE SMOOTH",
"117.667 2 OFFCURVE",
"99 11.333 OFFCURVE",
"83 24 CURVE SMOOTH",
"67 36.667 OFFCURVE",
"54.5 52.667 OFFCURVE",
"45.5 72 CURVE SMOOTH",
"36.5 91.333 OFFCURVE",
"32 114.333 OFFCURVE",
"32 141 CURVE SMOOTH",
"32 170.333 OFFCURVE",
"37.167 194.5 OFFCURVE",
"47.5 213.5 CURVE SMOOTH",
"57.833 232.5 OFFCURVE",
"71.167 247.667 OFFCURVE",
"87.5 259 CURVE SMOOTH",
"103.833 270.333 OFFCURVE",
"122.5 278.833 OFFCURVE",
"143.5 284.5 CURVE SMOOTH",
"164.5 290.167 OFFCURVE",
"185.667 294.667 OFFCURVE",
"207 298 CURVE SMOOTH",
"228.333 301.333 OFFCURVE",
"249.333 304 OFFCURVE",
"270 306 CURVE SMOOTH",
"290.667 308 OFFCURVE",
"309 311 OFFCURVE",
"325 315 CURVE SMOOTH",
"341 319 OFFCURVE",
"353.667 324.833 OFFCURVE",
"363 332.5 CURVE SMOOTH",
"372.333 340.167 OFFCURVE",
"376.667 351.333 OFFCURVE",
"376 366 CURVE",
"376 381.333 OFFCURVE",
"373.5 393.5 OFFCURVE",
"368.5 402.5 CURVE SMOOTH",
"363.5 411.5 OFFCURVE",
"356.833 418.5 OFFCURVE",
"348.5 423.5 CURVE SMOOTH",
"340.167 428.5 OFFCURVE",
"330.5 431.833 OFFCURVE",
"319.5 433.5 CURVE SMOOTH",
"308.5 435.167 OFFCURVE",
"296.667 436 OFFCURVE",
"284 436 CURVE SMOOTH",
"256 436 OFFCURVE",
"234 430 OFFCURVE",
"218 418 CURVE SMOOTH",
"202 406 OFFCURVE",
"192.667 386 OFFCURVE",
"190 358 CURVE",
"48 358 LINE",
"50 391.333 OFFCURVE",
"58.333 419 OFFCURVE",
"73 441 CURVE SMOOTH",
"87.667 463 OFFCURVE",
"106.333 480.667 OFFCURVE",
"129 494 CURVE SMOOTH",
"151.667 507.333 OFFCURVE",
"177.167 516.833 OFFCURVE",
"205.5 522.5 CURVE SMOOTH",
"233.833 528.167 OFFCURVE",
"262.333 531 OFFCURVE",
"291 531 CURVE SMOOTH"
);
},
{
closed = 1;
nodes = (
"247.333 221 OFFCURVE",
"236.833 218.333 OFFCURVE",
"226.5 215 CURVE SMOOTH",
"216.167 211.667 OFFCURVE",
"207.167 207.167 OFFCURVE",
"199.5 201.5 CURVE SMOOTH",
"191.833 195.833 OFFCURVE",
"185.667 188.667 OFFCURVE",
"181 180 CURVE SMOOTH",
"176.333 171.333 OFFCURVE",
"174 160.333 OFFCURVE",
"174 147 CURVE SMOOTH",
"174 134.333 OFFCURVE",
"176.333 123.667 OFFCURVE",
"181 115 CURVE SMOOTH",
"185.667 106.333 OFFCURVE",
"192 99.5 OFFCURVE",
"200 94.5 CURVE SMOOTH",
"208 89.5 OFFCURVE",
"217.333 86 OFFCURVE",
"228 84 CURVE SMOOTH",
"238.667 82 OFFCURVE",
"249.667 81 OFFCURVE",
"261 81 CURVE SMOOTH",
"289 81 OFFCURVE",
"310.667 85.667 OFFCURVE",
"326 95 CURVE SMOOTH",
"341.333 104.333 OFFCURVE",
"352.667 115.5 OFFCURVE",
"360 128.5 CURVE SMOOTH",
"367.333 141.5 OFFCURVE",
"371.833 154.667 OFFCURVE",
"373.5 168 CURVE SMOOTH",
"375.167 181.333 OFFCURVE",
"376 192 OFFCURVE",
"376 200 CURVE SMOOTH",
"376 253 LINE",
"370 247.667 OFFCURVE",
"362.5 243.5 OFFCURVE",
"353.5 240.5 CURVE SMOOTH",
"344.5 237.5 OFFCURVE",
"334.833 235 OFFCURVE",
"324.5 233 CURVE SMOOTH",
"314.167 231 OFFCURVE",
"303.333 229.333 OFFCURVE",
"292 228 CURVE SMOOTH",
"280.667 226.667 OFFCURVE",
"269.333 225 OFFCURVE",
"258 223 CURVE SMOOTH"
);
}
);
width = 574;
}
);
unicode = 00E0;
},
{
glyphname = aogonek;
lastChange = "2019-01-18 19:25:35 +0000";
layers = (
{
layerId = "7D8DBE61-6E0F-4C4E-A5A9-510089B62882";
paths = (
{
closed = 1;
nodes = (
"488 -127 LINE",
"478.667 -139.667 OFFCURVE",
"469.333 -147.833 OFFCURVE",
"460 -151.5 CURVE SMOOTH",
"450.667 -155.167 OFFCURVE",
"440.667 -157 OFFCURVE",
"430 -157 CURVE SMOOTH",
"420 -157 OFFCURVE",
"411 -153.833 OFFCURVE",
"403 -147.5 CURVE SMOOTH",
"395 -141.167 OFFCURVE",
"391 -133 OFFCURVE",
"391 -123 CURVE SMOOTH",
"391 -105.667 OFFCURVE",
"396.667 -87.333 OFFCURVE",
"408 -68 CURVE SMOOTH",
"419.333 -50 OFFCURVE",
"440 -27.333 OFFCURVE",
"470 0 CURVE",
"536 0 LINE",
"529.333 10.667 OFFCURVE",
"524.667 26.667 OFFCURVE",
"522 48 CURVE SMOOTH",
"519.333 69.333 OFFCURVE",
"518 91.667 OFFCURVE",
"518 115 CURVE SMOOTH",
"518 384 LINE SMOOTH",
"518 415.333 OFFCURVE",
"511 440.5 OFFCURVE",
"497 459.5 CURVE SMOOTH",
"483 478.5 OFFCURVE",
"465 493.333 OFFCURVE",
"443 504 CURVE SMOOTH",
"421 514.667 OFFCURVE",
"396.667 521.833 OFFCURVE",
"370 525.5 CURVE SMOOTH",
"343.333 529.167 OFFCURVE",
"317 531 OFFCURVE",
"291 531 CURVE SMOOTH",
"262.333 531 OFFCURVE",
"233.833 528.167 OFFCURVE",
"205.5 522.5 CURVE SMOOTH",
"177.167 516.833 OFFCURVE",
"151.667 507.333 OFFCURVE",
"129 494 CURVE SMOOTH",
"106.333 480.667 OFFCURVE",
"87.667 463 OFFCURVE",
"73 441 CURVE SMOOTH",
"58.333 419 OFFCURVE",
"50 391.333 OFFCURVE",
"48 358 CURVE",
"190 358 LINE",
"192.667 386 OFFCURVE",
"202 406 OFFCURVE",
"218 418 CURVE SMOOTH",
"234 430 OFFCURVE",
"256 436 OFFCURVE",
"284 436 CURVE SMOOTH",
"296.667 436 OFFCURVE",
"308.5 435.167 OFFCURVE",
"319.5 433.5 CURVE SMOOTH",
"330.5 431.833 OFFCURVE",
"340.167 428.5 OFFCURVE",
"348.5 423.5 CURVE SMOOTH",
"356.833 418.5 OFFCURVE",
"363.5 411.5 OFFCURVE",
"368.5 402.5 CURVE SMOOTH",
"373.5 393.5 OFFCURVE",
"376 381.333 OFFCURVE",
"376 366 CURVE",
"376.667 351.333 OFFCURVE",
"372.333 340.167 OFFCURVE",
"363 332.5 CURVE SMOOTH",
"353.667 324.833 OFFCURVE",
"341 319 OFFCURVE",
"325 315 CURVE SMOOTH",
"309 311 OFFCURVE",
"290.667 308 OFFCURVE",
"270 306 CURVE SMOOTH",
"249.333 304 OFFCURVE",
"228.333 301.333 OFFCURVE",
"207 298 CURVE SMOOTH",
"185.667 294.667 OFFCURVE",
"164.5 290.167 OFFCURVE",
"143.5 284.5 CURVE SMOOTH",
"122.5 278.833 OFFCURVE",
"103.833 270.333 OFFCURVE",
"87.5 259 CURVE SMOOTH",
"71.167 247.667 OFFCURVE",
"57.833 232.5 OFFCURVE",
"47.5 213.5 CURVE SMOOTH",
"37.167 194.5 OFFCURVE",
"32 170.333 OFFCURVE",
"32 141 CURVE SMOOTH",
"32 114.333 OFFCURVE",
"36.5 91.333 OFFCURVE",
"45.5 72 CURVE SMOOTH",
"54.5 52.667 OFFCURVE",
"67 36.667 OFFCURVE",
"83 24 CURVE SMOOTH",
"99 11.333 OFFCURVE",
"117.667 2 OFFCURVE",
"139 -4 CURVE SMOOTH",
"160.333 -10 OFFCURVE",
"183.333 -13 OFFCURVE",
"208 -13 CURVE SMOOTH",
"240 -13 OFFCURVE",
"271.333 -8.333 OFFCURVE",
"302 1 CURVE SMOOTH",
"332.667 10.333 OFFCURVE",
"359.333 26.667 OFFCURVE",
"382 50 CURVE",
"382.667 41.333 OFFCURVE",
"383.833 32.833 OFFCURVE",
"385.5 24.5 CURVE SMOOTH",
"387.167 16.167 OFFCURVE",
"389.333 8 OFFCURVE",
"392 0 CURVE",
"403 0 LINE",
"377.667 -14.667 OFFCURVE",
"358 -28.667 OFFCURVE",
"344 -42 CURVE SMOOTH",
"328.667 -56 OFFCURVE",
"317.333 -68.5 OFFCURVE",
"310 -79.5 CURVE SMOOTH",
"302.667 -90.5 OFFCURVE",
"298.333 -100 OFFCURVE",
"297 -108 CURVE SMOOTH",
"295.667 -116 OFFCURVE",
"295 -122.333 OFFCURVE",
"295 -127 CURVE SMOOTH",
"295 -148.333 OFFCURVE",
"299.333 -165 OFFCURVE",
"308 -177 CURVE SMOOTH",
"316.667 -189 OFFCURVE",
"327 -198 OFFCURVE",
"339 -204 CURVE SMOOTH",
"351 -210 OFFCURVE",
"363 -213.667 OFFCURVE",
"375 -215 CURVE SMOOTH",
"387 -216.333 OFFCURVE",
"396 -217 OFFCURVE",
"402 -217 CURVE SMOOTH",
"424.667 -217 OFFCURVE",
"447.667 -212 OFFCURVE",
"471 -202 CURVE SMOOTH",
"494.333 -192 OFFCURVE",
"516 -174.333 OFFCURVE",
"536 -149 CURVE"
);
},
{
closed = 1;
nodes = (
"174 160.333 OFFCURVE",
"176.333 171.333 OFFCURVE",
"181 180 CURVE SMOOTH",
"185.667 188.667 OFFCURVE",
"191.833 195.833 OFFCURVE",
"199.5 201.5 CURVE SMOOTH",
"207.167 207.167 OFFCURVE",
"216.167 211.667 OFFCURVE",
"226.5 215 CURVE SMOOTH",
"236.833 218.333 OFFCURVE",
"247.333 221 OFFCURVE",
"258 223 CURVE SMOOTH",
"269.333 225 OFFCURVE",
"280.667 226.667 OFFCURVE",
"292 228 CURVE SMOOTH",
"303.333 229.333 OFFCURVE",
"314.167 231 OFFCURVE",
"324.5 233 CURVE SMOOTH",
"334.833 235 OFFCURVE",
"344.5 237.5 OFFCURVE",
"353.5 240.5 CURVE SMOOTH",
"362.5 243.5 OFFCURVE",
"370 247.667 OFFCURVE",
"376 253 CURVE",
"376 200 LINE SMOOTH",
"376 192 OFFCURVE",
"375.167 181.333 OFFCURVE",
"373.5 168 CURVE SMOOTH",
"371.833 154.667 OFFCURVE",
"367.333 141.5 OFFCURVE",
"360 128.5 CURVE SMOOTH",
"352.667 115.5 OFFCURVE",
"341.333 104.333 OFFCURVE",
"326 95 CURVE SMOOTH",
"310.667 85.667 OFFCURVE",
"289 81 OFFCURVE",
"261 81 CURVE SMOOTH",
"249.667 81 OFFCURVE",
"238.667 82 OFFCURVE",
"228 84 CURVE SMOOTH",
"217.333 86 OFFCURVE",
"208 89.5 OFFCURVE",
"200 94.5 CURVE SMOOTH",
"192 99.5 OFFCURVE",
"185.667 106.333 OFFCURVE",
"181 115 CURVE SMOOTH",
"176.333 123.667 OFFCURVE",
"174 134.333 OFFCURVE",
"174 147 CURVE SMOOTH"
);
}
);
width = 574;
}
);
unicode = 0105;
},
{
glyphname = aring;
lastChange = "2019-01-18 19:25:35 +0000";
layers = (
{
layerId = "7D8DBE61-6E0F-4C4E-A5A9-510089B62882";
paths = (
{
closed = 1;
nodes = (
"304.333 778 OFFCURVE",
"320.333 774.833 OFFCURVE",
"335 768.5 CURVE SMOOTH",
"349.667 762.167 OFFCURVE",
"362.667 753.5 OFFCURVE",
"374 742.5 CURVE SMOOTH",
"385.333 731.5 OFFCURVE",
"394.167 718.667 OFFCURVE",
"400.5 704 CURVE SMOOTH",
"406.833 689.333 OFFCURVE",
"410 673.333 OFFCURVE",
"410 656 CURVE SMOOTH",
"410 639.333 OFFCURVE",
"406.833 623.5 OFFCURVE",
"400.5 608.5 CURVE SMOOTH",
"394.167 593.5 OFFCURVE",
"385.333 580.5 OFFCURVE",
"374 569.5 CURVE SMOOTH",
"362.667 558.5 OFFCURVE",
"349.667 549.833 OFFCURVE",
"335 543.5 CURVE SMOOTH",
"320.333 537.167 OFFCURVE",
"304.333 534 OFFCURVE",
"287 534 CURVE SMOOTH",
"270.333 534 OFFCURVE",
"254.5 537.167 OFFCURVE",
"239.5 543.5 CURVE SMOOTH",
"224.5 549.833 OFFCURVE",
"211.5 558.5 OFFCURVE",
"200.5 569.5 CURVE SMOOTH",
"189.5 580.5 OFFCURVE",
"180.833 593.5 OFFCURVE",
"174.5 608.5 CURVE SMOOTH",
"168.167 623.5 OFFCURVE",
"165 639.333 OFFCURVE",
"165 656 CURVE SMOOTH",
"165 673.333 OFFCURVE",
"168.167 689.333 OFFCURVE",
"174.5 704 CURVE SMOOTH",
"180.833 718.667 OFFCURVE",
"189.5 731.5 OFFCURVE",
"200.5 742.5 CURVE SMOOTH",
"211.5 753.5 OFFCURVE",
"224.5 762.167 OFFCURVE",
"239.5 768.5 CURVE SMOOTH",
"254.5 774.833 OFFCURVE",
"270.333 778 OFFCURVE",
"287 778 CURVE SMOOTH"
);
},
{
closed = 1;
nodes = (
"306.333 586 OFFCURVE",
"321.833 592.833 OFFCURVE",
"333.5 606.5 CURVE SMOOTH",
"345.167 620.167 OFFCURVE",
"351 636.667 OFFCURVE",
"351 656 CURVE SMOOTH",
"351 675.333 OFFCURVE",
"345.167 691.833 OFFCURVE",
"333.5 705.5 CURVE SMOOTH",
"321.833 719.167 OFFCURVE",
"306.333 726 OFFCURVE",
"287 726 CURVE SMOOTH",
"267.667 726 OFFCURVE",
"252.333 719.167 OFFCURVE",
"241 705.5 CURVE SMOOTH",
"229.667 691.833 OFFCURVE",
"224 675.333 OFFCURVE",
"224 656 CURVE SMOOTH",
"224 636.667 OFFCURVE",
"229.667 620.167 OFFCURVE",
"241 606.5 CURVE SMOOTH",
"252.333 592.833 OFFCURVE",
"267.667 586 OFFCURVE",
"287 586 CURVE SMOOTH"
);
},
{
closed = 1;
nodes = (
"317 531 OFFCURVE",
"343.333 529.167 OFFCURVE",
"370 525.5 CURVE SMOOTH",
"396.667 521.833 OFFCURVE",
"421 514.667 OFFCURVE",
"443 504 CURVE SMOOTH",
"465 493.333 OFFCURVE",
"483 478.5 OFFCURVE",
"497 459.5 CURVE SMOOTH",
"511 440.5 OFFCURVE",
"518 415.333 OFFCURVE",
"518 384 CURVE SMOOTH",
"518 115 LINE SMOOTH",
"518 91.667 OFFCURVE",
"519.333 69.333 OFFCURVE",
"522 48 CURVE SMOOTH",
"524.667 26.667 OFFCURVE",
"529.333 10.667 OFFCURVE",
"536 0 CURVE",
"392 0 LINE",
"389.333 8 OFFCURVE",
"387.167 16.167 OFFCURVE",
"385.5 24.5 CURVE SMOOTH",
"383.833 32.833 OFFCURVE",
"382.667 41.333 OFFCURVE",
"382 50 CURVE",
"359.333 26.667 OFFCURVE",
"332.667 10.333 OFFCURVE",
"302 1 CURVE SMOOTH",
"271.333 -8.333 OFFCURVE",
"240 -13 OFFCURVE",
"208 -13 CURVE SMOOTH",
"183.333 -13 OFFCURVE",
"160.333 -10 OFFCURVE",
"139 -4 CURVE SMOOTH",
"117.667 2 OFFCURVE",
"99 11.333 OFFCURVE",
"83 24 CURVE SMOOTH",
"67 36.667 OFFCURVE",
"54.5 52.667 OFFCURVE",
"45.5 72 CURVE SMOOTH",
"36.5 91.333 OFFCURVE",
"32 114.333 OFFCURVE",
"32 141 CURVE SMOOTH",
"32 170.333 OFFCURVE",
"37.167 194.5 OFFCURVE",
"47.5 213.5 CURVE SMOOTH",
"57.833 232.5 OFFCURVE",
"71.167 247.667 OFFCURVE",
"87.5 259 CURVE SMOOTH",
"103.833 270.333 OFFCURVE",
"122.5 278.833 OFFCURVE",
"143.5 284.5 CURVE SMOOTH",
"164.5 290.167 OFFCURVE",
"185.667 294.667 OFFCURVE",
"207 298 CURVE SMOOTH",
"228.333 301.333 OFFCURVE",
"249.333 304 OFFCURVE",
"270 306 CURVE SMOOTH",
"290.667 308 OFFCURVE",
"309 311 OFFCURVE",
"325 315 CURVE SMOOTH",
"341 319 OFFCURVE",
"353.667 324.833 OFFCURVE",
"363 332.5 CURVE SMOOTH",
"372.333 340.167 OFFCURVE",
"376.667 351.333 OFFCURVE",
"376 366 CURVE",
"376 381.333 OFFCURVE",
"373.5 393.5 OFFCURVE",
"368.5 402.5 CURVE SMOOTH",
"363.5 411.5 OFFCURVE",
"356.833 418.5 OFFCURVE",
"348.5 423.5 CURVE SMOOTH",
"340.167 428.5 OFFCURVE",
"330.5 431.833 OFFCURVE",
"319.5 433.5 CURVE SMOOTH",
"308.5 435.167 OFFCURVE",
"296.667 436 OFFCURVE",
"284 436 CURVE SMOOTH",
"256 436 OFFCURVE",
"234 430 OFFCURVE",
"218 418 CURVE SMOOTH",
"202 406 OFFCURVE",
"192.667 386 OFFCURVE",
"190 358 CURVE",
"48 358 LINE",
"50 391.333 OFFCURVE",
"58.333 419 OFFCURVE",
"73 441 CURVE SMOOTH",
"87.667 463 OFFCURVE",
"106.333 480.667 OFFCURVE",
"129 494 CURVE SMOOTH",
"151.667 507.333 OFFCURVE",
"177.167 516.833 OFFCURVE",
"205.5 522.5 CURVE SMOOTH",
"233.833 528.167 OFFCURVE",
"262.333 531 OFFCURVE",
"291 531 CURVE SMOOTH"
);
},
{
closed = 1;
nodes = (
"247.333 221 OFFCURVE",
"236.833 218.333 OFFCURVE",
"226.5 215 CURVE SMOOTH",
"216.167 211.667 OFFCURVE",
"207.167 207.167 OFFCURVE",
"199.5 201.5 CURVE SMOOTH",
"191.833 195.833 OFFCURVE",
"185.667 188.667 OFFCURVE",
"181 180 CURVE SMOOTH",
"176.333 171.333 OFFCURVE",
"174 160.333 OFFCURVE",
"174 147 CURVE SMOOTH",
"174 134.333 OFFCURVE",
"176.333 123.667 OFFCURVE",
"181 115 CURVE SMOOTH",
"185.667 106.333 OFFCURVE",
"192 99.5 OFFCURVE",
"200 94.5 CURVE SMOOTH",
"208 89.5 OFFCURVE",
"217.333 86 OFFCURVE",
"228 84 CURVE SMOOTH",
"238.667 82 OFFCURVE",
"249.667 81 OFFCURVE",
"261 81 CURVE SMOOTH",
"289 81 OFFCURVE",
"310.667 85.667 OFFCURVE",
"326 95 CURVE SMOOTH",
"341.333 104.333 OFFCURVE",
"352.667 115.5 OFFCURVE",
"360 128.5 CURVE SMOOTH",
"367.333 141.5 OFFCURVE",
"371.833 154.667 OFFCURVE",
"373.5 168 CURVE SMOOTH",
"375.167 181.333 OFFCURVE",
"376 192 OFFCURVE",
"376 200 CURVE SMOOTH",
"376 253 LINE",
"370 247.667 OFFCURVE",
"362.5 243.5 OFFCURVE",
"353.5 240.5 CURVE SMOOTH",
"344.5 237.5 OFFCURVE",
"334.833 235 OFFCURVE",
"324.5 233 CURVE SMOOTH",
"314.167 231 OFFCURVE",
"303.333 229.333 OFFCURVE",
"292 228 CURVE SMOOTH",
"280.667 226.667 OFFCURVE",
"269.333 225 OFFCURVE",
"258 223 CURVE SMOOTH"
);
}
);
width = 574;
}
);
unicode = 00E5;
},
{
glyphname = atilde;
lastChange = "2019-01-18 19:25:35 +0000";
layers = (
{
layerId = "7D8DBE61-6E0F-4C4E-A5A9-510089B62882";
paths = (
{
closed = 1;
nodes = (
"343.667 600 OFFCURVE",
"329.333 601.833 OFFCURVE",
"316 605.5 CURVE SMOOTH",
"302.667 609.167 OFFCURVE",
"289.667 613 OFFCURVE",
"277 617 CURVE",
"264.333 621.667 OFFCURVE",
"252.333 625.667 OFFCURVE",
"241 629 CURVE SMOOTH",
"229.667 632.333 OFFCURVE",
"218.333 634 OFFCURVE",
"207 634 CURVE SMOOTH",
"193.667 634 OFFCURVE",
"184.167 630.167 OFFCURVE",
"178.5 622.5 CURVE SMOOTH",
"172.833 614.833 OFFCURVE",
"168.333 604.667 OFFCURVE",
"165 592 CURVE",
"104 592 LINE",
"107.333 606.667 OFFCURVE",
"111.667 621.167 OFFCURVE",
"117 635.5 CURVE SMOOTH",
"122.333 649.833 OFFCURVE",
"129.667 662.833 OFFCURVE",
"139 674.5 CURVE SMOOTH",
"148.333 686.167 OFFCURVE",
"160.333 695.667 OFFCURVE",
"175 703 CURVE SMOOTH",
"189.667 710.333 OFFCURVE",
"208 714 OFFCURVE",
"230 714 CURVE SMOOTH",
"241.333 714 OFFCURVE",
"252.167 712.167 OFFCURVE",
"262.5 708.5 CURVE SMOOTH",
"272.833 704.833 OFFCURVE",
"283.333 701 OFFCURVE",
"294 697 CURVE",
"304.667 692.333 OFFCURVE",
"315.5 688.167 OFFCURVE",
"326.5 684.5 CURVE SMOOTH",
"337.5 680.833 OFFCURVE",
"348.667 679 OFFCURVE",
"360 679 CURVE SMOOTH",
"375.333 679 OFFCURVE",
"386.333 682.5 OFFCURVE",
"393 689.5 CURVE SMOOTH",
"399.667 696.5 OFFCURVE",
"402.667 704.667 OFFCURVE",
"402 714 CURVE",
"471 714 LINE",
"467.667 702.667 OFFCURVE",
"463.833 690.333 OFFCURVE",
"459.5 677 CURVE SMOOTH",
"455.167 663.667 OFFCURVE",
"448.833 651.333 OFFCURVE",
"440.5 640 CURVE SMOOTH",
"432.167 628.667 OFFCURVE",
"421.5 619.167 OFFCURVE",
"408.5 611.5 CURVE SMOOTH",
"395.5 603.833 OFFCURVE",
"379 600 OFFCURVE",
"359 600 CURVE SMOOTH"
);
},
{
closed = 1;
nodes = (
"317 531 OFFCURVE",
"343.333 529.167 OFFCURVE",
"370 525.5 CURVE SMOOTH",
"396.667 521.833 OFFCURVE",
"421 514.667 OFFCURVE",
"443 504 CURVE SMOOTH",
"465 493.333 OFFCURVE",
"483 478.5 OFFCURVE",
"497 459.5 CURVE SMOOTH",
"511 440.5 OFFCURVE",
"518 415.333 OFFCURVE",
"518 384 CURVE SMOOTH",
"518 115 LINE SMOOTH",
"518 91.667 OFFCURVE",
"519.333 69.333 OFFCURVE",
"522 48 CURVE SMOOTH",
"524.667 26.667 OFFCURVE",
"529.333 10.667 OFFCURVE",
"536 0 CURVE",
"392 0 LINE",
"389.333 8 OFFCURVE",
"387.167 16.167 OFFCURVE",
"385.5 24.5 CURVE SMOOTH",
"383.833 32.833 OFFCURVE",
"382.667 41.333 OFFCURVE",
"382 50 CURVE",
"359.333 26.667 OFFCURVE",
"332.667 10.333 OFFCURVE",
"302 1 CURVE SMOOTH",
"271.333 -8.333 OFFCURVE",
"240 -13 OFFCURVE",
"208 -13 CURVE SMOOTH",
"183.333 -13 OFFCURVE",
"160.333 -10 OFFCURVE",
"139 -4 CURVE SMOOTH",
"117.667 2 OFFCURVE",
"99 11.333 OFFCURVE",
"83 24 CURVE SMOOTH",
"67 36.667 OFFCURVE",
"54.5 52.667 OFFCURVE",
"45.5 72 CURVE SMOOTH",
"36.5 91.333 OFFCURVE",
"32 114.333 OFFCURVE",
"32 141 CURVE SMOOTH",
"32 170.333 OFFCURVE",
"37.167 194.5 OFFCURVE",
"47.5 213.5 CURVE SMOOTH",
"57.833 232.5 OFFCURVE",
"71.167 247.667 OFFCURVE",
"87.5 259 CURVE SMOOTH",
"103.833 270.333 OFFCURVE",
"122.5 278.833 OFFCURVE",
"143.5 284.5 CURVE SMOOTH",
"164.5 290.167 OFFCURVE",
"185.667 294.667 OFFCURVE",
"207 298 CURVE SMOOTH",
"228.333 301.333 OFFCURVE",
"249.333 304 OFFCURVE",
"270 306 CURVE SMOOTH",
"290.667 308 OFFCURVE",
"309 311 OFFCURVE",
"325 315 CURVE SMOOTH",
"341 319 OFFCURVE",
"353.667 324.833 OFFCURVE",
"363 332.5 CURVE SMOOTH",
"372.333 340.167 OFFCURVE",
"376.667 351.333 OFFCURVE",
"376 366 CURVE",
"376 381.333 OFFCURVE",
"373.5 393.5 OFFCURVE",
"368.5 402.5 CURVE SMOOTH",
"363.5 411.5 OFFCURVE",
"356.833 418.5 OFFCURVE",
"348.5 423.5 CURVE SMOOTH",
"340.167 428.5 OFFCURVE",
"330.5 431.833 OFFCURVE",
"319.5 433.5 CURVE SMOOTH",
"308.5 435.167 OFFCURVE",
"296.667 436 OFFCURVE",
"284 436 CURVE SMOOTH",
"256 436 OFFCURVE",
"234 430 OFFCURVE",
"218 418 CURVE SMOOTH",
"202 406 OFFCURVE",
"192.667 386 OFFCURVE",
"190 358 CURVE",
"48 358 LINE",
"50 391.333 OFFCURVE",
"58.333 419 OFFCURVE",
"73 441 CURVE SMOOTH",
"87.667 463 OFFCURVE",
"106.333 480.667 OFFCURVE",
"129 494 CURVE SMOOTH",
"151.667 507.333 OFFCURVE",
"177.167 516.833 OFFCURVE",
"205.5 522.5 CURVE SMOOTH",
"233.833 528.167 OFFCURVE",
"262.333 531 OFFCURVE",
"291 531 CURVE SMOOTH"
);
},
{
closed = 1;
nodes = (
"247.333 221 OFFCURVE",
"236.833 218.333 OFFCURVE",
"226.5 215 CURVE SMOOTH",
"216.167 211.667 OFFCURVE",
"207.167 207.167 OFFCURVE",
"199.5 201.5 CURVE SMOOTH",
"191.833 195.833 OFFCURVE",
"185.667 188.667 OFFCURVE",
"181 180 CURVE SMOOTH",
"176.333 171.333 OFFCURVE",
"174 160.333 OFFCURVE",
"174 147 CURVE SMOOTH",
"174 134.333 OFFCURVE",
"176.333 123.667 OFFCURVE",
"181 115 CURVE SMOOTH",
"185.667 106.333 OFFCURVE",
"192 99.5 OFFCURVE",
"200 94.5 CURVE SMOOTH",
"208 89.5 OFFCURVE",
"217.333 86 OFFCURVE",
"228 84 CURVE SMOOTH",
"238.667 82 OFFCURVE",
"249.667 81 OFFCURVE",
"261 81 CURVE SMOOTH",
"289 81 OFFCURVE",
"310.667 85.667 OFFCURVE",
"326 95 CURVE SMOOTH",
"341.333 104.333 OFFCURVE",
"352.667 115.5 OFFCURVE",
"360 128.5 CURVE SMOOTH",
"367.333 141.5 OFFCURVE",
"371.833 154.667 OFFCURVE",
"373.5 168 CURVE SMOOTH",
"375.167 181.333 OFFCURVE",
"376 192 OFFCURVE",
"376 200 CURVE SMOOTH",
"376 253 LINE",
"370 247.667 OFFCURVE",
"362.5 243.5 OFFCURVE",
"353.5 240.5 CURVE SMOOTH",
"344.5 237.5 OFFCURVE",
"334.833 235 OFFCURVE",
"324.5 233 CURVE SMOOTH",
"314.167 231 OFFCURVE",
"303.333 229.333 OFFCURVE",
"292 228 CURVE SMOOTH",
"280.667 226.667 OFFCURVE",
"269.333 225 OFFCURVE",
"258 223 CURVE SMOOTH"
);
}
);
width = 574;
}
);
unicode = 00E3;
},
{
glyphname = ae;
lastChange = "2019-01-18 19:25:35 +0000";
layers = (
{
layerId = "7D8DBE61-6E0F-4C4E-A5A9-510089B62882";
paths = (
{
closed = 1;
nodes = (
"607 436 OFFCURVE",
"590.833 432.667 OFFCURVE",
"576.5 426 CURVE SMOOTH",
"562.167 419.333 OFFCURVE",
"550 410.333 OFFCURVE",
"540 399 CURVE SMOOTH",
"530 387.667 OFFCURVE",
"522.333 374.667 OFFCURVE",
"517 360 CURVE SMOOTH",
"511.667 345.333 OFFCURVE",
"509 330 OFFCURVE",
"509 314 CURVE",
"736 314 LINE",
"736 330 OFFCURVE",
"733.667 345.333 OFFCURVE",
"729 360 CURVE SMOOTH",
"724.333 374.667 OFFCURVE",
"717.167 387.667 OFFCURVE",
"707.5 399 CURVE SMOOTH",
"697.833 410.333 OFFCURVE",
"686.167 419.333 OFFCURVE",
"672.5 426 CURVE SMOOTH",
"658.833 432.667 OFFCURVE",
"643 436 OFFCURVE",
"625 436 CURVE SMOOTH"
);
},
{
closed = 1;
nodes = (
"664 81 OFFCURVE",
"688 88.167 OFFCURVE",
"704 102.5 CURVE SMOOTH",
"720 116.833 OFFCURVE",
"730.333 136.667 OFFCURVE",
"735 162 CURVE",
"873 162 LINE",
"865.667 134 OFFCURVE",
"854.333 109.167 OFFCURVE",
"839 87.5 CURVE SMOOTH",
"823.667 65.833 OFFCURVE",
"805.667 47.5 OFFCURVE",
"785 32.5 CURVE SMOOTH",
"764.333 17.5 OFFCURVE",
"741.167 6.167 OFFCURVE",
"715.5 -1.5 CURVE SMOOTH",
"689.833 -9.167 OFFCURVE",
"663 -13 OFFCURVE",
"635 -13 CURVE SMOOTH",
"597.667 -13 OFFCURVE",
"561.667 -6.333 OFFCURVE",
"527 7 CURVE SMOOTH",
"492.333 20.333 OFFCURVE",
"464 42.667 OFFCURVE",
"442 74 CURVE",
"430 58 OFFCURVE",
"415.833 44.5 OFFCURVE",
"399.5 33.5 CURVE SMOOTH",
"383.167 22.5 OFFCURVE",
"365.833 13.5 OFFCURVE",
"347.5 6.5 CURVE SMOOTH",
"329.167 -0.5 OFFCURVE",
"310 -5.5 OFFCURVE",
"290 -8.5 CURVE SMOOTH",
"270 -11.5 OFFCURVE",
"250.333 -13 OFFCURVE",
"231 -13 CURVE SMOOTH",
"206.333 -13 OFFCURVE",
"182.5 -10.5 OFFCURVE",
"159.5 -5.5 CURVE SMOOTH",
"136.5 -0.5 OFFCURVE",
"116 8 OFFCURVE",
"98 20 CURVE SMOOTH",
"80 32 OFFCURVE",
"65.5 47.833 OFFCURVE",
"54.5 67.5 CURVE SMOOTH",
"43.5 87.167 OFFCURVE",
"38 111.333 OFFCURVE",
"38 140 CURVE SMOOTH",
"38 169.333 OFFCURVE",
"43 193.5 OFFCURVE",
"53 212.5 CURVE SMOOTH",
"63 231.5 OFFCURVE",
"76.167 246.833 OFFCURVE",
"92.5 258.5 CURVE SMOOTH",
"108.833 270.167 OFFCURVE",
"127.333 278.833 OFFCURVE",
"148 284.5 CURVE SMOOTH",
"168.667 290.167 OFFCURVE",
"189.667 294.667 OFFCURVE",
"211 298 CURVE SMOOTH",
"241 302.667 OFFCURVE",
"267 306.667 OFFCURVE",
"289 310 CURVE SMOOTH",
"311 313.333 OFFCURVE",
"329.167 317.167 OFFCURVE",
"343.5 321.5 CURVE SMOOTH",
"357.833 325.833 OFFCURVE",
"368.333 331.667 OFFCURVE",
"375 339 CURVE SMOOTH",
"381.667 346.333 OFFCURVE",
"385 356.667 OFFCURVE",
"385 370 CURVE SMOOTH",
"385 383.333 OFFCURVE",
"382.333 394.333 OFFCURVE",
"377 403 CURVE SMOOTH",
"371.667 411.667 OFFCURVE",
"364.667 418.5 OFFCURVE",
"356 423.5 CURVE SMOOTH",
"347.333 428.5 OFFCURVE",
"337.5 431.833 OFFCURVE",
"326.5 433.5 CURVE SMOOTH",
"315.5 435.167 OFFCURVE",
"304.333 436 OFFCURVE",
"293 436 CURVE SMOOTH",
"265 436 OFFCURVE",
"241.833 430.167 OFFCURVE",
"223.5 418.5 CURVE SMOOTH",
"205.167 406.833 OFFCURVE",
"195.333 386 OFFCURVE",
"194 356 CURVE",
"52 356 LINE",
"53.333 388.667 OFFCURVE",
"61.167 416.167 OFFCURVE",
"75.5 438.5 CURVE SMOOTH",
"89.833 460.833 OFFCURVE",
"108.167 478.833 OFFCURVE",
"130.5 492.5 CURVE SMOOTH",
"152.833 506.167 OFFCURVE",
"178.5 516 OFFCURVE",
"207.5 522 CURVE SMOOTH",
"236.5 528 OFFCURVE",
"266 531 OFFCURVE",
"296 531 CURVE SMOOTH",
"311.333 531 OFFCURVE",
"327 529.833 OFFCURVE",
"343 527.5 CURVE SMOOTH",
"359 525.167 OFFCURVE",
"374.667 521.333 OFFCURVE",
"390 516 CURVE SMOOTH",
"405.333 510.667 OFFCURVE",
"419.667 503.5 OFFCURVE",
"433 494.5 CURVE SMOOTH",
"446.333 485.5 OFFCURVE",
"457.667 474.333 OFFCURVE",
"467 461 CURVE",
"487 484.333 OFFCURVE",
"510.333 501.833 OFFCURVE",
"537 513.5 CURVE SMOOTH",
"563.667 525.167 OFFCURVE",
"598 531 OFFCURVE",
"640 531 CURVE SMOOTH",
"683.333 531 OFFCURVE",
"720 522.5 OFFCURVE",
"750 505.5 CURVE SMOOTH",
"780 488.5 OFFCURVE",
"804.5 465.833 OFFCURVE",
"823.5 437.5 CURVE SMOOTH",
"842.5 409.167 OFFCURVE",
"856.333 376.5 OFFCURVE",
"865 339.5 CURVE SMOOTH",
"873.667 302.5 OFFCURVE",
"878 264 OFFCURVE",
"878 224 CURVE",
"509 224 LINE",
"508.333 207.333 OFFCURVE",
"510.667 190.333 OFFCURVE",
"516 173 CURVE SMOOTH",
"521.333 155.667 OFFCURVE",
"529.333 140.333 OFFCURVE",
"540 127 CURVE SMOOTH",
"550.667 113.667 OFFCURVE",
"563.667 102.667 OFFCURVE",
"579 94 CURVE SMOOTH",
"594.333 85.333 OFFCURVE",
"612 81 OFFCURVE",
"632 81 CURVE SMOOTH"
);
},
{
closed = 1;
nodes = (
"180 135.333 OFFCURVE",
"182.5 124.667 OFFCURVE",
"187.5 116 CURVE SMOOTH",
"192.5 107.333 OFFCURVE",
"199.167 100.333 OFFCURVE",
"207.5 95 CURVE SMOOTH",
"215.833 89.667 OFFCURVE",
"225.333 86 OFFCURVE",
"236 84 CURVE SMOOTH",
"246.667 82 OFFCURVE",
"257.333 81 OFFCURVE",
"268 81 CURVE SMOOTH",
"281.333 81 OFFCURVE",
"294.833 83 OFFCURVE",
"308.5 87 CURVE SMOOTH",
"322.167 91 OFFCURVE",
"334.667 97.333 OFFCURVE",
"346 106 CURVE SMOOTH",
"357.333 114.667 OFFCURVE",
"366.667 125.833 OFFCURVE",
"374 139.5 CURVE SMOOTH",
"381.333 153.167 OFFCURVE",
"385 169.333 OFFCURVE",
"385 188 CURVE SMOOTH",
"385 252 LINE",
"376.333 244.667 OFFCURVE",
"365.167 239.333 OFFCURVE",
"351.5 236 CURVE SMOOTH",
"337.833 232.667 OFFCURVE",
"323.5 229.833 OFFCURVE",
"308.5 227.5 CURVE SMOOTH",
"293.5 225.167 OFFCURVE",
"278.333 222.833 OFFCURVE",
"263 220.5 CURVE SMOOTH",
"247.667 218.167 OFFCURVE",
"233.833 214.333 OFFCURVE",
"221.5 209 CURVE SMOOTH",
"209.167 203.667 OFFCURVE",
"199.167 196.333 OFFCURVE",
"191.5 187 CURVE SMOOTH",
"183.833 177.667 OFFCURVE",
"180 164.667 OFFCURVE",
"180 148 CURVE SMOOTH"
);
}
);
width = 907;
}
);
unicode = 00E6;
},
{
glyphname = b;
lastChange = "2019-01-18 19:25:35 +0000";
layers = (
{
layerId = "7D8DBE61-6E0F-4C4E-A5A9-510089B62882";
paths = (
{
closed = 1;
nodes = (
"291.333 424 OFFCURVE",
"273.333 419.5 OFFCURVE",
"258 410.5 CURVE SMOOTH",
"242.667 401.5 OFFCURVE",
"230 389.333 OFFCURVE",
"220 374 CURVE SMOOTH",
"210 358.667 OFFCURVE",
"202.667 341 OFFCURVE",
"198 321 CURVE SMOOTH",
"193.333 301 OFFCURVE",
"191 280 OFFCURVE",
"191 258 CURVE SMOOTH",
"191 236.667 OFFCURVE",
"193.333 216 OFFCURVE",
"198 196 CURVE SMOOTH",
"202.667 176 OFFCURVE",
"210 158.333 OFFCURVE",
"220 143 CURVE SMOOTH",
"230 127.667 OFFCURVE",
"242.667 115.5 OFFCURVE",
"258 106.5 CURVE SMOOTH",
"273.333 97.5 OFFCURVE",
"291.333 93 OFFCURVE",
"312 93 CURVE SMOOTH",
"333.333 93 OFFCURVE",
"351.5 97.5 OFFCURVE",
"366.5 106.5 CURVE SMOOTH",
"381.5 115.5 OFFCURVE",
"394 127.667 OFFCURVE",
"404 143 CURVE SMOOTH",
"414 158.333 OFFCURVE",
"421.333 176 OFFCURVE",
"426 196 CURVE SMOOTH",
"430.667 216 OFFCURVE",
"433 236.667 OFFCURVE",
"433 258 CURVE SMOOTH",
"433 280 OFFCURVE",
"430.667 301 OFFCURVE",
"426 321 CURVE SMOOTH",
"421.333 341 OFFCURVE",
"414 358.667 OFFCURVE",
"404 374 CURVE SMOOTH",
"394 389.333 OFFCURVE",
"381.5 401.5 OFFCURVE",
"366.5 410.5 CURVE SMOOTH",
"351.5 419.5 OFFCURVE",
"333.333 424 OFFCURVE",
"312 424 CURVE SMOOTH"
);
},
{
closed = 1;
nodes = (
"196 454 LINE",
"198 454 LINE",
"215.333 480.667 OFFCURVE",
"238.833 500.167 OFFCURVE",
"268.5 512.5 CURVE SMOOTH",
"298.167 524.833 OFFCURVE",
"329 531 OFFCURVE",
"361 531 CURVE SMOOTH",
"387 531 OFFCURVE",
"412.667 525.667 OFFCURVE",
"438 515 CURVE SMOOTH",
"463.333 504.333 OFFCURVE",
"486.167 488 OFFCURVE",
"506.5 466 CURVE SMOOTH",
"526.833 444 OFFCURVE",
"543.333 415.833 OFFCURVE",
"556 381.5 CURVE SMOOTH",
"568.667 347.167 OFFCURVE",
"575 306.333 OFFCURVE",
"575 259 CURVE SMOOTH",
"575 211.667 OFFCURVE",
"568.667 170.833 OFFCURVE",
"556 136.5 CURVE SMOOTH",
"543.333 102.167 OFFCURVE",
"526.833 74 OFFCURVE",
"506.5 52 CURVE SMOOTH",
"486.167 30 OFFCURVE",
"463.333 13.667 OFFCURVE",
"438 3 CURVE SMOOTH",
"412.667 -7.667 OFFCURVE",
"387 -13 OFFCURVE",
"361 -13 CURVE SMOOTH",
"323 -13 OFFCURVE",
"289 -7 OFFCURVE",
"259 5 CURVE SMOOTH",
"229 17 OFFCURVE",
"206.333 37.333 OFFCURVE",
"191 66 CURVE",
"189 66 LINE",
"189 0 LINE",
"54 0 LINE",
"54 714 LINE",
"196 714 LINE"
);
}
);
width = 611;
}
);
unicode = 0062;
},
{
glyphname = c;
lastChange = "2019-01-18 19:25:35 +0000";
layers = (
{
layerId = "7D8DBE61-6E0F-4C4E-A5A9-510089B62882";
paths = (
{
closed = 1;
nodes = (
"278.333 424 OFFCURVE",
"259.333 418.833 OFFCURVE",
"244 408.5 CURVE SMOOTH",
"228.667 398.167 OFFCURVE",
"216.167 384.833 OFFCURVE",
"206.5 368.5 CURVE SMOOTH",
"196.833 352.167 OFFCURVE",
"190 334.167 OFFCURVE",
"186 314.5 CURVE SMOOTH",
"182 294.833 OFFCURVE",
"180 275.333 OFFCURVE",
"180 256 CURVE SMOOTH",
"180 237.333 OFFCURVE",
"182 218.333 OFFCURVE",
"186 199 CURVE SMOOTH",
"190 179.667 OFFCURVE",
"196.5 162.167 OFFCURVE",
"205.5 146.5 CURVE SMOOTH",
"214.5 130.833 OFFCURVE",
"226.667 118 OFFCURVE",
"242 108 CURVE SMOOTH",
"257.333 98 OFFCURVE",
"276 93 OFFCURVE",
"298 93 CURVE SMOOTH",
"332 93 OFFCURVE",
"358.167 102.5 OFFCURVE",
"376.5 121.5 CURVE SMOOTH",
"394.833 140.5 OFFCURVE",
"406.333 166 OFFCURVE",
"411 198 CURVE",
"548 198 LINE",
"538.667 129.333 OFFCURVE",
"512 77 OFFCURVE",
"468 41 CURVE SMOOTH",
"424 5 OFFCURVE",
"367.667 -13 OFFCURVE",
"299 -13 CURVE SMOOTH",
"260.333 -13 OFFCURVE",
"224.833 -6.5 OFFCURVE",
"192.5 6.5 CURVE SMOOTH",
"160.167 19.5 OFFCURVE",
"132.667 37.667 OFFCURVE",
"110 61 CURVE SMOOTH",
"87.333 84.333 OFFCURVE",
"69.667 112.167 OFFCURVE",
"57 144.5 CURVE SMOOTH",
"44.333 176.833 OFFCURVE",
"38 212.333 OFFCURVE",
"38 251 CURVE SMOOTH",
"38 291 OFFCURVE",
"43.833 328.167 OFFCURVE",
"55.5 362.5 CURVE SMOOTH",
"67.167 396.833 OFFCURVE",
"84.333 426.5 OFFCURVE",
"107 451.5 CURVE SMOOTH",
"129.667 476.5 OFFCURVE",
"157.333 496 OFFCURVE",
"190 510 CURVE SMOOTH",
"222.667 524 OFFCURVE",
"260 531 OFFCURVE",
"302 531 CURVE SMOOTH",
"332.667 531 OFFCURVE",
"362.167 527 OFFCURVE",
"390.5 519 CURVE SMOOTH",
"418.833 511 OFFCURVE",
"444.167 498.833 OFFCURVE",
"466.5 482.5 CURVE SMOOTH",
"488.833 466.167 OFFCURVE",
"507 445.833 OFFCURVE",
"521 421.5 CURVE SMOOTH",
"535 397.167 OFFCURVE",
"543 368.333 OFFCURVE",
"545 335 CURVE",
"406 335 LINE",
"396.667 394.333 OFFCURVE",
"361.667 424 OFFCURVE",
"301 424 CURVE SMOOTH"
);
}
);
width = 574;
}
);
unicode = 0063;
},
{
glyphname = cacute;
lastChange = "2019-01-18 19:25:35 +0000";
layers = (
{
layerId = "7D8DBE61-6E0F-4C4E-A5A9-510089B62882";
paths = (
{
closed = 1;
nodes = (
"545 335 LINE",
"543 368.333 OFFCURVE",
"535 397.167 OFFCURVE",
"521 421.5 CURVE SMOOTH",
"507 445.833 OFFCURVE",
"488.833 466.167 OFFCURVE",
"466.5 482.5 CURVE SMOOTH",
"444.167 498.833 OFFCURVE",
"418.833 511 OFFCURVE",
"390.5 519 CURVE SMOOTH",
"362.167 527 OFFCURVE",
"332.667 531 OFFCURVE",
"302 531 CURVE SMOOTH",
"260 531 OFFCURVE",
"222.667 524 OFFCURVE",
"190 510 CURVE SMOOTH",
"157.333 496 OFFCURVE",
"129.667 476.5 OFFCURVE",
"107 451.5 CURVE SMOOTH",
"84.333 426.5 OFFCURVE",
"67.167 396.833 OFFCURVE",
"55.5 362.5 CURVE SMOOTH",
"43.833 328.167 OFFCURVE",
"38 291 OFFCURVE",
"38 251 CURVE SMOOTH",
"38 212.333 OFFCURVE",
"44.333 176.833 OFFCURVE",
"57 144.5 CURVE SMOOTH",
"69.667 112.167 OFFCURVE",
"87.333 84.333 OFFCURVE",
"110 61 CURVE SMOOTH",
"132.667 37.667 OFFCURVE",
"160.167 19.5 OFFCURVE",
"192.5 6.5 CURVE SMOOTH",
"224.833 -6.5 OFFCURVE",
"260.333 -13 OFFCURVE",
"299 -13 CURVE SMOOTH",
"367.667 -13 OFFCURVE",
"424 5 OFFCURVE",
"468 41 CURVE SMOOTH",
"512 77 OFFCURVE",
"538.667 129.333 OFFCURVE",
"548 198 CURVE",
"411 198 LINE",
"406.333 166 OFFCURVE",
"394.833 140.5 OFFCURVE",
"376.5 121.5 CURVE SMOOTH",
"358.167 102.5 OFFCURVE",
"332 93 OFFCURVE",
"298 93 CURVE SMOOTH",
"276 93 OFFCURVE",
"257.333 98 OFFCURVE",
"242 108 CURVE SMOOTH",
"226.667 118 OFFCURVE",
"214.5 130.833 OFFCURVE",
"205.5 146.5 CURVE SMOOTH",
"196.5 162.167 OFFCURVE",
"190 179.667 OFFCURVE",
"186 199 CURVE SMOOTH",
"182 218.333 OFFCURVE",
"180 237.333 OFFCURVE",
"180 256 CURVE SMOOTH",
"180 275.333 OFFCURVE",
"182 294.833 OFFCURVE",
"186 314.5 CURVE SMOOTH",
"190 334.167 OFFCURVE",
"196.833 352.167 OFFCURVE",
"206.5 368.5 CURVE SMOOTH",
"216.167 384.833 OFFCURVE",
"228.667 398.167 OFFCURVE",
"244 408.5 CURVE SMOOTH",
"259.333 418.833 OFFCURVE",
"278.333 424 OFFCURVE",
"301 424 CURVE SMOOTH",
"361.667 424 OFFCURVE",
"396.667 394.333 OFFCURVE",
"406 335 CURVE",
"406 335 LINE"
);
},
{
closed = 1;
nodes = (
"473 723 LINE",
"316 723 LINE",
"220 581 LINE",
"319 581 LINE"
);
}
);
width = 574;
}
);
unicode = 0107;
},
{
glyphname = ccedilla;
lastChange = "2019-01-18 19:25:35 +0000";
layers = (
{
layerId = "7D8DBE61-6E0F-4C4E-A5A9-510089B62882";
paths = (
{
closed = 1;
nodes = (
"278.333 424 OFFCURVE",
"259.333 418.833 OFFCURVE",
"244 408.5 CURVE SMOOTH",
"228.667 398.167 OFFCURVE",
"216.167 384.833 OFFCURVE",
"206.5 368.5 CURVE SMOOTH",
"196.833 352.167 OFFCURVE",
"190 334.167 OFFCURVE",
"186 314.5 CURVE SMOOTH",
"182 294.833 OFFCURVE",
"180 275.333 OFFCURVE",
"180 256 CURVE SMOOTH",
"180 237.333 OFFCURVE",
"182 218.333 OFFCURVE",
"186 199 CURVE SMOOTH",
"190 179.667 OFFCURVE",
"196.5 162.167 OFFCURVE",
"205.5 146.5 CURVE SMOOTH",
"214.5 130.833 OFFCURVE",
"226.667 118 OFFCURVE",
"242 108 CURVE SMOOTH",
"257.333 98 OFFCURVE",
"276 93 OFFCURVE",
"298 93 CURVE SMOOTH",
"332 93 OFFCURVE",
"358.167 102.5 OFFCURVE",
"376.5 121.5 CURVE SMOOTH",
"394.833 140.5 OFFCURVE",
"406.333 166 OFFCURVE",
"411 198 CURVE",
"548 198 LINE",
"539.333 131.333 OFFCURVE",
"514.167 80.167 OFFCURVE",
"472.5 44.5 CURVE SMOOTH",
"430.833 8.833 OFFCURVE",
"377 -10 OFFCURVE",
"311 -12 CURVE",
"283 -52 LINE",
"285 -52 LINE",
"293 -48.667 OFFCURVE",
"304.333 -47 OFFCURVE",
"319 -47 CURVE SMOOTH",
"330.333 -47 OFFCURVE",
"341.5 -48.333 OFFCURVE",
"352.5 -51 CURVE SMOOTH",
"363.5 -53.667 OFFCURVE",
"373.333 -57.833 OFFCURVE",
"382 -63.5 CURVE SMOOTH",
"390.667 -69.167 OFFCURVE",
"397.667 -76.5 OFFCURVE",
"403 -85.5 CURVE SMOOTH",
"408.333 -94.5 OFFCURVE",
"411 -105 OFFCURVE",
"411 -117 CURVE SMOOTH",
"411 -136.333 OFFCURVE",
"407.667 -152.5 OFFCURVE",
"401 -165.5 CURVE SMOOTH",
"394.333 -178.5 OFFCURVE",
"385.5 -188.833 OFFCURVE",
"374.5 -196.5 CURVE SMOOTH",
"363.5 -204.167 OFFCURVE",
"351 -209.5 OFFCURVE",
"337 -212.5 CURVE SMOOTH",
"323 -215.5 OFFCURVE",
"308.667 -217 OFFCURVE",
"294 -217 CURVE SMOOTH",
"278 -217 OFFCURVE",
"264.333 -216.5 OFFCURVE",
"253 -215.5 CURVE SMOOTH",
"241.667 -214.5 OFFCURVE",
"231.5 -213 OFFCURVE",
"222.5 -211 CURVE SMOOTH",
"213.5 -209 OFFCURVE",
"204.833 -206.667 OFFCURVE",
"196.5 -204 CURVE SMOOTH",
"188.167 -201.333 OFFCURVE",
"179.333 -198.333 OFFCURVE",
"170 -195 CURVE",
"191 -147 LINE",
"201.667 -151.667 OFFCURVE",
"214 -155.833 OFFCURVE",
"228 -159.5 CURVE SMOOTH",
"242 -163.167 OFFCURVE",
"257.667 -165 OFFCURVE",
"275 -165 CURVE SMOOTH",
"287 -165 OFFCURVE",
"296.667 -162.333 OFFCURVE",
"304 -157 CURVE SMOOTH",
"311.333 -151.667 OFFCURVE",
"315 -143 OFFCURVE",
"315 -131 CURVE SMOOTH",
"315 -118.333 OFFCURVE",
"311.167 -109.833 OFFCURVE",
"303.5 -105.5 CURVE SMOOTH",
"295.833 -101.167 OFFCURVE",
"286.333 -99 OFFCURVE",
"275 -99 CURVE SMOOTH",
"260.333 -99 OFFCURVE",
"247 -101.333 OFFCURVE",
"235 -106 CURVE",
"214 -82 LINE",
"264 -10 LINE",
"230 -6.667 OFFCURVE",
"199.167 2 OFFCURVE",
"171.5 16 CURVE SMOOTH",
"143.833 30 OFFCURVE",
"120 48.5 OFFCURVE",
"100 71.5 CURVE SMOOTH",
"80 94.5 OFFCURVE",
"64.667 121.167 OFFCURVE",
"54 151.5 CURVE SMOOTH",
"43.333 181.833 OFFCURVE",
"38 215 OFFCURVE",
"38 251 CURVE SMOOTH",
"38 291 OFFCURVE",
"43.833 328.167 OFFCURVE",
"55.5 362.5 CURVE SMOOTH",
"67.167 396.833 OFFCURVE",
"84.333 426.5 OFFCURVE",
"107 451.5 CURVE SMOOTH",
"129.667 476.5 OFFCURVE",
"157.333 496 OFFCURVE",
"190 510 CURVE SMOOTH",
"222.667 524 OFFCURVE",
"260 531 OFFCURVE",
"302 531 CURVE SMOOTH",
"332.667 531 OFFCURVE",
"362.167 527 OFFCURVE",
"390.5 519 CURVE SMOOTH",
"418.833 511 OFFCURVE",
"444.167 498.833 OFFCURVE",
"466.5 482.5 CURVE SMOOTH",
"488.833 466.167 OFFCURVE",
"507 445.833 OFFCURVE",
"521 421.5 CURVE SMOOTH",
"535 397.167 OFFCURVE",
"543 368.333 OFFCURVE",
"545 335 CURVE",
"406 335 LINE",
"396.667 394.333 OFFCURVE",
"361.667 424 OFFCURVE",
"301 424 CURVE SMOOTH"
);
}
);
width = 574;
}
);
unicode = 00E7;
},
{
glyphname = d;
lastChange = "2019-01-18 19:25:35 +0000";
layers = (
{
layerId = "7D8DBE61-6E0F-4C4E-A5A9-510089B62882";
paths = (
{
closed = 1;
nodes = (
"275.667 424 OFFCURVE",
"256 419.333 OFFCURVE",
"240 410 CURVE SMOOTH",
"224 400.667 OFFCURVE",
"211.167 388.333 OFFCURVE",
"201.5 373 CURVE SMOOTH",
"191.833 357.667 OFFCURVE",
"184.833 340.167 OFFCURVE",
"180.5 320.5 CURVE SMOOTH",
"176.167 300.833 OFFCURVE",
"174 280.333 OFFCURVE",
"174 259 CURVE SMOOTH",
"174 239 OFFCURVE",
"176.333 219 OFFCURVE",
"181 199 CURVE SMOOTH",
"185.667 179 OFFCURVE",
"193.167 161.167 OFFCURVE",
"203.5 145.5 CURVE SMOOTH",
"213.833 129.833 OFFCURVE",
"226.833 117.167 OFFCURVE",
"242.5 107.5 CURVE SMOOTH",
"258.167 97.833 OFFCURVE",
"277 93 OFFCURVE",
"299 93 CURVE SMOOTH",
"322.333 93 OFFCURVE",
"341.833 97.667 OFFCURVE",
"357.5 107 CURVE SMOOTH",
"373.167 116.333 OFFCURVE",
"385.667 128.833 OFFCURVE",
"395 144.5 CURVE SMOOTH",
"404.333 160.167 OFFCURVE",
"411 178 OFFCURVE",
"415 198 CURVE SMOOTH",
"419 218 OFFCURVE",
"421 238.667 OFFCURVE",
"421 260 CURVE SMOOTH",
"421 281.333 OFFCURVE",
"419 301.833 OFFCURVE",
"415 321.5 CURVE SMOOTH",
"411 341.167 OFFCURVE",
"404.167 358.5 OFFCURVE",
"394.5 373.5 CURVE SMOOTH",
"384.833 388.5 OFFCURVE",
"372.333 400.667 OFFCURVE",
"357 410 CURVE SMOOTH",
"341.667 419.333 OFFCURVE",
"322.333 424 OFFCURVE",
"299 424 CURVE SMOOTH"
);
},
{
closed = 1;
nodes = (
"404.333 38 OFFCURVE",
"382.5 17.833 OFFCURVE",
"355.5 5.5 CURVE SMOOTH",
"328.5 -6.833 OFFCURVE",
"298 -13 OFFCURVE",
"264 -13 CURVE SMOOTH",
"225.333 -13 OFFCURVE",
"191.333 -5.5 OFFCURVE",
"162 9.5 CURVE SMOOTH",
"132.667 24.5 OFFCURVE",
"108.5 44.833 OFFCURVE",
"89.5 70.5 CURVE SMOOTH",
"70.5 96.167 OFFCURVE",
"56.167 125.667 OFFCURVE",
"46.5 159 CURVE SMOOTH",
"36.833 192.333 OFFCURVE",
"32 227 OFFCURVE",
"32 263 CURVE SMOOTH",
"32 297.667 OFFCURVE",
"36.833 331.167 OFFCURVE",
"46.5 363.5 CURVE SMOOTH",
"56.167 395.833 OFFCURVE",
"70.5 424.333 OFFCURVE",
"89.5 449 CURVE SMOOTH",
"108.5 473.667 OFFCURVE",
"132.333 493.5 OFFCURVE",
"161 508.5 CURVE SMOOTH",
"189.667 523.5 OFFCURVE",
"223 531 OFFCURVE",
"261 531 CURVE SMOOTH",
"291.667 531 OFFCURVE",
"320.833 524.5 OFFCURVE",
"348.5 511.5 CURVE SMOOTH",
"376.167 498.5 OFFCURVE",
"398 479.333 OFFCURVE",
"414 454 CURVE",
"416 454 LINE",
"416 714 LINE",
"558 714 LINE",
"558 0 LINE",
"423 0 LINE",
"423 66 LINE",
"421 66 LINE"
);
}
);
width = 611;
}
);
unicode = 0064;
},
{
glyphname = eth;
lastChange = "2019-01-18 19:25:35 +0000";
layers = (
{
layerId = "7D8DBE61-6E0F-4C4E-A5A9-510089B62882";
paths = (
{
closed = 1;
nodes = (
"248 766 LINE",
"284 746 OFFCURVE",
"317 724 OFFCURVE",
"347 700 CURVE",
"470 762 LINE",
"522 703 LINE",
"408 646 LINE",
"462 594 OFFCURVE",
"503.333 538.333 OFFCURVE",
"532 479 CURVE SMOOTH",
"560.667 419.667 OFFCURVE",
"574.333 351 OFFCURVE",
"573 273 CURVE SMOOTH",
"573 231.667 OFFCURVE",
"566.667 193.5 OFFCURVE",
"554 158.5 CURVE SMOOTH",
"541.333 123.5 OFFCURVE",
"523.333 93.333 OFFCURVE",
"500 68 CURVE SMOOTH",
"476.667 42.667 OFFCURVE",
"448.5 22.833 OFFCURVE",
"415.5 8.5 CURVE SMOOTH",
"382.5 -5.833 OFFCURVE",
"345.667 -13 OFFCURVE",
"305 -13 CURVE SMOOTH",
"264.333 -13 OFFCURVE",
"227.667 -6.667 OFFCURVE",
"195 6 CURVE SMOOTH",
"162.333 18.667 OFFCURVE",
"134.333 36.5 OFFCURVE",
"111 59.5 CURVE SMOOTH",
"87.667 82.5 OFFCURVE",
"69.667 110 OFFCURVE",
"57 142 CURVE SMOOTH",
"44.333 174 OFFCURVE",
"38 209 OFFCURVE",
"38 247 CURVE SMOOTH",
"38 278.333 OFFCURVE",
"42.5 309.333 OFFCURVE",
"51.5 340 CURVE SMOOTH",
"60.5 370.667 OFFCURVE",
"74.333 398.333 OFFCURVE",
"93 423 CURVE SMOOTH",
"111.667 447.667 OFFCURVE",
"135.5 467.667 OFFCURVE",
"164.5 483 CURVE SMOOTH",
"193.5 498.333 OFFCURVE",
"228 506 OFFCURVE",
"268 506 CURVE SMOOTH",
"287.333 506 OFFCURVE",
"308.833 503.333 OFFCURVE",
"332.5 498 CURVE SMOOTH",
"356.167 492.667 OFFCURVE",
"379.667 482 OFFCURVE",
"403 466 CURVE",
"405 466 LINE",
"393 494 OFFCURVE",
"377.167 518.5 OFFCURVE",
"357.5 539.5 CURVE SMOOTH",
"337.833 560.5 OFFCURVE",
"319.667 578.333 OFFCURVE",
"303 593 CURVE",
"191 537 LINE",
"133 593 LINE",
"240 647 LINE",
"225.333 657.667 OFFCURVE",
"211 667 OFFCURVE",
"197 675 CURVE SMOOTH",
"183 683 OFFCURVE",
"169.333 690.333 OFFCURVE",
"156 697 CURVE"
);
},
{
closed = 1;
nodes = (
"431 276.667 OFFCURVE",
"428.667 295.167 OFFCURVE",
"424 313.5 CURVE SMOOTH",
"419.333 331.833 OFFCURVE",
"412 348.167 OFFCURVE",
"402 362.5 CURVE SMOOTH",
"392 376.833 OFFCURVE",
"379 388.5 OFFCURVE",
"363 397.5 CURVE SMOOTH",
"347 406.5 OFFCURVE",
"327.333 411 OFFCURVE",
"304 411 CURVE SMOOTH",
"281.333 411 OFFCURVE",
"262 406.5 OFFCURVE",
"246 397.5 CURVE SMOOTH",
"230 388.5 OFFCURVE",
"217.167 376.667 OFFCURVE",
"207.5 362 CURVE SMOOTH",
"197.833 347.333 OFFCURVE",
"190.833 330.833 OFFCURVE",
"186.5 312.5 CURVE SMOOTH",
"182.167 294.167 OFFCURVE",
"180 276 OFFCURVE",
"180 258 CURVE SMOOTH",
"180 237.333 OFFCURVE",
"182 217.167 OFFCURVE",
"186 197.5 CURVE SMOOTH",
"190 177.833 OFFCURVE",
"196.833 160.167 OFFCURVE",
"206.5 144.5 CURVE SMOOTH",
"216.167 128.833 OFFCURVE",
"229 116.333 OFFCURVE",
"245 107 CURVE SMOOTH",
"261 97.667 OFFCURVE",
"281 93 OFFCURVE",
"305 93 CURVE SMOOTH",
"329 93 OFFCURVE",
"349.167 97.667 OFFCURVE",
"365.5 107 CURVE SMOOTH",
"381.833 116.333 OFFCURVE",
"394.833 128.833 OFFCURVE",
"404.5 144.5 CURVE SMOOTH",
"414.167 160.167 OFFCURVE",
"421 177.833 OFFCURVE",
"425 197.5 CURVE SMOOTH",
"429 217.167 OFFCURVE",
"431 237.333 OFFCURVE",
"431 258 CURVE SMOOTH"
);
}
);
width = 611;
}
);
unicode = 00F0;
},
{
glyphname = e;
lastChange = "2019-01-18 19:25:35 +0000";
layers = (
{
layerId = "7D8DBE61-6E0F-4C4E-A5A9-510089B62882";
paths = (
{
closed = 1;
nodes = (
"266.333 424 OFFCURVE",
"247.5 420.167 OFFCURVE",
"232.5 412.5 CURVE SMOOTH",
"217.5 404.833 OFFCURVE",
"205.5 395.333 OFFCURVE",
"196.5 384 CURVE SMOOTH",
"187.5 372.667 OFFCURVE",
"181.167 360.667 OFFCURVE",
"177.5 348 CURVE SMOOTH",
"173.833 335.333 OFFCURVE",
"171.667 324 OFFCURVE",
"171 314 CURVE",
"402 314 LINE",
"395.333 350 OFFCURVE",
"383.5 377.333 OFFCURVE",
"366.5 396 CURVE SMOOTH",
"349.5 414.667 OFFCURVE",
"323.667 424 OFFCURVE",
"289 424 CURVE SMOOTH"
);
},
{
closed = 1;
nodes = (
"326.667 93 OFFCURVE",
"351.333 100.167 OFFCURVE",
"372 114.5 CURVE SMOOTH",
"392.667 128.833 OFFCURVE",
"405.333 144 OFFCURVE",
"410 160 CURVE",
"535 160 LINE",
"515 98 OFFCURVE",
"484.333 53.667 OFFCURVE",
"443 27 CURVE SMOOTH",
"401.667 0.333 OFFCURVE",
"351.667 -13 OFFCURVE",
"293 -13 CURVE SMOOTH",
"252.333 -13 OFFCURVE",
"215.667 -6.5 OFFCURVE",
"183 6.5 CURVE SMOOTH",
"150.333 19.5 OFFCURVE",
"122.667 38 OFFCURVE",
"100 62 CURVE SMOOTH",
"77.333 86 OFFCURVE",
"59.833 114.667 OFFCURVE",
"47.5 148 CURVE SMOOTH",
"35.167 181.333 OFFCURVE",
"29 218 OFFCURVE",
"29 258 CURVE SMOOTH",
"29 296.667 OFFCURVE",
"35.333 332.667 OFFCURVE",
"48 366 CURVE SMOOTH",
"60.667 399.333 OFFCURVE",
"78.667 428.167 OFFCURVE",
"102 452.5 CURVE SMOOTH",
"125.333 476.833 OFFCURVE",
"153.167 496 OFFCURVE",
"185.5 510 CURVE SMOOTH",
"217.833 524 OFFCURVE",
"253.667 531 OFFCURVE",
"293 531 CURVE SMOOTH",
"337 531 OFFCURVE",
"375.333 522.5 OFFCURVE",
"408 505.5 CURVE SMOOTH",
"440.667 488.5 OFFCURVE",
"467.5 465.667 OFFCURVE",
"488.5 437 CURVE SMOOTH",
"509.5 408.333 OFFCURVE",
"524.667 375.667 OFFCURVE",
"534 339 CURVE SMOOTH",
"543.333 302.333 OFFCURVE",
"546.667 264 OFFCURVE",
"544 224 CURVE",
"171 224 LINE",
"173 178 OFFCURVE",
"184.667 144.667 OFFCURVE",
"206 124 CURVE SMOOTH",
"227.333 103.333 OFFCURVE",
"258 93 OFFCURVE",
"298 93 CURVE SMOOTH"
);
}
);
width = 574;
}
);
unicode = 0065;
},
{
glyphname = eacute;
lastChange = "2019-01-18 19:25:35 +0000";
layers = (
{
layerId = "7D8DBE61-6E0F-4C4E-A5A9-510089B62882";
paths = (
{
closed = 1;
nodes = (
"308 723 LINE",
"465 723 LINE",
"311 581 LINE",
"212 581 LINE"
);
},
{
closed = 1;
nodes = (
"266.333 424 OFFCURVE",
"247.5 420.167 OFFCURVE",
"232.5 412.5 CURVE SMOOTH",
"217.5 404.833 OFFCURVE",
"205.5 395.333 OFFCURVE",
"196.5 384 CURVE SMOOTH",
"187.5 372.667 OFFCURVE",
"181.167 360.667 OFFCURVE",
"177.5 348 CURVE SMOOTH",
"173.833 335.333 OFFCURVE",
"171.667 324 OFFCURVE",
"171 314 CURVE",
"402 314 LINE",
"395.333 350 OFFCURVE",
"383.5 377.333 OFFCURVE",
"366.5 396 CURVE SMOOTH",
"349.5 414.667 OFFCURVE",
"323.667 424 OFFCURVE",
"289 424 CURVE SMOOTH"
);
},
{
closed = 1;
nodes = (
"326.667 93 OFFCURVE",
"351.333 100.167 OFFCURVE",
"372 114.5 CURVE SMOOTH",
"392.667 128.833 OFFCURVE",
"405.333 144 OFFCURVE",
"410 160 CURVE",
"535 160 LINE",
"515 98 OFFCURVE",
"484.333 53.667 OFFCURVE",
"443 27 CURVE SMOOTH",
"401.667 0.333 OFFCURVE",
"351.667 -13 OFFCURVE",
"293 -13 CURVE SMOOTH",
"252.333 -13 OFFCURVE",
"215.667 -6.5 OFFCURVE",
"183 6.5 CURVE SMOOTH",
"150.333 19.5 OFFCURVE",
"122.667 38 OFFCURVE",
"100 62 CURVE SMOOTH",
"77.333 86 OFFCURVE",
"59.833 114.667 OFFCURVE",
"47.5 148 CURVE SMOOTH",
"35.167 181.333 OFFCURVE",
"29 218 OFFCURVE",
"29 258 CURVE SMOOTH",
"29 296.667 OFFCURVE",
"35.333 332.667 OFFCURVE",
"48 366 CURVE SMOOTH",
"60.667 399.333 OFFCURVE",
"78.667 428.167 OFFCURVE",
"102 452.5 CURVE SMOOTH",
"125.333 476.833 OFFCURVE",
"153.167 496 OFFCURVE",
"185.5 510 CURVE SMOOTH",
"217.833 524 OFFCURVE",
"253.667 531 OFFCURVE",
"293 531 CURVE SMOOTH",
"337 531 OFFCURVE",
"375.333 522.5 OFFCURVE",
"408 505.5 CURVE SMOOTH",
"440.667 488.5 OFFCURVE",
"467.5 465.667 OFFCURVE",
"488.5 437 CURVE SMOOTH",
"509.5 408.333 OFFCURVE",
"524.667 375.667 OFFCURVE",
"534 339 CURVE SMOOTH",
"543.333 302.333 OFFCURVE",
"546.667 264 OFFCURVE",
"544 224 CURVE",
"171 224 LINE",
"173 178 OFFCURVE",
"184.667 144.667 OFFCURVE",
"206 124 CURVE SMOOTH",
"227.333 103.333 OFFCURVE",
"258 93 OFFCURVE",
"298 93 CURVE SMOOTH"
);
}
);
width = 574;
}
);
unicode = 00E9;
},
{
glyphname = ecircumflex;
lastChange = "2019-01-18 19:25:35 +0000";
layers = (
{
layerId = "7D8DBE61-6E0F-4C4E-A5A9-510089B62882";
paths = (
{
closed = 1;
nodes = (
"463 581 LINE",
"346 581 LINE",
"284 662 LINE",
"220 581 LINE",
"112 581 LINE",
"223 723 LINE",
"353 723 LINE"
);
},
{
closed = 1;
nodes = (
"266.333 424 OFFCURVE",
"247.5 420.167 OFFCURVE",
"232.5 412.5 CURVE SMOOTH",
"217.5 404.833 OFFCURVE",
"205.5 395.333 OFFCURVE",
"196.5 384 CURVE SMOOTH",
"187.5 372.667 OFFCURVE",
"181.167 360.667 OFFCURVE",
"177.5 348 CURVE SMOOTH",
"173.833 335.333 OFFCURVE",
"171.667 324 OFFCURVE",
"171 314 CURVE",
"402 314 LINE",
"395.333 350 OFFCURVE",
"383.5 377.333 OFFCURVE",
"366.5 396 CURVE SMOOTH",
"349.5 414.667 OFFCURVE",
"323.667 424 OFFCURVE",
"289 424 CURVE SMOOTH"
);
},
{
closed = 1;
nodes = (
"326.667 93 OFFCURVE",
"351.333 100.167 OFFCURVE",
"372 114.5 CURVE SMOOTH",
"392.667 128.833 OFFCURVE",
"405.333 144 OFFCURVE",
"410 160 CURVE",
"535 160 LINE",
"515 98 OFFCURVE",
"484.333 53.667 OFFCURVE",
"443 27 CURVE SMOOTH",
"401.667 0.333 OFFCURVE",
"351.667 -13 OFFCURVE",
"293 -13 CURVE SMOOTH",
"252.333 -13 OFFCURVE",
"215.667 -6.5 OFFCURVE",
"183 6.5 CURVE SMOOTH",
"150.333 19.5 OFFCURVE",
"122.667 38 OFFCURVE",
"100 62 CURVE SMOOTH",
"77.333 86 OFFCURVE",
"59.833 114.667 OFFCURVE",
"47.5 148 CURVE SMOOTH",
"35.167 181.333 OFFCURVE",
"29 218 OFFCURVE",
"29 258 CURVE SMOOTH",
"29 296.667 OFFCURVE",
"35.333 332.667 OFFCURVE",
"48 366 CURVE SMOOTH",
"60.667 399.333 OFFCURVE",
"78.667 428.167 OFFCURVE",
"102 452.5 CURVE SMOOTH",
"125.333 476.833 OFFCURVE",
"153.167 496 OFFCURVE",
"185.5 510 CURVE SMOOTH",
"217.833 524 OFFCURVE",
"253.667 531 OFFCURVE",
"293 531 CURVE SMOOTH",
"337 531 OFFCURVE",
"375.333 522.5 OFFCURVE",
"408 505.5 CURVE SMOOTH",
"440.667 488.5 OFFCURVE",
"467.5 465.667 OFFCURVE",
"488.5 437 CURVE SMOOTH",
"509.5 408.333 OFFCURVE",
"524.667 375.667 OFFCURVE",
"534 339 CURVE SMOOTH",
"543.333 302.333 OFFCURVE",
"546.667 264 OFFCURVE",
"544 224 CURVE",
"171 224 LINE",
"173 178 OFFCURVE",
"184.667 144.667 OFFCURVE",
"206 124 CURVE SMOOTH",
"227.333 103.333 OFFCURVE",
"258 93 OFFCURVE",
"298 93 CURVE SMOOTH"
);
}
);
width = 574;
}
);
unicode = 00EA;
},
{
glyphname = edieresis;
lastChange = "2019-01-18 19:25:35 +0000";
layers = (
{
layerId = "7D8DBE61-6E0F-4C4E-A5A9-510089B62882";
paths = (
{
closed = 1;
nodes = (
"252 597 LINE",
"117 597 LINE",
"117 714 LINE",
"252 714 LINE"
);
},
{
closed = 1;
nodes = (
"458 597 LINE",
"323 597 LINE",
"323 714 LINE",
"458 714 LINE"
);
},
{
closed = 1;
nodes = (
"266.333 424 OFFCURVE",
"247.5 420.167 OFFCURVE",
"232.5 412.5 CURVE SMOOTH",
"217.5 404.833 OFFCURVE",
"205.5 395.333 OFFCURVE",
"196.5 384 CURVE SMOOTH",
"187.5 372.667 OFFCURVE",
"181.167 360.667 OFFCURVE",
"177.5 348 CURVE SMOOTH",
"173.833 335.333 OFFCURVE",
"171.667 324 OFFCURVE",
"171 314 CURVE",
"402 314 LINE",
"395.333 350 OFFCURVE",
"383.5 377.333 OFFCURVE",
"366.5 396 CURVE SMOOTH",
"349.5 414.667 OFFCURVE",
"323.667 424 OFFCURVE",
"289 424 CURVE SMOOTH"
);
},
{
closed = 1;
nodes = (
"326.667 93 OFFCURVE",
"351.333 100.167 OFFCURVE",
"372 114.5 CURVE SMOOTH",
"392.667 128.833 OFFCURVE",
"405.333 144 OFFCURVE",
"410 160 CURVE",
"535 160 LINE",
"515 98 OFFCURVE",
"484.333 53.667 OFFCURVE",
"443 27 CURVE SMOOTH",
"401.667 0.333 OFFCURVE",
"351.667 -13 OFFCURVE",
"293 -13 CURVE SMOOTH",
"252.333 -13 OFFCURVE",
"215.667 -6.5 OFFCURVE",
"183 6.5 CURVE SMOOTH",
"150.333 19.5 OFFCURVE",
"122.667 38 OFFCURVE",
"100 62 CURVE SMOOTH",
"77.333 86 OFFCURVE",
"59.833 114.667 OFFCURVE",
"47.5 148 CURVE SMOOTH",
"35.167 181.333 OFFCURVE",
"29 218 OFFCURVE",
"29 258 CURVE SMOOTH",
"29 296.667 OFFCURVE",
"35.333 332.667 OFFCURVE",
"48 366 CURVE SMOOTH",
"60.667 399.333 OFFCURVE",
"78.667 428.167 OFFCURVE",
"102 452.5 CURVE SMOOTH",
"125.333 476.833 OFFCURVE",
"153.167 496 OFFCURVE",
"185.5 510 CURVE SMOOTH",
"217.833 524 OFFCURVE",
"253.667 531 OFFCURVE",
"293 531 CURVE SMOOTH",
"337 531 OFFCURVE",
"375.333 522.5 OFFCURVE",
"408 505.5 CURVE SMOOTH",
"440.667 488.5 OFFCURVE",
"467.5 465.667 OFFCURVE",
"488.5 437 CURVE SMOOTH",
"509.5 408.333 OFFCURVE",
"524.667 375.667 OFFCURVE",
"534 339 CURVE SMOOTH",
"543.333 302.333 OFFCURVE",
"546.667 264 OFFCURVE",
"544 224 CURVE",
"171 224 LINE",
"173 178 OFFCURVE",
"184.667 144.667 OFFCURVE",
"206 124 CURVE SMOOTH",
"227.333 103.333 OFFCURVE",
"258 93 OFFCURVE",
"298 93 CURVE SMOOTH"
);
}
);
width = 574;
}
);
unicode = 00EB;
},
{
glyphname = egrave;
lastChange = "2019-01-18 19:25:35 +0000";
layers = (
{
layerId = "7D8DBE61-6E0F-4C4E-A5A9-510089B62882";
paths = (
{
closed = 1;
nodes = (
"363 581 LINE",
"264 581 LINE",
"110 723 LINE",
"267 723 LINE"
);
},
{
closed = 1;
nodes = (
"266.333 424 OFFCURVE",
"247.5 420.167 OFFCURVE",
"232.5 412.5 CURVE SMOOTH",
"217.5 404.833 OFFCURVE",
"205.5 395.333 OFFCURVE",
"196.5 384 CURVE SMOOTH",
"187.5 372.667 OFFCURVE",
"181.167 360.667 OFFCURVE",
"177.5 348 CURVE SMOOTH",
"173.833 335.333 OFFCURVE",
"171.667 324 OFFCURVE",
"171 314 CURVE",
"402 314 LINE",
"395.333 350 OFFCURVE",
"383.5 377.333 OFFCURVE",
"366.5 396 CURVE SMOOTH",
"349.5 414.667 OFFCURVE",
"323.667 424 OFFCURVE",
"289 424 CURVE SMOOTH"
);
},
{
closed = 1;
nodes = (
"326.667 93 OFFCURVE",
"351.333 100.167 OFFCURVE",
"372 114.5 CURVE SMOOTH",
"392.667 128.833 OFFCURVE",
"405.333 144 OFFCURVE",
"410 160 CURVE",
"535 160 LINE",
"515 98 OFFCURVE",
"484.333 53.667 OFFCURVE",
"443 27 CURVE SMOOTH",
"401.667 0.333 OFFCURVE",
"351.667 -13 OFFCURVE",
"293 -13 CURVE SMOOTH",
"252.333 -13 OFFCURVE",
"215.667 -6.5 OFFCURVE",
"183 6.5 CURVE SMOOTH",
"150.333 19.5 OFFCURVE",
"122.667 38 OFFCURVE",
"100 62 CURVE SMOOTH",
"77.333 86 OFFCURVE",
"59.833 114.667 OFFCURVE",
"47.5 148 CURVE SMOOTH",
"35.167 181.333 OFFCURVE",
"29 218 OFFCURVE",
"29 258 CURVE SMOOTH",
"29 296.667 OFFCURVE",
"35.333 332.667 OFFCURVE",
"48 366 CURVE SMOOTH",
"60.667 399.333 OFFCURVE",
"78.667 428.167 OFFCURVE",
"102 452.5 CURVE SMOOTH",
"125.333 476.833 OFFCURVE",
"153.167 496 OFFCURVE",
"185.5 510 CURVE SMOOTH",
"217.833 524 OFFCURVE",
"253.667 531 OFFCURVE",
"293 531 CURVE SMOOTH",
"337 531 OFFCURVE",
"375.333 522.5 OFFCURVE",
"408 505.5 CURVE SMOOTH",
"440.667 488.5 OFFCURVE",
"467.5 465.667 OFFCURVE",
"488.5 437 CURVE SMOOTH",
"509.5 408.333 OFFCURVE",
"524.667 375.667 OFFCURVE",
"534 339 CURVE SMOOTH",
"543.333 302.333 OFFCURVE",
"546.667 264 OFFCURVE",
"544 224 CURVE",
"171 224 LINE",
"173 178 OFFCURVE",
"184.667 144.667 OFFCURVE",
"206 124 CURVE SMOOTH",
"227.333 103.333 OFFCURVE",
"258 93 OFFCURVE",
"298 93 CURVE SMOOTH"
);
}
);
width = 574;
}
);
unicode = 00E8;
},
{
glyphname = eogonek;
lastChange = "2019-01-18 19:25:35 +0000";
layers = (
{
layerId = "7D8DBE61-6E0F-4C4E-A5A9-510089B62882";
paths = (
{
closed = 1;
nodes = (
"363 -127 LINE",
"353.667 -139.667 OFFCURVE",
"344.333 -147.833 OFFCURVE",
"335 -151.5 CURVE SMOOTH",
"325.667 -155.167 OFFCURVE",
"315.667 -157 OFFCURVE",
"305 -157 CURVE SMOOTH",
"295 -157 OFFCURVE",
"286 -153.833 OFFCURVE",
"278 -147.5 CURVE SMOOTH",
"270 -141.167 OFFCURVE",
"266 -133 OFFCURVE",
"266 -123 CURVE SMOOTH",
"266 -105.667 OFFCURVE",
"271.667 -87.333 OFFCURVE",
"283 -68 CURVE SMOOTH",
"293 -52 OFFCURVE",
"310 -32.667 OFFCURVE",
"334 -10 CURVE",
"375.333 -5.333 OFFCURVE",
"411.667 7 OFFCURVE",
"443 27 CURVE SMOOTH",
"484.333 53.667 OFFCURVE",
"515 98 OFFCURVE",
"535 160 CURVE",
"410 160 LINE",
"405.333 144 OFFCURVE",
"392.667 128.833 OFFCURVE",
"372 114.5 CURVE SMOOTH",
"351.333 100.167 OFFCURVE",
"326.667 93 OFFCURVE",
"298 93 CURVE SMOOTH",
"258 93 OFFCURVE",
"227.333 103.333 OFFCURVE",
"206 124 CURVE SMOOTH",
"184.667 144.667 OFFCURVE",
"173 178 OFFCURVE",
"171 224 CURVE",
"544 224 LINE",
"546.667 264 OFFCURVE",
"543.333 302.333 OFFCURVE",
"534 339 CURVE SMOOTH",
"524.667 375.667 OFFCURVE",
"509.5 408.333 OFFCURVE",
"488.5 437 CURVE SMOOTH",
"467.5 465.667 OFFCURVE",
"440.667 488.5 OFFCURVE",
"408 505.5 CURVE SMOOTH",
"375.333 522.5 OFFCURVE",
"337 531 OFFCURVE",
"293 531 CURVE SMOOTH",
"253.667 531 OFFCURVE",
"217.833 524 OFFCURVE",
"185.5 510 CURVE SMOOTH",
"153.167 496 OFFCURVE",
"125.333 476.833 OFFCURVE",
"102 452.5 CURVE SMOOTH",
"78.667 428.167 OFFCURVE",
"60.667 399.333 OFFCURVE",
"48 366 CURVE SMOOTH",
"35.333 332.667 OFFCURVE",
"29 296.667 OFFCURVE",
"29 258 CURVE SMOOTH",
"29 218 OFFCURVE",
"35.167 181.333 OFFCURVE",
"47.5 148 CURVE SMOOTH",
"59.833 114.667 OFFCURVE",
"77.333 86 OFFCURVE",
"100 62 CURVE SMOOTH",
"122.667 38 OFFCURVE",
"150.333 19.333 OFFCURVE",
"183 6 CURVE SMOOTH",
"206.333 -2.667 OFFCURVE",
"231.667 -8.333 OFFCURVE",
"259 -11 CURVE",
"243 -21.667 OFFCURVE",
"229.667 -32 OFFCURVE",
"219 -42 CURVE SMOOTH",
"203.667 -56 OFFCURVE",
"192.333 -68.5 OFFCURVE",
"185 -79.5 CURVE SMOOTH",
"177.667 -90.5 OFFCURVE",
"173.333 -100 OFFCURVE",
"172 -108 CURVE SMOOTH",
"170.667 -116 OFFCURVE",
"170 -122.333 OFFCURVE",
"170 -127 CURVE SMOOTH",
"170 -148.333 OFFCURVE",
"174.333 -165 OFFCURVE",
"183 -177 CURVE SMOOTH",
"191.667 -189 OFFCURVE",
"202 -198 OFFCURVE",
"214 -204 CURVE SMOOTH",
"226 -210 OFFCURVE",
"238 -213.667 OFFCURVE",
"250 -215 CURVE SMOOTH",
"262 -216.333 OFFCURVE",
"271 -217 OFFCURVE",
"277 -217 CURVE SMOOTH",
"299.667 -217 OFFCURVE",
"322.667 -212 OFFCURVE",
"346 -202 CURVE SMOOTH",
"369.333 -192 OFFCURVE",
"391 -174.333 OFFCURVE",
"411 -149 CURVE"
);
},
{
closed = 1;
nodes = (
"171.667 324 OFFCURVE",
"173.833 335.333 OFFCURVE",
"177.5 348 CURVE SMOOTH",
"181.167 360.667 OFFCURVE",
"187.5 372.667 OFFCURVE",
"196.5 384 CURVE SMOOTH",
"205.5 395.333 OFFCURVE",
"217.5 404.833 OFFCURVE",
"232.5 412.5 CURVE SMOOTH",
"247.5 420.167 OFFCURVE",
"266.333 424 OFFCURVE",
"289 424 CURVE SMOOTH",
"323.667 424 OFFCURVE",
"349.5 414.667 OFFCURVE",
"366.5 396 CURVE SMOOTH",
"383.5 377.333 OFFCURVE",
"395.333 350 OFFCURVE",
"402 314 CURVE",
"171 314 LINE"
);
}
);
width = 574;
}
);
unicode = 0119;
},
{
glyphname = schwa;
lastChange = "2019-01-18 19:25:35 +0000";
layers = (
{
layerId = "7D8DBE61-6E0F-4C4E-A5A9-510089B62882";
paths = (
{
closed = 1;
nodes = (
"545 300 OFFCURVE",
"538.833 336.667 OFFCURVE",
"526.5 370 CURVE SMOOTH",
"514.167 403.333 OFFCURVE",
"496.667 432 OFFCURVE",
"474 456 CURVE SMOOTH",
"451.333 480 OFFCURVE",
"423.667 498.5 OFFCURVE",
"391 511.5 CURVE SMOOTH",
"358.333 524.5 OFFCURVE",
"321.667 531 OFFCURVE",
"281 531 CURVE SMOOTH",
"222.333 531 OFFCURVE",
"172.333 517.667 OFFCURVE",
"131 491 CURVE SMOOTH",
"89.667 464.333 OFFCURVE",
"59 420 OFFCURVE",
"39 358 CURVE",
"164 358 LINE",
"168.667 374 OFFCURVE",
"181.333 389.167 OFFCURVE",
"202 403.5 CURVE SMOOTH",
"222.667 417.833 OFFCURVE",
"247.333 425 OFFCURVE",
"276 425 CURVE SMOOTH",
"316 425 OFFCURVE",
"346.667 414.667 OFFCURVE",
"368 394 CURVE SMOOTH",
"389.333 373.333 OFFCURVE",
"401 340 OFFCURVE",
"403 294 CURVE",
"30 294 LINE",
"27.333 254 OFFCURVE",
"30.667 215.667 OFFCURVE",
"40 179 CURVE SMOOTH",
"49.333 142.333 OFFCURVE",
"64.5 109.667 OFFCURVE",
"85.5 81 CURVE SMOOTH",
"106.5 52.333 OFFCURVE",
"133.333 29.5 OFFCURVE",
"166 12.5 CURVE SMOOTH",
"198.667 -4.5 OFFCURVE",
"237 -13 OFFCURVE",
"281 -13 CURVE SMOOTH",
"320.333 -13 OFFCURVE",
"356.167 -6 OFFCURVE",
"388.5 8 CURVE SMOOTH",
"420.833 22 OFFCURVE",
"448.667 41.167 OFFCURVE",
"472 65.5 CURVE SMOOTH",
"495.333 89.833 OFFCURVE",
"513.333 118.667 OFFCURVE",
"526 152 CURVE SMOOTH",
"538.667 185.333 OFFCURVE",
"545 221.333 OFFCURVE",
"545 260 CURVE SMOOTH"
);
},
{
closed = 1;
nodes = (
"403 204 LINE",
"402.333 194 OFFCURVE",
"400.167 182.667 OFFCURVE",
"396.5 170 CURVE SMOOTH",
"392.833 157.333 OFFCURVE",
"386.5 145.333 OFFCURVE",
"377.5 134 CURVE SMOOTH",
"368.5 122.667 OFFCURVE",
"356.5 113.167 OFFCURVE",
"341.5 105.5 CURVE SMOOTH",
"326.5 97.833 OFFCURVE",
"307.667 94 OFFCURVE",
"285 94 CURVE SMOOTH",
"250.333 94 OFFCURVE",
"224.5 103.333 OFFCURVE",
"207.5 122 CURVE SMOOTH",
"190.5 140.667 OFFCURVE",
"178.667 168 OFFCURVE",
"172 204 CURVE"
);
}
);
width = 574;
}
);
note = uni0259;
unicode = 0259;
},
{
glyphname = f;
lastChange = "2019-01-18 19:25:35 +0000";
layers = (
{
layerId = "7D8DBE61-6E0F-4C4E-A5A9-510089B62882";
paths = (
{
closed = 1;
nodes = (
"0 517 LINE",
"85 517 LINE",
"85 557 LINE SMOOTH",
"85 603 OFFCURVE",
"99.333 640.667 OFFCURVE",
"128 670 CURVE SMOOTH",
"156.667 699.333 OFFCURVE",
"200 714 OFFCURVE",
"258 714 CURVE SMOOTH",
"270.667 714 OFFCURVE",
"283.333 713.5 OFFCURVE",
"296 712.5 CURVE SMOOTH",
"308.667 711.5 OFFCURVE",
"321 710.667 OFFCURVE",
"333 710 CURVE",
"333 604 LINE",
"316.333 606 OFFCURVE",
"299 607 OFFCURVE",
"281 607 CURVE SMOOTH",
"261.667 607 OFFCURVE",
"247.833 602.5 OFFCURVE",
"239.5 593.5 CURVE SMOOTH",
"231.167 584.5 OFFCURVE",
"227 569.333 OFFCURVE",
"227 548 CURVE SMOOTH",
"227 517 LINE",
"325 517 LINE",
"325 422 LINE",
"227 422 LINE",
"227 0 LINE",
"85 0 LINE",
"85 422 LINE",
"0 422 LINE"
);
}
);
width = 333;
}
);
unicode = 0066;
},
{
glyphname = g;
lastChange = "2019-01-18 19:25:35 +0000";
layers = (
{
layerId = "7D8DBE61-6E0F-4C4E-A5A9-510089B62882";
paths = (
{
closed = 1;
nodes = (
"416 286.333 OFFCURVE",
"414 306.5 OFFCURVE",
"410 325.5 CURVE SMOOTH",
"406 344.5 OFFCURVE",
"399.333 361.333 OFFCURVE",
"390 376 CURVE SMOOTH",
"380.667 390.667 OFFCURVE",
"368.333 402.333 OFFCURVE",
"353 411 CURVE SMOOTH",
"337.667 419.667 OFFCURVE",
"318.333 424 OFFCURVE",
"295 424 CURVE SMOOTH",
"275 424 OFFCURVE",
"257.833 420 OFFCURVE",
"243.5 412 CURVE SMOOTH",
"229.167 404 OFFCURVE",
"217.167 393.167 OFFCURVE",
"207.5 379.5 CURVE SMOOTH",
"197.833 365.833 OFFCURVE",
"190.833 350.167 OFFCURVE",
"186.5 332.5 CURVE SMOOTH",
"182.167 314.833 OFFCURVE",
"180 296.333 OFFCURVE",
"180 277 CURVE SMOOTH",
"180 258.333 OFFCURVE",
"181.833 239.833 OFFCURVE",
"185.5 221.5 CURVE SMOOTH",
"189.167 203.167 OFFCURVE",
"195.5 186.667 OFFCURVE",
"204.5 172 CURVE SMOOTH",
"213.5 157.333 OFFCURVE",
"225.333 145.333 OFFCURVE",
"240 136 CURVE SMOOTH",
"254.667 126.667 OFFCURVE",
"273 122 OFFCURVE",
"295 122 CURVE SMOOTH",
"315 122 OFFCURVE",
"332.667 126 OFFCURVE",
"348 134 CURVE SMOOTH",
"363.333 142 OFFCURVE",
"376 152.667 OFFCURVE",
"386 166 CURVE SMOOTH",
"396 179.333 OFFCURVE",
"403.5 194.5 OFFCURVE",
"408.5 211.5 CURVE SMOOTH",
"413.5 228.5 OFFCURVE",
"416 246.333 OFFCURVE",
"416 265 CURVE SMOOTH"
);
},
{
closed = 1;
nodes = (
"257.667 -195 OFFCURVE",
"231.833 -191.833 OFFCURVE",
"205.5 -185.5 CURVE SMOOTH",
"179.167 -179.167 OFFCURVE",
"155.167 -169.333 OFFCURVE",
"133.5 -156 CURVE SMOOTH",
"111.833 -142.667 OFFCURVE",
"93.833 -125.5 OFFCURVE",
"79.5 -104.5 CURVE SMOOTH",
"65.167 -83.5 OFFCURVE",
"57 -58.333 OFFCURVE",
"55 -29 CURVE",
"196 -29 LINE",
"202.667 -55.667 OFFCURVE",
"215.667 -74.167 OFFCURVE",
"235 -84.5 CURVE SMOOTH",
"254.333 -94.833 OFFCURVE",
"276.667 -100 OFFCURVE",
"302 -100 CURVE SMOOTH",
"342 -100 OFFCURVE",
"371.167 -88 OFFCURVE",
"389.5 -64 CURVE SMOOTH",
"407.833 -40 OFFCURVE",
"416.667 -9.667 OFFCURVE",
"416 27 CURVE",
"416 95 LINE",
"414 95 LINE",
"398.667 67.667 OFFCURVE",
"376.833 47.5 OFFCURVE",
"348.5 34.5 CURVE SMOOTH",
"320.167 21.5 OFFCURVE",
"290.333 15 OFFCURVE",
"259 15 CURVE SMOOTH",
"220.333 15 OFFCURVE",
"187 21.833 OFFCURVE",
"159 35.5 CURVE SMOOTH",
"131 49.167 OFFCURVE",
"108 67.833 OFFCURVE",
"90 91.5 CURVE SMOOTH",
"72 115.167 OFFCURVE",
"58.833 142.833 OFFCURVE",
"50.5 174.5 CURVE SMOOTH",
"42.167 206.167 OFFCURVE",
"38 239.667 OFFCURVE",
"38 275 CURVE SMOOTH",
"38 308.333 OFFCURVE",
"42.833 340.5 OFFCURVE",
"52.5 371.5 CURVE SMOOTH",
"62.167 402.5 OFFCURVE",
"76.333 429.833 OFFCURVE",
"95 453.5 CURVE SMOOTH",
"113.667 477.167 OFFCURVE",
"136.833 496 OFFCURVE",
"164.5 510 CURVE SMOOTH",
"192.167 524 OFFCURVE",
"224 531 OFFCURVE",
"260 531 CURVE SMOOTH",
"294 531 OFFCURVE",
"323.833 524.667 OFFCURVE",
"349.5 512 CURVE SMOOTH",
"375.167 499.333 OFFCURVE",
"396.667 478 OFFCURVE",
"414 448 CURVE",
"416 448 LINE",
"416 517 LINE",
"551 517 LINE",
"551 33 LINE SMOOTH",
"551 12.333 OFFCURVE",
"548.167 -11.333 OFFCURVE",
"542.5 -38 CURVE SMOOTH",
"536.833 -64.667 OFFCURVE",
"524.667 -89.5 OFFCURVE",
"506 -112.5 CURVE SMOOTH",
"487.333 -135.5 OFFCURVE",
"460.333 -155 OFFCURVE",
"425 -171 CURVE SMOOTH",
"389.667 -187 OFFCURVE",
"342.333 -195 OFFCURVE",
"283 -195 CURVE SMOOTH"
);
}
);
width = 611;
}
);
unicode = 0067;
},
{
glyphname = h;
lastChange = "2019-01-18 19:25:35 +0000";
layers = (
{
layerId = "7D8DBE61-6E0F-4C4E-A5A9-510089B62882";
paths = (
{
closed = 1;
nodes = (
"196 445 LINE",
"199 445 LINE",
"217 475 OFFCURVE",
"240 496.833 OFFCURVE",
"268 510.5 CURVE SMOOTH",
"296 524.167 OFFCURVE",
"323.333 531 OFFCURVE",
"350 531 CURVE SMOOTH",
"388 531 OFFCURVE",
"419.167 525.833 OFFCURVE",
"443.5 515.5 CURVE SMOOTH",
"467.833 505.167 OFFCURVE",
"487 490.833 OFFCURVE",
"501 472.5 CURVE SMOOTH",
"515 454.167 OFFCURVE",
"524.833 431.833 OFFCURVE",
"530.5 405.5 CURVE SMOOTH",
"536.167 379.167 OFFCURVE",
"539 350 OFFCURVE",
"539 318 CURVE SMOOTH",
"539 0 LINE",
"397 0 LINE",
"397 292 LINE SMOOTH",
"397 334.667 OFFCURVE",
"390.333 366.5 OFFCURVE",
"377 387.5 CURVE SMOOTH",
"363.667 408.5 OFFCURVE",
"340 419 OFFCURVE",
"306 419 CURVE SMOOTH",
"267.333 419 OFFCURVE",
"239.333 407.5 OFFCURVE",
"222 384.5 CURVE SMOOTH",
"204.667 361.5 OFFCURVE",
"196 323.667 OFFCURVE",
"196 271 CURVE SMOOTH",
"196 0 LINE",
"54 0 LINE",
"54 714 LINE",
"196 714 LINE"
);
}
);
width = 593;
}
);
unicode = 0068;
},
{
glyphname = i;
lastChange = "2019-01-18 19:25:35 +0000";
layers = (
{
layerId = "7D8DBE61-6E0F-4C4E-A5A9-510089B62882";
paths = (
{
closed = 1;
nodes = (
"58 714 LINE",
"200 714 LINE",
"200 597 LINE",
"58 597 LINE"
);
},
{
closed = 1;
nodes = (
"200 0 LINE",
"58 0 LINE",
"58 517 LINE",
"200 517 LINE"
);
}
);
width = 258;
}
);
unicode = 0069;
},
{
glyphname = idotless;
lastChange = "2019-01-18 19:25:35 +0000";
layers = (
{
layerId = "7D8DBE61-6E0F-4C4E-A5A9-510089B62882";
paths = (
{
closed = 1;
nodes = (
"200 0 LINE",
"58 0 LINE",
"58 517 LINE",
"200 517 LINE"
);
}
);
width = 258;
}
);
note = dotlessi;
unicode = 0131;
},
{
glyphname = iacute;
lastChange = "2019-01-18 19:25:35 +0000";
layers = (
{
layerId = "7D8DBE61-6E0F-4C4E-A5A9-510089B62882";
paths = (
{
closed = 1;
nodes = (
"150 723 LINE",
"307 723 LINE",
"153 581 LINE",
"54 581 LINE"
);
},
{
closed = 1;
nodes = (
"200 0 LINE",
"58 0 LINE",
"58 517 LINE",
"200 517 LINE"
);
}
);
width = 258;
}
);
unicode = 00ED;
},
{
glyphname = icircumflex;
lastChange = "2019-01-18 19:25:35 +0000";
layers = (
{
layerId = "7D8DBE61-6E0F-4C4E-A5A9-510089B62882";
paths = (
{
closed = 1;
nodes = (
"305 581 LINE",
"188 581 LINE",
"126 662 LINE",
"62 581 LINE",
"-45 581 LINE",
"65 723 LINE",
"195 723 LINE"
);
},
{
closed = 1;
nodes = (
"200 0 LINE",
"58 0 LINE",
"58 517 LINE",
"200 517 LINE"
);
}
);
width = 258;
}
);
unicode = 00EE;
},
{
glyphname = idieresis;
lastChange = "2019-01-18 19:25:35 +0000";
layers = (
{
layerId = "7D8DBE61-6E0F-4C4E-A5A9-510089B62882";
paths = (
{
closed = 1;
nodes = (
"94 597 LINE",
"-40 597 LINE",
"-40 714 LINE",
"94 714 LINE"
);
},
{
closed = 1;
nodes = (
"300 597 LINE",
"165 597 LINE",
"165 714 LINE",
"300 714 LINE"
);
},
{
closed = 1;
nodes = (
"200 0 LINE",
"58 0 LINE",
"58 517 LINE",
"200 517 LINE"
);
}
);
width = 258;
}
);
unicode = 00EF;
},
{
glyphname = igrave;
lastChange = "2019-01-18 19:25:35 +0000";
layers = (
{
layerId = "7D8DBE61-6E0F-4C4E-A5A9-510089B62882";
paths = (
{
closed = 1;
nodes = (
"205 581 LINE",
"106 581 LINE",
"-47 723 LINE",
"109 723 LINE"
);
},
{
closed = 1;
nodes = (
"200 0 LINE",
"58 0 LINE",
"58 517 LINE",
"200 517 LINE"
);
}
);
width = 258;
}
);
unicode = 00EC;
},
{
glyphname = j;
lastChange = "2019-01-18 19:25:35 +0000";
layers = (
{
layerId = "7D8DBE61-6E0F-4C4E-A5A9-510089B62882";
paths = (
{
closed = 1;
nodes = (
"67 714 LINE",
"209 714 LINE",
"209 597 LINE",
"67 597 LINE"
);
},
{
closed = 1;
nodes = (
"26.667 -64 OFFCURVE",
"39.5 -61.167 OFFCURVE",
"50.5 -55.5 CURVE SMOOTH",
"61.5 -49.833 OFFCURVE",
"67 -37.333 OFFCURVE",
"67 -18 CURVE SMOOTH",
"67 517 LINE",
"209 517 LINE",
"209 -25 LINE SMOOTH",
"209 -51.667 OFFCURVE",
"206.167 -74.667 OFFCURVE",
"200.5 -94 CURVE SMOOTH",
"194.833 -113.333 OFFCURVE",
"185.167 -129.5 OFFCURVE",
"171.5 -142.5 CURVE SMOOTH",
"157.833 -155.5 OFFCURVE",
"139.333 -165.167 OFFCURVE",
"116 -171.5 CURVE SMOOTH",
"92.667 -177.833 OFFCURVE",
"63 -181 OFFCURVE",
"27 -181 CURVE SMOOTH",
"10.333 -181 OFFCURVE",
"-4.667 -179.667 OFFCURVE",
"-18 -177 CURVE",
"-18 -60 LINE",
"-10.667 -62.667 OFFCURVE",
"-0.667 -64 OFFCURVE",
"12 -64 CURVE SMOOTH"
);
}
);
width = 278;
}
);
unicode = 006A;
},
{
glyphname = k;
lastChange = "2019-01-18 19:25:35 +0000";
layers = (
{
layerId = "7D8DBE61-6E0F-4C4E-A5A9-510089B62882";
paths = (
{
closed = 1;
nodes = (
"209 331 LINE",
"388 517 LINE",
"556 517 LINE",
"361 327 LINE",
"578 0 LINE",
"406 0 LINE",
"264 231 LINE",
"209 178 LINE",
"209 0 LINE",
"67 0 LINE",
"67 714 LINE",
"209 714 LINE"
);
}
);
width = 574;
}
);
unicode = 006B;
},
{
glyphname = l;
lastChange = "2019-01-18 19:25:35 +0000";
layers = (
{
layerId = "7D8DBE61-6E0F-4C4E-A5A9-510089B62882";
paths = (
{
closed = 1;
nodes = (
"200 0 LINE",
"58 0 LINE",
"58 714 LINE",
"200 714 LINE"
);
}
);
width = 258;
}
);
unicode = 006C;
},
{
glyphname = lslash;
lastChange = "2019-01-18 19:25:35 +0000";
layers = (
{
layerId = "7D8DBE61-6E0F-4C4E-A5A9-510089B62882";
paths = (
{
closed = 1;
nodes = (
"-8 335 LINE",
"58 388 LINE",
"58 714 LINE",
"200 714 LINE",
"200 500 LINE",
"267 553 LINE",
"267 451 LINE",
"200 398 LINE",
"200 0 LINE",
"58 0 LINE",
"58 286 LINE",
"-8 233 LINE"
);
}
);
width = 258;
}
);
unicode = 0142;
},
{
glyphname = m;
lastChange = "2019-01-18 19:25:35 +0000";
layers = (
{
layerId = "7D8DBE61-6E0F-4C4E-A5A9-510089B62882";
paths = (
{
closed = 1;
nodes = (
"192 447 LINE",
"194 447 LINE",
"212.667 473.667 OFFCURVE",
"235.167 494.333 OFFCURVE",
"261.5 509 CURVE SMOOTH",
"287.833 523.667 OFFCURVE",
"318 531 OFFCURVE",
"352 531 CURVE SMOOTH",
"384.667 531 OFFCURVE",
"414.5 524.667 OFFCURVE",
"441.5 512 CURVE SMOOTH",
"468.5 499.333 OFFCURVE",
"489 477 OFFCURVE",
"503 445 CURVE",
"518.333 467.667 OFFCURVE",
"539.167 487.667 OFFCURVE",
"565.5 505 CURVE SMOOTH",
"591.833 522.333 OFFCURVE",
"623 531 OFFCURVE",
"659 531 CURVE SMOOTH",
"686.333 531 OFFCURVE",
"711.667 527.667 OFFCURVE",
"735 521 CURVE SMOOTH",
"758.333 514.333 OFFCURVE",
"778.333 503.667 OFFCURVE",
"795 489 CURVE SMOOTH",
"811.667 474.333 OFFCURVE",
"824.667 455.167 OFFCURVE",
"834 431.5 CURVE SMOOTH",
"843.333 407.833 OFFCURVE",
"848 379.333 OFFCURVE",
"848 346 CURVE SMOOTH",
"848 0 LINE",
"706 0 LINE",
"706 293 LINE SMOOTH",
"706 310.333 OFFCURVE",
"705.333 326.667 OFFCURVE",
"704 342 CURVE SMOOTH",
"702.667 357.333 OFFCURVE",
"699 370.667 OFFCURVE",
"693 382 CURVE SMOOTH",
"687 393.333 OFFCURVE",
"678.167 402.333 OFFCURVE",
"666.5 409 CURVE SMOOTH",
"654.833 415.667 OFFCURVE",
"639 419 OFFCURVE",
"619 419 CURVE SMOOTH",
"599 419 OFFCURVE",
"582.833 415.167 OFFCURVE",
"570.5 407.5 CURVE SMOOTH",
"558.167 399.833 OFFCURVE",
"548.5 389.833 OFFCURVE",
"541.5 377.5 CURVE SMOOTH",
"534.5 365.167 OFFCURVE",
"529.833 351.167 OFFCURVE",
"527.5 335.5 CURVE SMOOTH",
"525.167 319.833 OFFCURVE",
"524 304 OFFCURVE",
"524 288 CURVE SMOOTH",
"524 0 LINE",
"382 0 LINE",
"382 290 LINE SMOOTH",
"382 305.333 OFFCURVE",
"381.667 320.5 OFFCURVE",
"381 335.5 CURVE SMOOTH",
"380.333 350.5 OFFCURVE",
"377.5 364.333 OFFCURVE",
"372.5 377 CURVE SMOOTH",
"367.5 389.667 OFFCURVE",
"359.167 399.833 OFFCURVE",
"347.5 407.5 CURVE SMOOTH",
"335.833 415.167 OFFCURVE",
"318.667 419 OFFCURVE",
"296 419 CURVE SMOOTH",
"289.333 419 OFFCURVE",
"280.5 417.5 OFFCURVE",
"269.5 414.5 CURVE SMOOTH",
"258.5 411.5 OFFCURVE",
"247.833 405.833 OFFCURVE",
"237.5 397.5 CURVE SMOOTH",
"227.167 389.167 OFFCURVE",
"218.333 377.167 OFFCURVE",
"211 361.5 CURVE SMOOTH",
"203.667 345.833 OFFCURVE",
"200 325.333 OFFCURVE",
"200 300 CURVE SMOOTH",
"200 0 LINE",
"58 0 LINE",
"58 517 LINE",
"192 517 LINE"
);
}
);
width = 906;
}
);
unicode = 006D;
},
{
glyphname = n;
lastChange = "2019-01-18 19:25:35 +0000";
layers = (
{
layerId = "7D8DBE61-6E0F-4C4E-A5A9-510089B62882";
paths = (
{
closed = 1;
nodes = (
"189 445 LINE",
"192 445 LINE",
"210 475 OFFCURVE",
"233.333 496.833 OFFCURVE",
"262 510.5 CURVE SMOOTH",
"290.667 524.167 OFFCURVE",
"320 531 OFFCURVE",
"350 531 CURVE SMOOTH",
"388 531 OFFCURVE",
"419.167 525.833 OFFCURVE",
"443.5 515.5 CURVE SMOOTH",
"467.833 505.167 OFFCURVE",
"487 490.833 OFFCURVE",
"501 472.5 CURVE SMOOTH",
"515 454.167 OFFCURVE",
"524.833 431.833 OFFCURVE",
"530.5 405.5 CURVE SMOOTH",
"536.167 379.167 OFFCURVE",
"539 350 OFFCURVE",
"539 318 CURVE SMOOTH",
"539 0 LINE",
"397 0 LINE",
"397 292 LINE SMOOTH",
"397 334.667 OFFCURVE",
"390.333 366.5 OFFCURVE",
"377 387.5 CURVE SMOOTH",
"363.667 408.5 OFFCURVE",
"340 419 OFFCURVE",
"306 419 CURVE SMOOTH",
"267.333 419 OFFCURVE",
"239.333 407.5 OFFCURVE",
"222 384.5 CURVE SMOOTH",
"204.667 361.5 OFFCURVE",
"196 323.667 OFFCURVE",
"196 271 CURVE SMOOTH",
"196 0 LINE",
"54 0 LINE",
"54 517 LINE",
"189 517 LINE"
);
}
);
width = 593;
}
);
unicode = 006E;
},
{
glyphname = nacute;
lastChange = "2019-01-18 19:25:35 +0000";
layers = (
{
layerId = "7D8DBE61-6E0F-4C4E-A5A9-510089B62882";
paths = (
{
closed = 1;
nodes = (
"54 0 LINE",
"196 0 LINE",
"196 271 LINE SMOOTH",
"196 323.667 OFFCURVE",
"204.667 361.5 OFFCURVE",
"222 384.5 CURVE SMOOTH",
"239.333 407.5 OFFCURVE",
"267.333 419 OFFCURVE",
"306 419 CURVE SMOOTH",
"340 419 OFFCURVE",
"363.667 408.5 OFFCURVE",
"377 387.5 CURVE SMOOTH",
"390.333 366.5 OFFCURVE",
"397 334.667 OFFCURVE",
"397 292 CURVE SMOOTH",
"397 0 LINE",
"539 0 LINE",
"539 318 LINE SMOOTH",
"539 350 OFFCURVE",
"536.167 379.167 OFFCURVE",
"530.5 405.5 CURVE SMOOTH",
"524.833 431.833 OFFCURVE",
"515 454.167 OFFCURVE",
"501 472.5 CURVE SMOOTH",
"487 490.833 OFFCURVE",
"467.833 505.167 OFFCURVE",
"443.5 515.5 CURVE SMOOTH",
"419.167 525.833 OFFCURVE",
"388 531 OFFCURVE",
"350 531 CURVE SMOOTH",
"320 531 OFFCURVE",
"290.667 524.167 OFFCURVE",
"262 510.5 CURVE SMOOTH",
"233.333 496.833 OFFCURVE",
"210 475 OFFCURVE",
"192 445 CURVE",
"189 445 LINE",
"189 517 LINE",
"54 517 LINE"
);
},
{
closed = 1;
nodes = (
"463 723 LINE",
"306 723 LINE",
"210 581 LINE",
"309 581 LINE"
);
}
);
width = 593;
}
);
unicode = 0144;
},
{
glyphname = ntilde;
lastChange = "2019-01-18 19:25:35 +0000";
layers = (
{
layerId = "7D8DBE61-6E0F-4C4E-A5A9-510089B62882";
paths = (
{
closed = 1;
nodes = (
"352.667 600 OFFCURVE",
"338.333 601.833 OFFCURVE",
"325 605.5 CURVE SMOOTH",
"311.667 609.167 OFFCURVE",
"298.667 613 OFFCURVE",
"286 617 CURVE",
"273.333 621.667 OFFCURVE",
"261.333 625.667 OFFCURVE",
"250 629 CURVE SMOOTH",
"238.667 632.333 OFFCURVE",
"227.333 634 OFFCURVE",
"216 634 CURVE SMOOTH",
"202.667 634 OFFCURVE",
"193.167 630.167 OFFCURVE",
"187.5 622.5 CURVE SMOOTH",
"181.833 614.833 OFFCURVE",
"177.333 604.667 OFFCURVE",
"174 592 CURVE",
"113 592 LINE",
"116.333 606.667 OFFCURVE",
"120.667 621.167 OFFCURVE",
"126 635.5 CURVE SMOOTH",
"131.333 649.833 OFFCURVE",
"138.667 662.833 OFFCURVE",
"148 674.5 CURVE SMOOTH",
"157.333 686.167 OFFCURVE",
"169.333 695.667 OFFCURVE",
"184 703 CURVE SMOOTH",
"198.667 710.333 OFFCURVE",
"217 714 OFFCURVE",
"239 714 CURVE SMOOTH",
"250.333 714 OFFCURVE",
"261.167 712.167 OFFCURVE",
"271.5 708.5 CURVE SMOOTH",
"281.833 704.833 OFFCURVE",
"292.333 701 OFFCURVE",
"303 697 CURVE",
"313.667 692.333 OFFCURVE",
"324.5 688.167 OFFCURVE",
"335.5 684.5 CURVE SMOOTH",
"346.5 680.833 OFFCURVE",
"357.667 679 OFFCURVE",
"369 679 CURVE SMOOTH",
"384.333 679 OFFCURVE",
"395.333 682.5 OFFCURVE",
"402 689.5 CURVE SMOOTH",
"408.667 696.5 OFFCURVE",
"411.667 704.667 OFFCURVE",
"411 714 CURVE",
"480 714 LINE",
"476.667 702.667 OFFCURVE",
"472.833 690.333 OFFCURVE",
"468.5 677 CURVE SMOOTH",
"464.167 663.667 OFFCURVE",
"457.833 651.333 OFFCURVE",
"449.5 640 CURVE SMOOTH",
"441.167 628.667 OFFCURVE",
"430.5 619.167 OFFCURVE",
"417.5 611.5 CURVE SMOOTH",
"404.5 603.833 OFFCURVE",
"388 600 OFFCURVE",
"368 600 CURVE SMOOTH"
);
},
{
closed = 1;
nodes = (
"189 445 LINE",
"192 445 LINE",
"210 475 OFFCURVE",
"233.333 496.833 OFFCURVE",
"262 510.5 CURVE SMOOTH",
"290.667 524.167 OFFCURVE",
"320 531 OFFCURVE",
"350 531 CURVE SMOOTH",
"388 531 OFFCURVE",
"419.167 525.833 OFFCURVE",
"443.5 515.5 CURVE SMOOTH",
"467.833 505.167 OFFCURVE",
"487 490.833 OFFCURVE",
"501 472.5 CURVE SMOOTH",
"515 454.167 OFFCURVE",
"524.833 431.833 OFFCURVE",
"530.5 405.5 CURVE SMOOTH",
"536.167 379.167 OFFCURVE",
"539 350 OFFCURVE",
"539 318 CURVE SMOOTH",
"539 0 LINE",
"397 0 LINE",
"397 292 LINE SMOOTH",
"397 334.667 OFFCURVE",
"390.333 366.5 OFFCURVE",
"377 387.5 CURVE SMOOTH",
"363.667 408.5 OFFCURVE",
"340 419 OFFCURVE",
"306 419 CURVE SMOOTH",
"267.333 419 OFFCURVE",
"239.333 407.5 OFFCURVE",
"222 384.5 CURVE SMOOTH",
"204.667 361.5 OFFCURVE",
"196 323.667 OFFCURVE",
"196 271 CURVE SMOOTH",
"196 0 LINE",
"54 0 LINE",
"54 517 LINE",
"189 517 LINE"
);
}
);
width = 593;
}
);
unicode = 00F1;
},
{
glyphname = o;
lastChange = "2019-01-18 19:25:35 +0000";
layers = (
{
layerId = "7D8DBE61-6E0F-4C4E-A5A9-510089B62882";
paths = (
{
closed = 1;
nodes = (
"329 93 OFFCURVE",
"349.167 97.667 OFFCURVE",
"365.5 107 CURVE SMOOTH",
"381.833 116.333 OFFCURVE",
"394.833 128.833 OFFCURVE",
"404.5 144.5 CURVE SMOOTH",
"414.167 160.167 OFFCURVE",
"421 177.833 OFFCURVE",
"425 197.5 CURVE SMOOTH",
"429 217.167 OFFCURVE",
"431 237.333 OFFCURVE",
"431 258 CURVE SMOOTH",
"431 278.667 OFFCURVE",
"429 299 OFFCURVE",
"425 319 CURVE SMOOTH",
"421 339 OFFCURVE",
"414.167 356.667 OFFCURVE",
"404.5 372 CURVE SMOOTH",
"394.833 387.333 OFFCURVE",
"381.833 399.833 OFFCURVE",
"365.5 409.5 CURVE SMOOTH",
"349.167 419.167 OFFCURVE",
"329 424 OFFCURVE",
"305 424 CURVE SMOOTH",
"281 424 OFFCURVE",
"261 419.167 OFFCURVE",
"245 409.5 CURVE SMOOTH",
"229 399.833 OFFCURVE",
"216.167 387.333 OFFCURVE",
"206.5 372 CURVE SMOOTH",
"196.833 356.667 OFFCURVE",
"190 339 OFFCURVE",
"186 319 CURVE SMOOTH",
"182 299 OFFCURVE",
"180 278.667 OFFCURVE",
"180 258 CURVE SMOOTH",
"180 237.333 OFFCURVE",
"182 217.167 OFFCURVE",
"186 197.5 CURVE SMOOTH",
"190 177.833 OFFCURVE",
"196.833 160.167 OFFCURVE",
"206.5 144.5 CURVE SMOOTH",
"216.167 128.833 OFFCURVE",
"229 116.333 OFFCURVE",
"245 107 CURVE SMOOTH",
"261 97.667 OFFCURVE",
"281 93 OFFCURVE",
"305 93 CURVE SMOOTH"
);
},
{
closed = 1;
nodes = (
"345.667 531 OFFCURVE",
"382.5 524.5 OFFCURVE",
"415.5 511.5 CURVE SMOOTH",
"448.5 498.5 OFFCURVE",
"476.667 480.167 OFFCURVE",
"500 456.5 CURVE SMOOTH",
"523.333 432.833 OFFCURVE",
"541.333 404.167 OFFCURVE",
"554 370.5 CURVE SMOOTH",
"566.667 336.833 OFFCURVE",
"573 299.333 OFFCURVE",
"573 258 CURVE SMOOTH",
"573 216.667 OFFCURVE",
"566.667 179.333 OFFCURVE",
"554 146 CURVE SMOOTH",
"541.333 112.667 OFFCURVE",
"523.333 84.167 OFFCURVE",
"500 60.5 CURVE SMOOTH",
"476.667 36.833 OFFCURVE",
"448.5 18.667 OFFCURVE",
"415.5 6 CURVE SMOOTH",
"382.5 -6.667 OFFCURVE",
"345.667 -13 OFFCURVE",
"305 -13 CURVE SMOOTH",
"264.333 -13 OFFCURVE",
"227.667 -6.667 OFFCURVE",
"195 6 CURVE SMOOTH",
"162.333 18.667 OFFCURVE",
"134.333 36.833 OFFCURVE",
"111 60.5 CURVE SMOOTH",
"87.667 84.167 OFFCURVE",
"69.667 112.667 OFFCURVE",
"57 146 CURVE SMOOTH",
"44.333 179.333 OFFCURVE",
"38 216.667 OFFCURVE",
"38 258 CURVE SMOOTH",
"38 299.333 OFFCURVE",
"44.333 336.833 OFFCURVE",
"57 370.5 CURVE SMOOTH",
"69.667 404.167 OFFCURVE",
"87.667 432.833 OFFCURVE",
"111 456.5 CURVE SMOOTH",
"134.333 480.167 OFFCURVE",
"162.333 498.5 OFFCURVE",
"195 511.5 CURVE SMOOTH",
"227.667 524.5 OFFCURVE",
"264.333 531 OFFCURVE",
"305 531 CURVE SMOOTH"
);
}
);
width = 611;
}
);
unicode = 006F;
},
{
glyphname = oacute;
lastChange = "2019-01-18 19:25:35 +0000";
layers = (
{
layerId = "7D8DBE61-6E0F-4C4E-A5A9-510089B62882";
paths = (
{
closed = 1;
nodes = (
"326 723 LINE",
"483 723 LINE",
"329 581 LINE",
"230 581 LINE"
);
},
{
closed = 1;
nodes = (
"329 93 OFFCURVE",
"349.167 97.667 OFFCURVE",
"365.5 107 CURVE SMOOTH",
"381.833 116.333 OFFCURVE",
"394.833 128.833 OFFCURVE",
"404.5 144.5 CURVE SMOOTH",
"414.167 160.167 OFFCURVE",
"421 177.833 OFFCURVE",
"425 197.5 CURVE SMOOTH",
"429 217.167 OFFCURVE",
"431 237.333 OFFCURVE",
"431 258 CURVE SMOOTH",
"431 278.667 OFFCURVE",
"429 299 OFFCURVE",
"425 319 CURVE SMOOTH",
"421 339 OFFCURVE",
"414.167 356.667 OFFCURVE",
"404.5 372 CURVE SMOOTH",
"394.833 387.333 OFFCURVE",
"381.833 399.833 OFFCURVE",
"365.5 409.5 CURVE SMOOTH",
"349.167 419.167 OFFCURVE",
"329 424 OFFCURVE",
"305 424 CURVE SMOOTH",
"281 424 OFFCURVE",
"261 419.167 OFFCURVE",
"245 409.5 CURVE SMOOTH",
"229 399.833 OFFCURVE",
"216.167 387.333 OFFCURVE",
"206.5 372 CURVE SMOOTH",
"196.833 356.667 OFFCURVE",
"190 339 OFFCURVE",
"186 319 CURVE SMOOTH",
"182 299 OFFCURVE",
"180 278.667 OFFCURVE",
"180 258 CURVE SMOOTH",
"180 237.333 OFFCURVE",
"182 217.167 OFFCURVE",
"186 197.5 CURVE SMOOTH",
"190 177.833 OFFCURVE",
"196.833 160.167 OFFCURVE",
"206.5 144.5 CURVE SMOOTH",
"216.167 128.833 OFFCURVE",
"229 116.333 OFFCURVE",
"245 107 CURVE SMOOTH",
"261 97.667 OFFCURVE",
"281 93 OFFCURVE",
"305 93 CURVE SMOOTH"
);
},
{
closed = 1;
nodes = (
"345.667 531 OFFCURVE",
"382.5 524.5 OFFCURVE",
"415.5 511.5 CURVE SMOOTH",
"448.5 498.5 OFFCURVE",
"476.667 480.167 OFFCURVE",
"500 456.5 CURVE SMOOTH",
"523.333 432.833 OFFCURVE",
"541.333 404.167 OFFCURVE",
"554 370.5 CURVE SMOOTH",
"566.667 336.833 OFFCURVE",
"573 299.333 OFFCURVE",
"573 258 CURVE SMOOTH",
"573 216.667 OFFCURVE",
"566.667 179.333 OFFCURVE",
"554 146 CURVE SMOOTH",
"541.333 112.667 OFFCURVE",
"523.333 84.167 OFFCURVE",
"500 60.5 CURVE SMOOTH",
"476.667 36.833 OFFCURVE",
"448.5 18.667 OFFCURVE",
"415.5 6 CURVE SMOOTH",
"382.5 -6.667 OFFCURVE",
"345.667 -13 OFFCURVE",
"305 -13 CURVE SMOOTH",
"264.333 -13 OFFCURVE",
"227.667 -6.667 OFFCURVE",
"195 6 CURVE SMOOTH",
"162.333 18.667 OFFCURVE",
"134.333 36.833 OFFCURVE",
"111 60.5 CURVE SMOOTH",
"87.667 84.167 OFFCURVE",
"69.667 112.667 OFFCURVE",
"57 146 CURVE SMOOTH",
"44.333 179.333 OFFCURVE",
"38 216.667 OFFCURVE",
"38 258 CURVE SMOOTH",
"38 299.333 OFFCURVE",
"44.333 336.833 OFFCURVE",
"57 370.5 CURVE SMOOTH",
"69.667 404.167 OFFCURVE",
"87.667 432.833 OFFCURVE",
"111 456.5 CURVE SMOOTH",
"134.333 480.167 OFFCURVE",
"162.333 498.5 OFFCURVE",
"195 511.5 CURVE SMOOTH",
"227.667 524.5 OFFCURVE",
"264.333 531 OFFCURVE",
"305 531 CURVE SMOOTH"
);
}
);
width = 611;
}
);
unicode = 00F3;
},
{
glyphname = ocircumflex;
lastChange = "2019-01-18 19:25:35 +0000";
layers = (
{
layerId = "7D8DBE61-6E0F-4C4E-A5A9-510089B62882";
paths = (
{
closed = 1;
nodes = (
"481 581 LINE",
"364 581 LINE",
"302 662 LINE",
"238 581 LINE",
"130 581 LINE",
"241 723 LINE",
"371 723 LINE"
);
},
{
closed = 1;
nodes = (
"329 93 OFFCURVE",
"349.167 97.667 OFFCURVE",
"365.5 107 CURVE SMOOTH",
"381.833 116.333 OFFCURVE",
"394.833 128.833 OFFCURVE",
"404.5 144.5 CURVE SMOOTH",
"414.167 160.167 OFFCURVE",
"421 177.833 OFFCURVE",
"425 197.5 CURVE SMOOTH",
"429 217.167 OFFCURVE",
"431 237.333 OFFCURVE",
"431 258 CURVE SMOOTH",
"431 278.667 OFFCURVE",
"429 299 OFFCURVE",
"425 319 CURVE SMOOTH",
"421 339 OFFCURVE",
"414.167 356.667 OFFCURVE",
"404.5 372 CURVE SMOOTH",
"394.833 387.333 OFFCURVE",
"381.833 399.833 OFFCURVE",
"365.5 409.5 CURVE SMOOTH",
"349.167 419.167 OFFCURVE",
"329 424 OFFCURVE",
"305 424 CURVE SMOOTH",
"281 424 OFFCURVE",
"261 419.167 OFFCURVE",
"245 409.5 CURVE SMOOTH",
"229 399.833 OFFCURVE",
"216.167 387.333 OFFCURVE",
"206.5 372 CURVE SMOOTH",
"196.833 356.667 OFFCURVE",
"190 339 OFFCURVE",
"186 319 CURVE SMOOTH",
"182 299 OFFCURVE",
"180 278.667 OFFCURVE",
"180 258 CURVE SMOOTH",
"180 237.333 OFFCURVE",
"182 217.167 OFFCURVE",
"186 197.5 CURVE SMOOTH",
"190 177.833 OFFCURVE",
"196.833 160.167 OFFCURVE",
"206.5 144.5 CURVE SMOOTH",
"216.167 128.833 OFFCURVE",
"229 116.333 OFFCURVE",
"245 107 CURVE SMOOTH",
"261 97.667 OFFCURVE",
"281 93 OFFCURVE",
"305 93 CURVE SMOOTH"
);
},
{
closed = 1;
nodes = (
"345.667 531 OFFCURVE",
"382.5 524.5 OFFCURVE",
"415.5 511.5 CURVE SMOOTH",
"448.5 498.5 OFFCURVE",
"476.667 480.167 OFFCURVE",
"500 456.5 CURVE SMOOTH",
"523.333 432.833 OFFCURVE",
"541.333 404.167 OFFCURVE",
"554 370.5 CURVE SMOOTH",
"566.667 336.833 OFFCURVE",
"573 299.333 OFFCURVE",
"573 258 CURVE SMOOTH",
"573 216.667 OFFCURVE",
"566.667 179.333 OFFCURVE",
"554 146 CURVE SMOOTH",
"541.333 112.667 OFFCURVE",
"523.333 84.167 OFFCURVE",
"500 60.5 CURVE SMOOTH",
"476.667 36.833 OFFCURVE",
"448.5 18.667 OFFCURVE",
"415.5 6 CURVE SMOOTH",
"382.5 -6.667 OFFCURVE",
"345.667 -13 OFFCURVE",
"305 -13 CURVE SMOOTH",
"264.333 -13 OFFCURVE",
"227.667 -6.667 OFFCURVE",
"195 6 CURVE SMOOTH",
"162.333 18.667 OFFCURVE",
"134.333 36.833 OFFCURVE",
"111 60.5 CURVE SMOOTH",
"87.667 84.167 OFFCURVE",
"69.667 112.667 OFFCURVE",
"57 146 CURVE SMOOTH",
"44.333 179.333 OFFCURVE",
"38 216.667 OFFCURVE",
"38 258 CURVE SMOOTH",
"38 299.333 OFFCURVE",
"44.333 336.833 OFFCURVE",
"57 370.5 CURVE SMOOTH",
"69.667 404.167 OFFCURVE",
"87.667 432.833 OFFCURVE",
"111 456.5 CURVE SMOOTH",
"134.333 480.167 OFFCURVE",
"162.333 498.5 OFFCURVE",
"195 511.5 CURVE SMOOTH",
"227.667 524.5 OFFCURVE",
"264.333 531 OFFCURVE",
"305 531 CURVE SMOOTH"
);
}
);
width = 611;
}
);
unicode = 00F4;
},
{
glyphname = odieresis;
lastChange = "2019-01-18 19:25:35 +0000";
layers = (
{
layerId = "7D8DBE61-6E0F-4C4E-A5A9-510089B62882";
paths = (
{
closed = 1;
nodes = (
"270 597 LINE",
"135 597 LINE",
"135 714 LINE",
"270 714 LINE"
);
},
{
closed = 1;
nodes = (
"476 597 LINE",
"341 597 LINE",
"341 714 LINE",
"476 714 LINE"
);
},
{
closed = 1;
nodes = (
"329 93 OFFCURVE",
"349.167 97.667 OFFCURVE",
"365.5 107 CURVE SMOOTH",
"381.833 116.333 OFFCURVE",
"394.833 128.833 OFFCURVE",
"404.5 144.5 CURVE SMOOTH",
"414.167 160.167 OFFCURVE",
"421 177.833 OFFCURVE",
"425 197.5 CURVE SMOOTH",
"429 217.167 OFFCURVE",
"431 237.333 OFFCURVE",
"431 258 CURVE SMOOTH",
"431 278.667 OFFCURVE",
"429 299 OFFCURVE",
"425 319 CURVE SMOOTH",
"421 339 OFFCURVE",
"414.167 356.667 OFFCURVE",
"404.5 372 CURVE SMOOTH",
"394.833 387.333 OFFCURVE",
"381.833 399.833 OFFCURVE",
"365.5 409.5 CURVE SMOOTH",
"349.167 419.167 OFFCURVE",
"329 424 OFFCURVE",
"305 424 CURVE SMOOTH",
"281 424 OFFCURVE",
"261 419.167 OFFCURVE",
"245 409.5 CURVE SMOOTH",
"229 399.833 OFFCURVE",
"216.167 387.333 OFFCURVE",
"206.5 372 CURVE SMOOTH",
"196.833 356.667 OFFCURVE",
"190 339 OFFCURVE",
"186 319 CURVE SMOOTH",
"182 299 OFFCURVE",
"180 278.667 OFFCURVE",
"180 258 CURVE SMOOTH",
"180 237.333 OFFCURVE",
"182 217.167 OFFCURVE",
"186 197.5 CURVE SMOOTH",
"190 177.833 OFFCURVE",
"196.833 160.167 OFFCURVE",
"206.5 144.5 CURVE SMOOTH",
"216.167 128.833 OFFCURVE",
"229 116.333 OFFCURVE",
"245 107 CURVE SMOOTH",
"261 97.667 OFFCURVE",
"281 93 OFFCURVE",
"305 93 CURVE SMOOTH"
);
},
{
closed = 1;
nodes = (
"345.667 531 OFFCURVE",
"382.5 524.5 OFFCURVE",
"415.5 511.5 CURVE SMOOTH",
"448.5 498.5 OFFCURVE",
"476.667 480.167 OFFCURVE",
"500 456.5 CURVE SMOOTH",
"523.333 432.833 OFFCURVE",
"541.333 404.167 OFFCURVE",
"554 370.5 CURVE SMOOTH",
"566.667 336.833 OFFCURVE",
"573 299.333 OFFCURVE",
"573 258 CURVE SMOOTH",
"573 216.667 OFFCURVE",
"566.667 179.333 OFFCURVE",
"554 146 CURVE SMOOTH",
"541.333 112.667 OFFCURVE",
"523.333 84.167 OFFCURVE",
"500 60.5 CURVE SMOOTH",
"476.667 36.833 OFFCURVE",
"448.5 18.667 OFFCURVE",
"415.5 6 CURVE SMOOTH",
"382.5 -6.667 OFFCURVE",
"345.667 -13 OFFCURVE",
"305 -13 CURVE SMOOTH",
"264.333 -13 OFFCURVE",
"227.667 -6.667 OFFCURVE",
"195 6 CURVE SMOOTH",
"162.333 18.667 OFFCURVE",
"134.333 36.833 OFFCURVE",
"111 60.5 CURVE SMOOTH",
"87.667 84.167 OFFCURVE",
"69.667 112.667 OFFCURVE",
"57 146 CURVE SMOOTH",
"44.333 179.333 OFFCURVE",
"38 216.667 OFFCURVE",
"38 258 CURVE SMOOTH",
"38 299.333 OFFCURVE",
"44.333 336.833 OFFCURVE",
"57 370.5 CURVE SMOOTH",
"69.667 404.167 OFFCURVE",
"87.667 432.833 OFFCURVE",
"111 456.5 CURVE SMOOTH",
"134.333 480.167 OFFCURVE",
"162.333 498.5 OFFCURVE",
"195 511.5 CURVE SMOOTH",
"227.667 524.5 OFFCURVE",
"264.333 531 OFFCURVE",
"305 531 CURVE SMOOTH"
);
}
);
width = 611;
}
);
unicode = 00F6;
},
